<svg xmlns="http://www.w3.org/2000/svg" width="320" height="200" viewBox="0 0 240 150"><g id="sol-overlay">
<line x1="30.00" y1="126.00" x2="236.00" y2="126.00" stroke="#000000" stroke-width="1.0" stroke-linecap="round"/>
<line x1="30.00" y1="126.00" x2="30.00" y2="4.00" stroke="#000000" stroke-width="1.0" stroke-linecap="round"/>
<path d="M 231 123.5 L 236 126 L 231 128.5" fill="none" stroke="#000000" stroke-width="1"/>
<path d="M 27.5 9 L 30 4 L 32.5 9" fill="none" stroke="#000000" stroke-width="1"/>
<text x="234.00" y="137.00" font-family="Times New Roman, Times, serif" font-size="7.5" font-weight="normal" text-anchor="end" fill="#000000" stroke="#ffffff" stroke-width="2" stroke-linejoin="round" paint-order="stroke">t, мин</text>
<text x="35.00" y="9.00" font-family="Times New Roman, Times, serif" font-size="7.5" font-weight="normal" text-anchor="start" fill="#000000" stroke="#ffffff" stroke-width="2" stroke-linejoin="round" paint-order="stroke">H, м</text>
<path d="M 30.00 26.44 L 32.18 28.92 L 34.36 31.36 L 36.53 33.77 L 38.71 36.15 L 40.89 38.50 L 43.07 40.82 L 45.24 43.10 L 47.42 45.36 L 49.60 47.58 L 51.78 49.78 L 53.96 51.94 L 56.13 54.07 L 58.31 56.17 L 60.49 58.24 L 62.67 60.28 L 64.84 62.28 L 67.02 64.26 L 69.20 66.20 L 71.38 68.12 L 73.56 70.00 L 75.73 71.85 L 77.91 73.67 L 80.09 75.46 L 82.27 77.22 L 84.44 78.94 L 86.62 80.64 L 88.80 82.30 L 90.98 83.94 L 93.16 85.54 L 95.33 87.11 L 97.51 88.65 L 99.69 90.16 L 101.87 91.64 L 104.04 93.08 L 106.22 94.50 L 108.40 95.88 L 110.58 97.24 L 112.76 98.56 L 114.93 99.85 L 117.11 101.11 L 119.29 102.34 L 121.47 103.54 L 123.64 104.70 L 125.82 105.84 L 128.00 106.94 L 130.18 108.02 L 132.36 109.06 L 134.53 110.07 L 136.71 111.05 L 138.89 112.00 L 141.07 112.92 L 143.24 113.80 L 145.42 114.66 L 147.60 115.48 L 149.78 116.28 L 151.96 117.04 L 154.13 117.77 L 156.31 118.47 L 158.49 119.14 L 160.67 119.78 L 162.84 120.38 L 165.02 120.96 L 167.20 121.50 L 169.38 122.02 L 171.56 122.50 L 173.73 122.95 L 175.91 123.37 L 178.09 123.76 L 180.27 124.12 L 182.44 124.44 L 184.62 124.74 L 186.80 125.00 L 188.98 125.24 L 191.16 125.44 L 193.33 125.61 L 195.51 125.75 L 197.69 125.86 L 199.87 125.94 L 202.04 125.98 L 204.22 126.00" fill="none" stroke="#000000" stroke-width="1.4" stroke-linecap="round"/>
<text x="27.00" y="28.94" font-family="Times New Roman, Times, serif" font-size="7.5" font-weight="normal" text-anchor="end" fill="#000000" stroke="#ffffff" stroke-width="2" stroke-linejoin="round" paint-order="stroke">8</text>
<text x="204.22" y="137.00" font-family="Times New Roman, Times, serif" font-size="8" font-weight="bold" text-anchor="middle" fill="#1d4e89" stroke="#ffffff" stroke-width="2" stroke-linejoin="round" paint-order="stroke">24</text>
<circle cx="204.22" cy="126.00" r="2.2" fill="#1d4e89" stroke="#ffffff" stroke-width="0.6"/>
<text x="204.22" y="119.00" font-family="Times New Roman, Times, serif" font-size="7.5" font-weight="bold" text-anchor="middle" fill="#1d4e89" stroke="#ffffff" stroke-width="2" stroke-linejoin="round" paint-order="stroke">бак пуст</text>
</g>
</svg>