<?xml version="1.0" encoding="UTF-8" standalone="no"?>
<svg
   width="148.944pt"
   height="170.079pt"
   viewBox="0 0 148.944 170.079"
   version="1.1"
   id="svg80"
   sodipodi:docname="plots-60.pdf"
   xmlns:inkscape="http://www.inkscape.org/namespaces/inkscape"
   xmlns:sodipodi="http://sodipodi.sourceforge.net/DTD/sodipodi-0.dtd"
   xmlns:xlink="http://www.w3.org/1999/xlink"
   xmlns="http://www.w3.org/2000/svg"
   xmlns:svg="http://www.w3.org/2000/svg">
  <sodipodi:namedview
     id="namedview80"
     pagecolor="#ffffff"
     bordercolor="#000000"
     borderopacity="0.25"
     inkscape:showpageshadow="2"
     inkscape:pageopacity="0.0"
     inkscape:pagecheckerboard="0"
     inkscape:deskcolor="#d1d1d1"
     inkscape:document-units="pt" />
  <defs
     id="defs25">
    <g
       id="g11">
      <g
         id="glyph-0-0">
        <path
           d="M 2.03125 -1.328125 C 1.609375 -0.625 1.203125 -0.375 0.640625 -0.34375 C 0.5 -0.328125 0.40625 -0.328125 0.40625 -0.125 C 0.40625 -0.046875 0.46875 0 0.546875 0 C 0.765625 0 1.296875 -0.03125 1.515625 -0.03125 C 1.859375 -0.03125 2.25 0 2.578125 0 C 2.65625 0 2.796875 0 2.796875 -0.234375 C 2.796875 -0.328125 2.703125 -0.34375 2.625 -0.34375 C 2.359375 -0.375 2.125 -0.46875 2.125 -0.75 C 2.125 -0.921875 2.203125 -1.046875 2.359375 -1.3125 L 3.265625 -2.828125 L 6.3125 -2.828125 C 6.328125 -2.71875 6.328125 -2.625 6.328125 -2.515625 C 6.375 -2.203125 6.515625 -0.953125 6.515625 -0.734375 C 6.515625 -0.375 5.90625 -0.34375 5.71875 -0.34375 C 5.578125 -0.34375 5.453125 -0.34375 5.453125 -0.125 C 5.453125 0 5.5625 0 5.625 0 C 5.828125 0 6.078125 -0.03125 6.28125 -0.03125 L 6.953125 -0.03125 C 7.6875 -0.03125 8.21875 0 8.21875 0 C 8.3125 0 8.4375 0 8.4375 -0.234375 C 8.4375 -0.34375 8.328125 -0.34375 8.15625 -0.34375 C 7.5 -0.34375 7.484375 -0.453125 7.453125 -0.8125 L 6.71875 -8.265625 C 6.6875 -8.515625 6.640625 -8.53125 6.515625 -8.53125 C 6.390625 -8.53125 6.328125 -8.515625 6.21875 -8.328125 Z M 3.46875 -3.171875 L 5.875 -7.1875 L 6.28125 -3.171875 Z M 3.46875 -3.171875 "
           id="path1" />
      </g>
      <g
         id="glyph-0-1">
        <path
           d="M 4.375 -7.34375 C 4.484375 -7.796875 4.53125 -7.8125 5 -7.8125 L 6.546875 -7.8125 C 7.90625 -7.8125 7.90625 -6.671875 7.90625 -6.5625 C 7.90625 -5.59375 6.9375 -4.359375 5.359375 -4.359375 L 3.640625 -4.359375 Z M 6.390625 -4.265625 C 7.703125 -4.5 8.875 -5.421875 8.875 -6.515625 C 8.875 -7.453125 8.0625 -8.15625 6.703125 -8.15625 L 2.875 -8.15625 C 2.640625 -8.15625 2.53125 -8.15625 2.53125 -7.9375 C 2.53125 -7.8125 2.640625 -7.8125 2.828125 -7.8125 C 3.546875 -7.8125 3.546875 -7.71875 3.546875 -7.59375 C 3.546875 -7.5625 3.546875 -7.5 3.5 -7.3125 L 1.890625 -0.890625 C 1.78125 -0.46875 1.75 -0.34375 0.921875 -0.34375 C 0.6875 -0.34375 0.578125 -0.34375 0.578125 -0.125 C 0.578125 0 0.640625 0 0.890625 0 L 4.984375 0 C 6.8125 0 8.21875 -1.390625 8.21875 -2.59375 C 8.21875 -3.578125 7.359375 -4.171875 6.390625 -4.265625 Z M 4.703125 -0.34375 L 3.078125 -0.34375 C 2.921875 -0.34375 2.890625 -0.34375 2.828125 -0.359375 C 2.6875 -0.375 2.671875 -0.390625 2.671875 -0.484375 C 2.671875 -0.578125 2.703125 -0.640625 2.71875 -0.75 L 3.5625 -4.125 L 5.8125 -4.125 C 7.21875 -4.125 7.21875 -2.8125 7.21875 -2.71875 C 7.21875 -1.5625 6.1875 -0.34375 4.703125 -0.34375 Z M 4.703125 -0.34375 "
           id="path2" />
      </g>
      <g
         id="glyph-0-2">
        <path
           d="M 3.140625 1.34375 C 2.828125 1.796875 2.359375 2.203125 1.765625 2.203125 C 1.625 2.203125 1.046875 2.171875 0.875 1.625 C 0.90625 1.640625 0.96875 1.640625 0.984375 1.640625 C 1.34375 1.640625 1.59375 1.328125 1.59375 1.046875 C 1.59375 0.78125 1.359375 0.6875 1.1875 0.6875 C 0.984375 0.6875 0.578125 0.828125 0.578125 1.40625 C 0.578125 2.015625 1.09375 2.4375 1.765625 2.4375 C 2.96875 2.4375 4.171875 1.34375 4.5 0.015625 L 5.671875 -4.65625 C 5.6875 -4.703125 5.71875 -4.78125 5.71875 -4.859375 C 5.71875 -5.03125 5.5625 -5.15625 5.390625 -5.15625 C 5.28125 -5.15625 5.03125 -5.109375 4.9375 -4.75 L 4.046875 -1.234375 C 4 -1.015625 4 -0.984375 3.890625 -0.859375 C 3.65625 -0.53125 3.265625 -0.125 2.6875 -0.125 C 2.015625 -0.125 1.953125 -0.78125 1.953125 -1.09375 C 1.953125 -1.78125 2.28125 -2.703125 2.609375 -3.5625 C 2.734375 -3.90625 2.8125 -4.078125 2.8125 -4.3125 C 2.8125 -4.8125 2.453125 -5.265625 1.859375 -5.265625 C 0.765625 -5.265625 0.328125 -3.53125 0.328125 -3.4375 C 0.328125 -3.390625 0.375 -3.328125 0.453125 -3.328125 C 0.5625 -3.328125 0.578125 -3.375 0.625 -3.546875 C 0.90625 -4.546875 1.359375 -5.03125 1.828125 -5.03125 C 1.9375 -5.03125 2.140625 -5.03125 2.140625 -4.640625 C 2.140625 -4.328125 2.015625 -3.984375 1.828125 -3.53125 C 1.25 -1.953125 1.25 -1.5625 1.25 -1.28125 C 1.25 -0.140625 2.0625 0.125 2.65625 0.125 C 3 0.125 3.4375 0.015625 3.84375 -0.4375 L 3.859375 -0.421875 C 3.6875 0.28125 3.5625 0.75 3.140625 1.34375 Z M 3.140625 1.34375 "
           id="path3" />
      </g>
      <g
         id="glyph-0-3">
        <path
           d="M 5.328125 -4.8125 C 5.5625 -4.8125 5.671875 -4.8125 5.671875 -5.03125 C 5.671875 -5.15625 5.5625 -5.15625 5.359375 -5.15625 L 4.390625 -5.15625 C 4.609375 -6.390625 4.78125 -7.234375 4.875 -7.609375 C 4.953125 -7.90625 5.203125 -8.171875 5.515625 -8.171875 C 5.765625 -8.171875 6.015625 -8.0625 6.125 -7.953125 C 5.671875 -7.90625 5.515625 -7.5625 5.515625 -7.359375 C 5.515625 -7.125 5.703125 -6.984375 5.921875 -6.984375 C 6.171875 -6.984375 6.53125 -7.1875 6.53125 -7.640625 C 6.53125 -8.140625 6.03125 -8.421875 5.5 -8.421875 C 4.984375 -8.421875 4.484375 -8.03125 4.25 -7.5625 C 4.03125 -7.140625 3.90625 -6.71875 3.640625 -5.15625 L 2.828125 -5.15625 C 2.609375 -5.15625 2.484375 -5.15625 2.484375 -4.9375 C 2.484375 -4.8125 2.5625 -4.8125 2.796875 -4.8125 L 3.5625 -4.8125 C 3.34375 -3.6875 2.859375 -0.984375 2.578125 0.28125 C 2.375 1.328125 2.203125 2.203125 1.609375 2.203125 C 1.5625 2.203125 1.21875 2.203125 1 1.96875 C 1.609375 1.921875 1.609375 1.40625 1.609375 1.390625 C 1.609375 1.140625 1.4375 1 1.203125 1 C 0.96875 1 0.609375 1.203125 0.609375 1.65625 C 0.609375 2.171875 1.140625 2.4375 1.609375 2.4375 C 2.828125 2.4375 3.328125 0.25 3.453125 -0.34375 C 3.671875 -1.265625 4.25 -4.453125 4.3125 -4.8125 Z M 5.328125 -4.8125 "
           id="path4" />
      </g>
      <g
         id="glyph-0-4">
        <path
           d="M 5.671875 -4.875 C 5.28125 -4.8125 5.140625 -4.515625 5.140625 -4.296875 C 5.140625 -4 5.359375 -3.90625 5.53125 -3.90625 C 5.890625 -3.90625 6.140625 -4.21875 6.140625 -4.546875 C 6.140625 -5.046875 5.5625 -5.265625 5.0625 -5.265625 C 4.34375 -5.265625 3.9375 -4.546875 3.828125 -4.328125 C 3.546875 -5.21875 2.8125 -5.265625 2.59375 -5.265625 C 1.375 -5.265625 0.734375 -3.703125 0.734375 -3.4375 C 0.734375 -3.390625 0.78125 -3.328125 0.859375 -3.328125 C 0.953125 -3.328125 0.984375 -3.40625 1 -3.453125 C 1.40625 -4.78125 2.21875 -5.03125 2.5625 -5.03125 C 3.09375 -5.03125 3.203125 -4.53125 3.203125 -4.25 C 3.203125 -3.984375 3.125 -3.703125 2.984375 -3.125 L 2.578125 -1.5 C 2.40625 -0.78125 2.0625 -0.125 1.421875 -0.125 C 1.359375 -0.125 1.0625 -0.125 0.8125 -0.28125 C 1.25 -0.359375 1.34375 -0.71875 1.34375 -0.859375 C 1.34375 -1.09375 1.15625 -1.25 0.9375 -1.25 C 0.640625 -1.25 0.328125 -0.984375 0.328125 -0.609375 C 0.328125 -0.109375 0.890625 0.125 1.40625 0.125 C 1.984375 0.125 2.390625 -0.328125 2.640625 -0.828125 C 2.828125 -0.125 3.4375 0.125 3.875 0.125 C 5.09375 0.125 5.734375 -1.453125 5.734375 -1.703125 C 5.734375 -1.765625 5.6875 -1.8125 5.625 -1.8125 C 5.515625 -1.8125 5.5 -1.75 5.46875 -1.65625 C 5.140625 -0.609375 4.453125 -0.125 3.90625 -0.125 C 3.484375 -0.125 3.265625 -0.4375 3.265625 -0.921875 C 3.265625 -1.1875 3.3125 -1.375 3.5 -2.15625 L 3.921875 -3.796875 C 4.09375 -4.5 4.5 -5.03125 5.0625 -5.03125 C 5.078125 -5.03125 5.421875 -5.03125 5.671875 -4.875 Z M 5.671875 -4.875 "
           id="path5" />
      </g>
      <g
         id="glyph-0-5">
        <path
           d="M 4.046875 -1.515625 C 4 -1.328125 3.96875 -1.28125 3.8125 -1.09375 C 3.328125 -0.46875 2.828125 -0.234375 2.453125 -0.234375 C 2.0625 -0.234375 1.6875 -0.546875 1.6875 -1.375 C 1.6875 -2.015625 2.046875 -3.34375 2.3125 -3.890625 C 2.65625 -4.546875 3.1875 -5.03125 3.6875 -5.03125 C 4.484375 -5.03125 4.640625 -4.046875 4.640625 -3.984375 L 4.609375 -3.8125 Z M 4.78125 -4.484375 C 4.625 -4.828125 4.296875 -5.265625 3.6875 -5.265625 C 2.390625 -5.265625 0.90625 -3.640625 0.90625 -1.859375 C 0.90625 -0.609375 1.65625 0 2.421875 0 C 3.0625 0 3.625 -0.5 3.84375 -0.734375 L 3.578125 0.328125 C 3.40625 0.984375 3.328125 1.296875 2.90625 1.703125 C 2.421875 2.203125 1.953125 2.203125 1.703125 2.203125 C 1.34375 2.203125 1.046875 2.171875 0.734375 2.078125 C 1.125 1.96875 1.21875 1.640625 1.21875 1.5 C 1.21875 1.3125 1.078125 1.125 0.8125 1.125 C 0.53125 1.125 0.21875 1.359375 0.21875 1.75 C 0.21875 2.25 0.703125 2.4375 1.71875 2.4375 C 3.265625 2.4375 4.0625 1.453125 4.21875 0.796875 L 5.546875 -4.546875 C 5.578125 -4.703125 5.578125 -4.71875 5.578125 -4.75 C 5.578125 -4.90625 5.453125 -5.046875 5.265625 -5.046875 C 4.984375 -5.046875 4.8125 -4.8125 4.78125 -4.484375 Z M 4.78125 -4.484375 "
           id="path6" />
      </g>
      <g
         id="glyph-1-0">
        <path
           d="M 8.0625 -3.875 C 8.234375 -3.875 8.453125 -3.875 8.453125 -4.09375 C 8.453125 -4.3125 8.25 -4.3125 8.0625 -4.3125 L 1.03125 -4.3125 C 0.859375 -4.3125 0.640625 -4.3125 0.640625 -4.09375 C 0.640625 -3.875 0.84375 -3.875 1.03125 -3.875 Z M 8.0625 -1.65625 C 8.234375 -1.65625 8.453125 -1.65625 8.453125 -1.859375 C 8.453125 -2.09375 8.25 -2.09375 8.0625 -2.09375 L 1.03125 -2.09375 C 0.859375 -2.09375 0.640625 -2.09375 0.640625 -1.875 C 0.640625 -1.65625 0.84375 -1.65625 1.03125 -1.65625 Z M 8.0625 -1.65625 "
           id="path7" />
      </g>
      <g
         id="glyph-1-1">
        <path
           d="M 3.890625 2.90625 C 3.890625 2.875 3.890625 2.84375 3.6875 2.640625 C 2.484375 1.4375 1.8125 -0.53125 1.8125 -2.96875 C 1.8125 -5.296875 2.375 -7.296875 3.765625 -8.703125 C 3.890625 -8.8125 3.890625 -8.828125 3.890625 -8.875 C 3.890625 -8.9375 3.828125 -8.96875 3.78125 -8.96875 C 3.625 -8.96875 2.640625 -8.109375 2.0625 -6.9375 C 1.453125 -5.71875 1.171875 -4.453125 1.171875 -2.96875 C 1.171875 -1.90625 1.34375 -0.484375 1.953125 0.78125 C 2.671875 2.21875 3.640625 3 3.78125 3 C 3.828125 3 3.890625 2.96875 3.890625 2.90625 Z M 3.890625 2.90625 "
           id="path8" />
      </g>
      <g
         id="glyph-1-2">
        <path
           d="M 3.375 -2.96875 C 3.375 -3.890625 3.25 -5.359375 2.578125 -6.75 C 1.875 -8.1875 0.890625 -8.96875 0.765625 -8.96875 C 0.71875 -8.96875 0.65625 -8.9375 0.65625 -8.875 C 0.65625 -8.828125 0.65625 -8.8125 0.859375 -8.609375 C 2.0625 -7.40625 2.71875 -5.421875 2.71875 -2.984375 C 2.71875 -0.671875 2.15625 1.328125 0.78125 2.734375 C 0.65625 2.84375 0.65625 2.875 0.65625 2.90625 C 0.65625 2.96875 0.71875 3 0.765625 3 C 0.921875 3 1.90625 2.140625 2.484375 0.96875 C 3.09375 -0.25 3.375 -1.546875 3.375 -2.96875 Z M 3.375 -2.96875 "
           id="path9" />
      </g>
      <g
         id="glyph-1-3">
        <path
           d="M 3.4375 -7.65625 C 3.4375 -7.9375 3.4375 -7.953125 3.203125 -7.953125 C 2.921875 -7.625 2.3125 -7.1875 1.09375 -7.1875 L 1.09375 -6.84375 C 1.359375 -6.84375 1.953125 -6.84375 2.625 -7.140625 L 2.625 -0.921875 C 2.625 -0.484375 2.578125 -0.34375 1.53125 -0.34375 L 1.15625 -0.34375 L 1.15625 0 C 1.484375 -0.03125 2.640625 -0.03125 3.03125 -0.03125 C 3.4375 -0.03125 4.578125 -0.03125 4.90625 0 L 4.90625 -0.34375 L 4.53125 -0.34375 C 3.484375 -0.34375 3.4375 -0.484375 3.4375 -0.921875 Z M 3.4375 -7.65625 "
           id="path10" />
      </g>
      <g
         id="glyph-1-4">
        <path
           d="M 5.359375 -3.828125 C 5.359375 -4.8125 5.296875 -5.78125 4.859375 -6.6875 C 4.375 -7.6875 3.515625 -7.953125 2.921875 -7.953125 C 2.234375 -7.953125 1.390625 -7.609375 0.9375 -6.609375 C 0.609375 -5.859375 0.484375 -5.109375 0.484375 -3.828125 C 0.484375 -2.671875 0.578125 -1.796875 1 -0.9375 C 1.46875 -0.03125 2.296875 0.25 2.921875 0.25 C 3.953125 0.25 4.546875 -0.375 4.90625 -1.0625 C 5.328125 -1.953125 5.359375 -3.125 5.359375 -3.828125 Z M 2.921875 0.015625 C 2.53125 0.015625 1.75 -0.203125 1.53125 -1.5 C 1.40625 -2.21875 1.40625 -3.125 1.40625 -3.96875 C 1.40625 -4.953125 1.40625 -5.828125 1.59375 -6.53125 C 1.796875 -7.34375 2.40625 -7.703125 2.921875 -7.703125 C 3.375 -7.703125 4.0625 -7.4375 4.296875 -6.40625 C 4.453125 -5.71875 4.453125 -4.78125 4.453125 -3.96875 C 4.453125 -3.171875 4.453125 -2.265625 4.3125 -1.53125 C 4.09375 -0.21875 3.328125 0.015625 2.921875 0.015625 Z M 2.921875 0.015625 "
           id="path11" />
      </g>
    </g>
    <clipPath
       id="clip-0">
      <path
         clip-rule="nonzero"
         d="M 148 0 L 148.941406 0 L 148.941406 170 L 148 170 Z M 148 0 "
         id="path12" />
    </clipPath>
    <clipPath
       id="clip-1">
      <path
         clip-rule="nonzero"
         d="M 0 169 L 148.941406 169 L 148.941406 170 L 0 170 Z M 0 169 "
         id="path13" />
    </clipPath>
    <clipPath
       id="clip-2">
      <path
         clip-rule="nonzero"
         d="M 0 148 L 148.941406 148 L 148.941406 149 L 0 149 Z M 0 148 "
         id="path14" />
    </clipPath>
    <clipPath
       id="clip-3">
      <path
         clip-rule="nonzero"
         d="M 0 127 L 148.941406 127 L 148.941406 128 L 0 128 Z M 0 127 "
         id="path15" />
    </clipPath>
    <clipPath
       id="clip-4">
      <path
         clip-rule="nonzero"
         d="M 0 105 L 148.941406 105 L 148.941406 107 L 0 107 Z M 0 105 "
         id="path16" />
    </clipPath>
    <clipPath
       id="clip-5">
      <path
         clip-rule="nonzero"
         d="M 0 84 L 148.941406 84 L 148.941406 86 L 0 86 Z M 0 84 "
         id="path17" />
    </clipPath>
    <clipPath
       id="clip-6">
      <path
         clip-rule="nonzero"
         d="M 0 63 L 148.941406 63 L 148.941406 65 L 0 65 Z M 0 63 "
         id="path18" />
    </clipPath>
    <clipPath
       id="clip-7">
      <path
         clip-rule="nonzero"
         d="M 0 42 L 148.941406 42 L 148.941406 44 L 0 44 Z M 0 42 "
         id="path19" />
    </clipPath>
    <clipPath
       id="clip-8">
      <path
         clip-rule="nonzero"
         d="M 0 21 L 148.941406 21 L 148.941406 22 L 0 22 Z M 0 21 "
         id="path20" />
    </clipPath>
    <clipPath
       id="clip-9">
      <path
         clip-rule="nonzero"
         d="M 0 0 L 148.941406 0 L 148.941406 1 L 0 1 Z M 0 0 "
         id="path21" />
    </clipPath>
    <clipPath
       id="clip-10">
      <path
         clip-rule="nonzero"
         d="M 141 125 L 148.941406 125 L 148.941406 130 L 141 130 Z M 141 125 "
         id="path22" />
    </clipPath>
    <clipPath
       id="clip-11">
      <path
         clip-rule="nonzero"
         d="M 0 126 L 148.941406 126 L 148.941406 128 L 0 128 Z M 0 126 "
         id="path23" />
    </clipPath>
    <clipPath
       id="clip-12">
      <path
         clip-rule="nonzero"
         d="M 21 0 L 23 0 L 23 170.078125 L 21 170.078125 Z M 21 0 "
         id="path24" />
    </clipPath>
    <clipPath
       id="clip-13">
      <path
         clip-rule="nonzero"
         d="M 138 113 L 148.941406 113 L 148.941406 122 L 138 122 Z M 138 113 "
         id="path25" />
    </clipPath>
  </defs>
  <path
     fill="none"
     stroke-width="5"
     stroke-linecap="round"
     stroke-linejoin="round"
     stroke="rgb(66.601562%, 66.601562%, 66.601562%)"
     stroke-opacity="1"
     stroke-miterlimit="10"
     d="M 5 5.01875 L 5 1695.8 "
     transform="matrix(0.1, 0, 0, -0.1, 0, 170.08)"
     id="path26" />
  <path
     fill="none"
     stroke-width="5"
     stroke-linecap="round"
     stroke-linejoin="round"
     stroke="rgb(66.601562%, 66.601562%, 66.601562%)"
     stroke-opacity="1"
     stroke-miterlimit="10"
     d="M 216.367188 5.01875 L 216.367188 1695.8 "
     transform="matrix(0.1, 0, 0, -0.1, 0, 170.08)"
     id="path27" />
  <path
     fill="none"
     stroke-width="5"
     stroke-linecap="round"
     stroke-linejoin="round"
     stroke="rgb(66.601562%, 66.601562%, 66.601562%)"
     stroke-opacity="1"
     stroke-miterlimit="10"
     d="M 427.695312 5.01875 L 427.695312 1695.8 "
     transform="matrix(0.1, 0, 0, -0.1, 0, 170.08)"
     id="path28" />
  <path
     fill="none"
     stroke-width="5"
     stroke-linecap="round"
     stroke-linejoin="round"
     stroke="rgb(66.601562%, 66.601562%, 66.601562%)"
     stroke-opacity="1"
     stroke-miterlimit="10"
     d="M 639.0625 5.01875 L 639.0625 1695.8 "
     transform="matrix(0.1, 0, 0, -0.1, 0, 170.08)"
     id="path29" />
  <path
     fill="none"
     stroke-width="5"
     stroke-linecap="round"
     stroke-linejoin="round"
     stroke="rgb(66.601562%, 66.601562%, 66.601562%)"
     stroke-opacity="1"
     stroke-miterlimit="10"
     d="M 850.390625 5.01875 L 850.390625 1695.8 "
     transform="matrix(0.1, 0, 0, -0.1, 0, 170.08)"
     id="path30" />
  <path
     fill="none"
     stroke-width="5"
     stroke-linecap="round"
     stroke-linejoin="round"
     stroke="rgb(66.601562%, 66.601562%, 66.601562%)"
     stroke-opacity="1"
     stroke-miterlimit="10"
     d="M 1061.757812 5.01875 L 1061.757812 1695.8 "
     transform="matrix(0.1, 0, 0, -0.1, 0, 170.08)"
     id="path31" />
  <path
     fill="none"
     stroke-width="5"
     stroke-linecap="round"
     stroke-linejoin="round"
     stroke="rgb(66.601562%, 66.601562%, 66.601562%)"
     stroke-opacity="1"
     stroke-miterlimit="10"
     d="M 1273.085938 5.01875 L 1273.085938 1695.8 "
     transform="matrix(0.1, 0, 0, -0.1, 0, 170.08)"
     id="path32" />
  <g
     clip-path="url(#clip-0)"
     id="g33">
    <path
       fill="none"
       stroke-width="5"
       stroke-linecap="round"
       stroke-linejoin="round"
       stroke="rgb(66.601562%, 66.601562%, 66.601562%)"
       stroke-opacity="1"
       stroke-miterlimit="10"
       d="M 1484.453125 5.01875 L 1484.453125 1695.8 "
       transform="matrix(0.1, 0, 0, -0.1, 0, 170.08)"
       id="path33" />
  </g>
  <g
     clip-path="url(#clip-1)"
     id="g34">
    <path
       fill="none"
       stroke-width="5"
       stroke-linecap="round"
       stroke-linejoin="round"
       stroke="rgb(66.601562%, 66.601562%, 66.601562%)"
       stroke-opacity="1"
       stroke-miterlimit="10"
       d="M 5 5.01875 L 1484.453125 5.01875 "
       transform="matrix(0.1, 0, 0, -0.1, 0, 170.08)"
       id="path34" />
  </g>
  <g
     clip-path="url(#clip-2)"
     id="g35">
    <path
       fill="none"
       stroke-width="5"
       stroke-linecap="round"
       stroke-linejoin="round"
       stroke="rgb(66.601562%, 66.601562%, 66.601562%)"
       stroke-opacity="1"
       stroke-miterlimit="10"
       d="M 5 216.346875 L 1484.453125 216.346875 "
       transform="matrix(0.1, 0, 0, -0.1, 0, 170.08)"
       id="path35" />
  </g>
  <g
     clip-path="url(#clip-3)"
     id="g36">
    <path
       fill="none"
       stroke-width="5"
       stroke-linecap="round"
       stroke-linejoin="round"
       stroke="rgb(66.601562%, 66.601562%, 66.601562%)"
       stroke-opacity="1"
       stroke-miterlimit="10"
       d="M 5 427.714062 L 1484.453125 427.714062 "
       transform="matrix(0.1, 0, 0, -0.1, 0, 170.08)"
       id="path36" />
  </g>
  <g
     clip-path="url(#clip-4)"
     id="g37">
    <path
       fill="none"
       stroke-width="5"
       stroke-linecap="round"
       stroke-linejoin="round"
       stroke="rgb(66.601562%, 66.601562%, 66.601562%)"
       stroke-opacity="1"
       stroke-miterlimit="10"
       d="M 5 639.042187 L 1484.453125 639.042187 "
       transform="matrix(0.1, 0, 0, -0.1, 0, 170.08)"
       id="path37" />
  </g>
  <g
     clip-path="url(#clip-5)"
     id="g38">
    <path
       fill="none"
       stroke-width="5"
       stroke-linecap="round"
       stroke-linejoin="round"
       stroke="rgb(66.601562%, 66.601562%, 66.601562%)"
       stroke-opacity="1"
       stroke-miterlimit="10"
       d="M 5 850.409375 L 1484.453125 850.409375 "
       transform="matrix(0.1, 0, 0, -0.1, 0, 170.08)"
       id="path38" />
  </g>
  <g
     clip-path="url(#clip-6)"
     id="g39">
    <path
       fill="none"
       stroke-width="5"
       stroke-linecap="round"
       stroke-linejoin="round"
       stroke="rgb(66.601562%, 66.601562%, 66.601562%)"
       stroke-opacity="1"
       stroke-miterlimit="10"
       d="M 5 1061.7375 L 1484.453125 1061.7375 "
       transform="matrix(0.1, 0, 0, -0.1, 0, 170.08)"
       id="path39" />
  </g>
  <g
     clip-path="url(#clip-7)"
     id="g40">
    <path
       fill="none"
       stroke-width="5"
       stroke-linecap="round"
       stroke-linejoin="round"
       stroke="rgb(66.601562%, 66.601562%, 66.601562%)"
       stroke-opacity="1"
       stroke-miterlimit="10"
       d="M 5 1273.104687 L 1484.453125 1273.104687 "
       transform="matrix(0.1, 0, 0, -0.1, 0, 170.08)"
       id="path40" />
  </g>
  <g
     clip-path="url(#clip-8)"
     id="g41">
    <path
       fill="none"
       stroke-width="5"
       stroke-linecap="round"
       stroke-linejoin="round"
       stroke="rgb(66.601562%, 66.601562%, 66.601562%)"
       stroke-opacity="1"
       stroke-miterlimit="10"
       d="M 5 1484.432812 L 1484.453125 1484.432812 "
       transform="matrix(0.1, 0, 0, -0.1, 0, 170.08)"
       id="path41" />
  </g>
  <g
     clip-path="url(#clip-9)"
     id="g42">
    <path
       fill="none"
       stroke-width="5"
       stroke-linecap="round"
       stroke-linejoin="round"
       stroke="rgb(66.601562%, 66.601562%, 66.601562%)"
       stroke-opacity="1"
       stroke-miterlimit="10"
       d="M 5 1695.8 L 1484.453125 1695.8 "
       transform="matrix(0.1, 0, 0, -0.1, 0, 170.08)"
       id="path42" />
  </g>
  <path
     fill="none"
     stroke-width="8"
     stroke-linecap="round"
     stroke-linejoin="round"
     stroke="rgb(0%, 0%, 0%)"
     stroke-opacity="1"
     stroke-miterlimit="10"
     d="M 1414.453125 427.714062 L 5 427.714062 "
     transform="matrix(0.1, 0, 0, -0.1, 0, 170.08)"
     id="path43" />
  <g
     clip-path="url(#clip-10)"
     id="g44">
    <path
       fill-rule="nonzero"
       fill="rgb(0%, 0%, 0%)"
       fill-opacity="1"
       stroke-width="8"
       stroke-linecap="round"
       stroke-linejoin="round"
       stroke="rgb(0%, 0%, 0%)"
       stroke-opacity="1"
       stroke-miterlimit="10"
       d="M 1484.453125 427.714062 L 1414.453125 446.464062 L 1414.453125 408.925 Z M 1484.453125 427.714062 "
       transform="matrix(0.1, 0, 0, -0.1, 0, 170.08)"
       id="path44" />
  </g>
  <g
     clip-path="url(#clip-11)"
     id="g45">
    <path
       fill="none"
       stroke-width="10"
       stroke-linecap="round"
       stroke-linejoin="round"
       stroke="rgb(0%, 0%, 0%)"
       stroke-opacity="1"
       stroke-miterlimit="10"
       d="M 5 427.714062 L 1484.453125 427.714062 "
       transform="matrix(0.1, 0, 0, -0.1, 0, 170.08)"
       id="path45" />
  </g>
  <path
     fill="none"
     stroke-width="8"
     stroke-linecap="round"
     stroke-linejoin="round"
     stroke="rgb(0%, 0%, 0%)"
     stroke-opacity="1"
     stroke-miterlimit="10"
     d="M 216.367188 1625.8 L 216.367188 5.01875 "
     transform="matrix(0.1, 0, 0, -0.1, 0, 170.08)"
     id="path46" />
  <path
     fill-rule="nonzero"
     fill="rgb(0%, 0%, 0%)"
     fill-opacity="1"
     stroke-width="8"
     stroke-linecap="round"
     stroke-linejoin="round"
     stroke="rgb(0%, 0%, 0%)"
     stroke-opacity="1"
     stroke-miterlimit="10"
     d="M 216.367188 1695.8 L 197.578125 1625.8 L 235.117188 1625.8 Z M 216.367188 1695.8 "
     transform="matrix(0.1, 0, 0, -0.1, 0, 170.08)"
     id="path47" />
  <g
     clip-path="url(#clip-12)"
     id="g48">
    <path
       fill="none"
       stroke-width="10"
       stroke-linecap="round"
       stroke-linejoin="round"
       stroke="rgb(0%, 0%, 0%)"
       stroke-opacity="1"
       stroke-miterlimit="10"
       d="M 216.367188 5.01875 L 216.367188 1695.8 "
       transform="matrix(0.1, 0, 0, -0.1, 0, 170.08)"
       id="path48" />
  </g>
  <path
     fill-rule="nonzero"
     fill="rgb(100%, 100%, 100%)"
     fill-opacity="1"
     d="M 7.765625 125.207031 L 19.53125 125.207031 L 19.53125 114.046875 L 7.765625 114.046875 L 7.765625 125.207031 "
     id="path49" />
  <path
     fill-rule="nonzero"
     fill="rgb(100%, 100%, 100%)"
     fill-opacity="1"
     d="M 71.289062 45.464844 L 83.777344 45.464844 L 83.777344 34.304688 L 71.289062 34.304688 L 71.289062 45.464844 "
     id="path50" />
  <path
     fill-rule="nonzero"
     fill="rgb(100%, 100%, 100%)"
     fill-opacity="1"
     d="M 92.902344 29.109375 L 140.578125 29.109375 L 140.578125 14.164062 L 92.902344 14.164062 L 92.902344 29.109375 "
     id="path51" />
  <path
     fill-rule="nonzero"
     fill="rgb(100%, 100%, 100%)"
     fill-opacity="1"
     d="M 40.570312 109.421875 L 87.238281 109.421875 L 87.238281 94.476562 L 40.570312 94.476562 L 40.570312 109.421875 "
     id="path52" />
  <path
     fill="none"
     stroke-width="8"
     stroke-linecap="round"
     stroke-linejoin="round"
     stroke="rgb(0%, 0%, 0%)"
     stroke-opacity="1"
     stroke-miterlimit="10"
     d="M 216.367188 427.714062 L 224.804688 554.510937 L 233.242188 607.05 L 241.71875 647.323437 L 250.15625 681.307812 L 258.632812 711.26875 L 267.070312 738.3 L 275.507812 763.221875 L 283.984375 786.385937 L 292.421875 808.14375 L 300.898438 828.690625 L 309.335938 848.260937 L 317.8125 866.971875 L 326.25 884.901562 L 334.6875 902.167187 L 343.164062 918.846875 L 351.601562 934.940625 L 360.078125 950.526562 L 368.515625 965.721875 L 376.992188 980.448437 L 385.429688 994.823437 L 393.867188 1008.807812 L 402.34375 1022.479687 L 410.78125 1035.839062 L 419.257812 1048.925 L 427.695312 1061.7375 L 436.132812 1074.315625 L 444.609375 1086.620312 L 453.046875 1098.690625 L 461.523438 1110.604687 L 469.960938 1122.245312 L 478.4375 1133.729687 L 486.875 1145.057812 L 495.3125 1156.151562 L 503.789062 1167.128125 L 512.226562 1177.909375 L 520.703125 1188.534375 L 529.140625 1199.042187 L 537.617188 1209.39375 L 546.054688 1219.628125 L 554.492188 1229.70625 L 562.96875 1239.667187 L 571.40625 1249.510937 L 579.882812 1259.2375 L 588.320312 1268.846875 L 596.757812 1278.378125 L 605.234375 1287.753125 L 613.671875 1297.05 L 622.148438 1306.26875 L 630.585938 1315.370312 L 639.0625 1324.354687 L 647.5 1333.3 L 655.9375 1342.128125 L 664.414062 1350.878125 L 672.851562 1359.55 L 681.328125 1368.14375 L 689.765625 1376.659375 L 698.242188 1385.096875 L 706.679688 1393.45625 L 715.117188 1401.7375 L 723.59375 1409.940625 L 732.03125 1418.104687 L 740.507812 1426.190625 L 748.945312 1434.198437 L 757.382812 1442.167187 L 765.859375 1450.057812 L 774.296875 1457.909375 L 782.773438 1465.682812 L 791.210938 1473.378125 L 799.6875 1481.034375 L 808.125 1488.651562 L 816.5625 1496.190625 L 825.039062 1503.690625 L 833.476562 1511.151562 L 841.953125 1518.534375 L 850.390625 1525.878125 L 858.867188 1533.182812 L 867.304688 1540.448437 L 875.742188 1547.635937 L 884.21875 1554.784375 L 892.65625 1561.89375 L 901.132812 1568.964062 L 909.570312 1575.995312 L 918.007812 1582.9875 L 926.484375 1589.901562 L 934.921875 1596.815625 L 943.398438 1603.690625 L 951.835938 1610.4875 L 960.3125 1617.284375 L 977.1875 1630.721875 L 985.664062 1637.3625 L 994.101562 1644.003125 L 1002.578125 1650.604687 L 1011.015625 1657.167187 L 1019.453125 1663.690625 L 1027.929688 1670.175 L 1036.367188 1676.620312 L 1044.84375 1683.026562 L 1053.28125 1689.432812 L 1061.757812 1695.8 "
     transform="matrix(0.1, 0, 0, -0.1, 0, 170.08)"
     id="path53" />
  <path
     fill="none"
     stroke-width="8"
     stroke-linecap="round"
     stroke-linejoin="round"
     stroke="rgb(0%, 0%, 0%)"
     stroke-opacity="1"
     stroke-miterlimit="10"
     d="M 5 5.01875 L 850.390625 1695.8 "
     transform="matrix(0.1, 0, 0, -0.1, 0, 170.08)"
     id="path54" />
  <path
     fill-rule="nonzero"
     fill="rgb(100%, 100%, 100%)"
     fill-opacity="1"
     d="M 38.347656 140.109375 L 47.191406 140.109375 L 47.191406 129.414062 L 38.347656 129.414062 L 38.347656 140.109375 "
     id="path55" />
  <path
     fill-rule="nonzero"
     fill="rgb(100%, 100%, 100%)"
     fill-opacity="1"
     d="M 10.6875 111.523438 L 19.53125 111.523438 L 19.53125 100.828125 L 10.6875 100.828125 L 10.6875 111.523438 "
     id="path56" />
  <g
     clip-path="url(#clip-13)"
     id="g57">
    <path
       fill-rule="nonzero"
       fill="rgb(100%, 100%, 100%)"
       fill-opacity="1"
       d="M 138.363281 121.609375 L 148.003906 121.609375 L 148.003906 113.472656 L 138.363281 113.472656 L 138.363281 121.609375 "
       id="path57" />
  </g>
  <path
     fill-rule="nonzero"
     fill="rgb(100%, 100%, 100%)"
     fill-opacity="1"
     d="M 27.335938 11.199219 L 36.460938 11.199219 L 36.460938 0.734375 L 27.335938 0.734375 L 27.335938 11.199219 "
     id="path58" />
  <path
     fill="none"
     stroke-width="30"
     stroke-linecap="round"
     stroke-linejoin="round"
     stroke="rgb(0%, 0%, 0%)"
     stroke-opacity="1"
     stroke-miterlimit="10"
     d="M 216.367188 427.714062 L 216.367188 427.714062 "
     transform="matrix(0.1, 0, 0, -0.1, 0, 170.08)"
     id="path59" />
  <path
     fill="none"
     stroke-width="30"
     stroke-linecap="round"
     stroke-linejoin="round"
     stroke="rgb(0%, 0%, 0%)"
     stroke-opacity="1"
     stroke-miterlimit="10"
     d="M 427.695312 850.409375 L 427.695312 850.409375 "
     transform="matrix(0.1, 0, 0, -0.1, 0, 170.08)"
     id="path60" />
  <path
     fill="none"
     stroke-width="30"
     stroke-linecap="round"
     stroke-linejoin="round"
     stroke="rgb(0%, 0%, 0%)"
     stroke-opacity="1"
     stroke-miterlimit="10"
     d="M 427.695312 1061.7375 L 427.695312 1061.7375 "
     transform="matrix(0.1, 0, 0, -0.1, 0, 170.08)"
     id="path61" />
  <path
     fill="none"
     stroke-width="30"
     stroke-linecap="round"
     stroke-linejoin="round"
     stroke="rgb(0%, 0%, 0%)"
     stroke-opacity="1"
     stroke-miterlimit="10"
     d="M 691.875 1378.76875 L 691.875 1378.76875 "
     transform="matrix(0.1, 0, 0, -0.1, 0, 170.08)"
     id="path62" />
  <g
     fill="rgb(0%, 0%, 0%)"
     fill-opacity="1"
     id="g62">
    <use
       xlink:href="#glyph-0-0"
       x="9.258"
       y="123.713"
       id="use62" />
  </g>
  <g
     fill="rgb(0%, 0%, 0%)"
     fill-opacity="1"
     id="g63">
    <use
       xlink:href="#glyph-0-1"
       x="72.781"
       y="43.97"
       id="use63" />
  </g>
  <g
     fill="rgb(0%, 0%, 0%)"
     fill-opacity="1"
     id="g64">
    <use
       xlink:href="#glyph-0-2"
       x="94.394"
       y="24.625"
       id="use64" />
  </g>
  <g
     fill="rgb(0%, 0%, 0%)"
     fill-opacity="1"
     id="g65">
    <use
       xlink:href="#glyph-1-0"
       x="103.855345"
       y="24.625"
       id="use65" />
  </g>
  <g
     fill="rgb(0%, 0%, 0%)"
     fill-opacity="1"
     id="g66">
    <use
       xlink:href="#glyph-0-3"
       x="116.272016"
       y="24.625"
       id="use66" />
  </g>
  <g
     fill="rgb(0%, 0%, 0%)"
     fill-opacity="1"
     id="g67">
    <use
       xlink:href="#glyph-1-1"
       x="123.320802"
       y="24.625"
       id="use67" />
  </g>
  <g
     fill="rgb(0%, 0%, 0%)"
     fill-opacity="1"
     id="g68">
    <use
       xlink:href="#glyph-0-4"
       x="127.873342"
       y="24.625"
       id="use68" />
  </g>
  <g
     fill="rgb(0%, 0%, 0%)"
     fill-opacity="1"
     id="g69">
    <use
       xlink:href="#glyph-1-2"
       x="134.525215"
       y="24.625"
       id="use69" />
  </g>
  <g
     fill="rgb(0%, 0%, 0%)"
     fill-opacity="1"
     id="g70">
    <use
       xlink:href="#glyph-0-2"
       x="42.063"
       y="104.937"
       id="use70" />
  </g>
  <g
     fill="rgb(0%, 0%, 0%)"
     fill-opacity="1"
     id="g71">
    <use
       xlink:href="#glyph-1-0"
       x="51.524345"
       y="104.937"
       id="use71" />
  </g>
  <g
     fill="rgb(0%, 0%, 0%)"
     fill-opacity="1"
     id="g72">
    <use
       xlink:href="#glyph-0-5"
       x="63.941016"
       y="104.937"
       id="use72" />
  </g>
  <g
     fill="rgb(0%, 0%, 0%)"
     fill-opacity="1"
     id="g73">
    <use
       xlink:href="#glyph-1-1"
       x="69.977196"
       y="104.937"
       id="use73" />
  </g>
  <g
     fill="rgb(0%, 0%, 0%)"
     fill-opacity="1"
     id="g74">
    <use
       xlink:href="#glyph-0-4"
       x="74.529737"
       y="104.937"
       id="use74" />
  </g>
  <g
     fill="rgb(0%, 0%, 0%)"
     fill-opacity="1"
     id="g75">
    <use
       xlink:href="#glyph-1-2"
       x="81.18161"
       y="104.937"
       id="use75" />
  </g>
  <g
     fill="rgb(0%, 0%, 0%)"
     fill-opacity="1"
     id="g76">
    <use
       xlink:href="#glyph-1-3"
       x="39.839"
       y="138.612"
       id="use76" />
  </g>
  <g
     fill="rgb(0%, 0%, 0%)"
     fill-opacity="1"
     id="g77">
    <use
       xlink:href="#glyph-1-3"
       x="12.18"
       y="110.028"
       id="use77" />
  </g>
  <g
     fill="rgb(0%, 0%, 0%)"
     fill-opacity="1"
     id="g78">
    <use
       xlink:href="#glyph-1-4"
       x="25.228"
       y="138.612"
       id="use78" />
  </g>
  <g
     fill="rgb(0%, 0%, 0%)"
     fill-opacity="1"
     id="g79">
    <use
       xlink:href="#glyph-0-4"
       x="139.853"
       y="120.115"
       id="use79" />
  </g>
  <g
     fill="rgb(0%, 0%, 0%)"
     fill-opacity="1"
     id="g80">
    <use
       xlink:href="#glyph-0-2"
       x="28.825"
       y="7.378"
       id="use80" />
  </g>
</svg>
