<?xml version="1.0" encoding="UTF-8" standalone="no"?>
<svg
   width="198.425pt"
   height="119.455pt"
   viewBox="0 0 198.425 119.455"
   version="1.1"
   id="svg239"
   sodipodi:docname="derivatives-38.pdf"
   xmlns:inkscape="http://www.inkscape.org/namespaces/inkscape"
   xmlns:sodipodi="http://sodipodi.sourceforge.net/DTD/sodipodi-0.dtd"
   xmlns:xlink="http://www.w3.org/1999/xlink"
   xmlns="http://www.w3.org/2000/svg"
   xmlns:svg="http://www.w3.org/2000/svg">
  <sodipodi:namedview
     id="namedview239"
     pagecolor="#ffffff"
     bordercolor="#000000"
     borderopacity="0.25"
     inkscape:showpageshadow="2"
     inkscape:pageopacity="0.0"
     inkscape:pagecheckerboard="0"
     inkscape:deskcolor="#d1d1d1"
     inkscape:document-units="pt" />
  <defs
     id="defs116">
    <g
       id="g9">
      <g
         id="glyph-0-0">
        <path
           d="M 3.140625 1.34375 C 2.828125 1.796875 2.359375 2.203125 1.765625 2.203125 C 1.625 2.203125 1.046875 2.171875 0.875 1.625 C 0.90625 1.640625 0.96875 1.640625 0.984375 1.640625 C 1.34375 1.640625 1.59375 1.328125 1.59375 1.046875 C 1.59375 0.78125 1.359375 0.6875 1.1875 0.6875 C 0.984375 0.6875 0.578125 0.828125 0.578125 1.40625 C 0.578125 2.015625 1.09375 2.4375 1.765625 2.4375 C 2.96875 2.4375 4.171875 1.34375 4.5 0.015625 L 5.671875 -4.65625 C 5.6875 -4.703125 5.71875 -4.78125 5.71875 -4.859375 C 5.71875 -5.03125 5.5625 -5.15625 5.390625 -5.15625 C 5.28125 -5.15625 5.03125 -5.109375 4.9375 -4.75 L 4.046875 -1.234375 C 4 -1.015625 4 -0.984375 3.890625 -0.859375 C 3.65625 -0.53125 3.265625 -0.125 2.6875 -0.125 C 2.015625 -0.125 1.953125 -0.78125 1.953125 -1.09375 C 1.953125 -1.78125 2.28125 -2.703125 2.609375 -3.5625 C 2.734375 -3.90625 2.8125 -4.078125 2.8125 -4.3125 C 2.8125 -4.8125 2.453125 -5.265625 1.859375 -5.265625 C 0.765625 -5.265625 0.328125 -3.53125 0.328125 -3.4375 C 0.328125 -3.390625 0.375 -3.328125 0.453125 -3.328125 C 0.5625 -3.328125 0.578125 -3.375 0.625 -3.546875 C 0.90625 -4.546875 1.359375 -5.03125 1.828125 -5.03125 C 1.9375 -5.03125 2.140625 -5.03125 2.140625 -4.640625 C 2.140625 -4.328125 2.015625 -3.984375 1.828125 -3.53125 C 1.25 -1.953125 1.25 -1.5625 1.25 -1.28125 C 1.25 -0.140625 2.0625 0.125 2.65625 0.125 C 3 0.125 3.4375 0.015625 3.84375 -0.4375 L 3.859375 -0.421875 C 3.6875 0.28125 3.5625 0.75 3.140625 1.34375 Z M 3.140625 1.34375 "
           id="path1" />
      </g>
      <g
         id="glyph-0-1">
        <path
           d="M 5.328125 -4.8125 C 5.5625 -4.8125 5.671875 -4.8125 5.671875 -5.03125 C 5.671875 -5.15625 5.5625 -5.15625 5.359375 -5.15625 L 4.390625 -5.15625 C 4.609375 -6.390625 4.78125 -7.234375 4.875 -7.609375 C 4.953125 -7.90625 5.203125 -8.171875 5.515625 -8.171875 C 5.765625 -8.171875 6.015625 -8.0625 6.125 -7.953125 C 5.671875 -7.90625 5.515625 -7.5625 5.515625 -7.359375 C 5.515625 -7.125 5.703125 -6.984375 5.921875 -6.984375 C 6.171875 -6.984375 6.53125 -7.1875 6.53125 -7.640625 C 6.53125 -8.140625 6.03125 -8.421875 5.5 -8.421875 C 4.984375 -8.421875 4.484375 -8.03125 4.25 -7.5625 C 4.03125 -7.140625 3.90625 -6.71875 3.640625 -5.15625 L 2.828125 -5.15625 C 2.609375 -5.15625 2.484375 -5.15625 2.484375 -4.9375 C 2.484375 -4.8125 2.5625 -4.8125 2.796875 -4.8125 L 3.5625 -4.8125 C 3.34375 -3.6875 2.859375 -0.984375 2.578125 0.28125 C 2.375 1.328125 2.203125 2.203125 1.609375 2.203125 C 1.5625 2.203125 1.21875 2.203125 1 1.96875 C 1.609375 1.921875 1.609375 1.40625 1.609375 1.390625 C 1.609375 1.140625 1.4375 1 1.203125 1 C 0.96875 1 0.609375 1.203125 0.609375 1.65625 C 0.609375 2.171875 1.140625 2.4375 1.609375 2.4375 C 2.828125 2.4375 3.328125 0.25 3.453125 -0.34375 C 3.671875 -1.265625 4.25 -4.453125 4.3125 -4.8125 Z M 5.328125 -4.8125 "
           id="path2" />
      </g>
      <g
         id="glyph-0-2">
        <path
           d="M 5.671875 -4.875 C 5.28125 -4.8125 5.140625 -4.515625 5.140625 -4.296875 C 5.140625 -4 5.359375 -3.90625 5.53125 -3.90625 C 5.890625 -3.90625 6.140625 -4.21875 6.140625 -4.546875 C 6.140625 -5.046875 5.5625 -5.265625 5.0625 -5.265625 C 4.34375 -5.265625 3.9375 -4.546875 3.828125 -4.328125 C 3.546875 -5.21875 2.8125 -5.265625 2.59375 -5.265625 C 1.375 -5.265625 0.734375 -3.703125 0.734375 -3.4375 C 0.734375 -3.390625 0.78125 -3.328125 0.859375 -3.328125 C 0.953125 -3.328125 0.984375 -3.40625 1 -3.453125 C 1.40625 -4.78125 2.21875 -5.03125 2.5625 -5.03125 C 3.09375 -5.03125 3.203125 -4.53125 3.203125 -4.25 C 3.203125 -3.984375 3.125 -3.703125 2.984375 -3.125 L 2.578125 -1.5 C 2.40625 -0.78125 2.0625 -0.125 1.421875 -0.125 C 1.359375 -0.125 1.0625 -0.125 0.8125 -0.28125 C 1.25 -0.359375 1.34375 -0.71875 1.34375 -0.859375 C 1.34375 -1.09375 1.15625 -1.25 0.9375 -1.25 C 0.640625 -1.25 0.328125 -0.984375 0.328125 -0.609375 C 0.328125 -0.109375 0.890625 0.125 1.40625 0.125 C 1.984375 0.125 2.390625 -0.328125 2.640625 -0.828125 C 2.828125 -0.125 3.4375 0.125 3.875 0.125 C 5.09375 0.125 5.734375 -1.453125 5.734375 -1.703125 C 5.734375 -1.765625 5.6875 -1.8125 5.625 -1.8125 C 5.515625 -1.8125 5.5 -1.75 5.46875 -1.65625 C 5.140625 -0.609375 4.453125 -0.125 3.90625 -0.125 C 3.484375 -0.125 3.265625 -0.4375 3.265625 -0.921875 C 3.265625 -1.1875 3.3125 -1.375 3.5 -2.15625 L 3.921875 -3.796875 C 4.09375 -4.5 4.5 -5.03125 5.0625 -5.03125 C 5.078125 -5.03125 5.421875 -5.03125 5.671875 -4.875 Z M 5.671875 -4.875 "
           id="path3" />
      </g>
      <g
         id="glyph-1-0">
        <path
           d="M 8.0625 -3.875 C 8.234375 -3.875 8.453125 -3.875 8.453125 -4.09375 C 8.453125 -4.3125 8.25 -4.3125 8.0625 -4.3125 L 1.03125 -4.3125 C 0.859375 -4.3125 0.640625 -4.3125 0.640625 -4.09375 C 0.640625 -3.875 0.84375 -3.875 1.03125 -3.875 Z M 8.0625 -1.65625 C 8.234375 -1.65625 8.453125 -1.65625 8.453125 -1.859375 C 8.453125 -2.09375 8.25 -2.09375 8.0625 -2.09375 L 1.03125 -2.09375 C 0.859375 -2.09375 0.640625 -2.09375 0.640625 -1.875 C 0.640625 -1.65625 0.84375 -1.65625 1.03125 -1.65625 Z M 8.0625 -1.65625 "
           id="path4" />
      </g>
      <g
         id="glyph-1-1">
        <path
           d="M 3.890625 2.90625 C 3.890625 2.875 3.890625 2.84375 3.6875 2.640625 C 2.484375 1.4375 1.8125 -0.53125 1.8125 -2.96875 C 1.8125 -5.296875 2.375 -7.296875 3.765625 -8.703125 C 3.890625 -8.8125 3.890625 -8.828125 3.890625 -8.875 C 3.890625 -8.9375 3.828125 -8.96875 3.78125 -8.96875 C 3.625 -8.96875 2.640625 -8.109375 2.0625 -6.9375 C 1.453125 -5.71875 1.171875 -4.453125 1.171875 -2.96875 C 1.171875 -1.90625 1.34375 -0.484375 1.953125 0.78125 C 2.671875 2.21875 3.640625 3 3.78125 3 C 3.828125 3 3.890625 2.96875 3.890625 2.90625 Z M 3.890625 2.90625 "
           id="path5" />
      </g>
      <g
         id="glyph-1-2">
        <path
           d="M 3.375 -2.96875 C 3.375 -3.890625 3.25 -5.359375 2.578125 -6.75 C 1.875 -8.1875 0.890625 -8.96875 0.765625 -8.96875 C 0.71875 -8.96875 0.65625 -8.9375 0.65625 -8.875 C 0.65625 -8.828125 0.65625 -8.8125 0.859375 -8.609375 C 2.0625 -7.40625 2.71875 -5.421875 2.71875 -2.984375 C 2.71875 -0.671875 2.15625 1.328125 0.78125 2.734375 C 0.65625 2.84375 0.65625 2.875 0.65625 2.90625 C 0.65625 2.96875 0.71875 3 0.765625 3 C 0.921875 3 1.90625 2.140625 2.484375 0.96875 C 3.09375 -0.25 3.375 -1.546875 3.375 -2.96875 Z M 3.375 -2.96875 "
           id="path6" />
      </g>
      <g
         id="glyph-1-3">
        <path
           d="M 5.359375 -3.828125 C 5.359375 -4.8125 5.296875 -5.78125 4.859375 -6.6875 C 4.375 -7.6875 3.515625 -7.953125 2.921875 -7.953125 C 2.234375 -7.953125 1.390625 -7.609375 0.9375 -6.609375 C 0.609375 -5.859375 0.484375 -5.109375 0.484375 -3.828125 C 0.484375 -2.671875 0.578125 -1.796875 1 -0.9375 C 1.46875 -0.03125 2.296875 0.25 2.921875 0.25 C 3.953125 0.25 4.546875 -0.375 4.90625 -1.0625 C 5.328125 -1.953125 5.359375 -3.125 5.359375 -3.828125 Z M 2.921875 0.015625 C 2.53125 0.015625 1.75 -0.203125 1.53125 -1.5 C 1.40625 -2.21875 1.40625 -3.125 1.40625 -3.96875 C 1.40625 -4.953125 1.40625 -5.828125 1.59375 -6.53125 C 1.796875 -7.34375 2.40625 -7.703125 2.921875 -7.703125 C 3.375 -7.703125 4.0625 -7.4375 4.296875 -6.40625 C 4.453125 -5.71875 4.453125 -4.78125 4.453125 -3.96875 C 4.453125 -3.171875 4.453125 -2.265625 4.3125 -1.53125 C 4.09375 -0.21875 3.328125 0.015625 2.921875 0.015625 Z M 2.921875 0.015625 "
           id="path7" />
      </g>
      <g
         id="glyph-1-4">
        <path
           d="M 3.4375 -7.65625 C 3.4375 -7.9375 3.4375 -7.953125 3.203125 -7.953125 C 2.921875 -7.625 2.3125 -7.1875 1.09375 -7.1875 L 1.09375 -6.84375 C 1.359375 -6.84375 1.953125 -6.84375 2.625 -7.140625 L 2.625 -0.921875 C 2.625 -0.484375 2.578125 -0.34375 1.53125 -0.34375 L 1.15625 -0.34375 L 1.15625 0 C 1.484375 -0.03125 2.640625 -0.03125 3.03125 -0.03125 C 3.4375 -0.03125 4.578125 -0.03125 4.90625 0 L 4.90625 -0.34375 L 4.53125 -0.34375 C 3.484375 -0.34375 3.4375 -0.484375 3.4375 -0.921875 Z M 3.4375 -7.65625 "
           id="path8" />
      </g>
      <g
         id="glyph-2-0">
        <path
           d="M 2.109375 -3.78125 C 2.15625 -3.875 2.1875 -3.9375 2.1875 -4.015625 C 2.1875 -4.28125 1.9375 -4.453125 1.71875 -4.453125 C 1.40625 -4.453125 1.3125 -4.171875 1.28125 -4.0625 L 0.265625 -0.625 C 0.234375 -0.53125 0.234375 -0.515625 0.234375 -0.5 C 0.234375 -0.4375 0.28125 -0.421875 0.359375 -0.390625 C 0.515625 -0.328125 0.53125 -0.328125 0.546875 -0.328125 C 0.5625 -0.328125 0.609375 -0.328125 0.671875 -0.46875 Z M 2.109375 -3.78125 "
           id="path9" />
      </g>
    </g>
    <clipPath
       id="clip-0">
      <path
         clip-rule="nonzero"
         d="M 0 0 L 1 0 L 1 119.453125 L 0 119.453125 Z M 0 0 "
         id="path10" />
    </clipPath>
    <clipPath
       id="clip-1">
      <path
         clip-rule="evenodd"
         d="M -0.5 119.960938 L 198.925781 119.960938 L 198.925781 -0.496094 L -0.5 -0.496094 Z M 14.910156 32.09375 C 14.910156 31.402344 14.351562 30.84375 13.660156 30.84375 C 12.972656 30.84375 12.410156 31.402344 12.410156 32.09375 C 12.410156 32.785156 12.972656 33.34375 13.660156 33.34375 C 14.351562 33.34375 14.910156 32.785156 14.910156 32.09375 Z M 14.910156 32.09375 "
         id="path11" />
    </clipPath>
    <clipPath
       id="clip-2">
      <path
         clip-rule="evenodd"
         d="M -0.5 119.960938 L 198.925781 119.960938 L 198.925781 -0.496094 L -0.5 -0.496094 Z M 186.015625 80.792969 C 186.015625 80.101562 185.453125 79.542969 184.765625 79.542969 C 184.074219 79.542969 183.515625 80.101562 183.515625 80.792969 C 183.515625 81.480469 184.074219 82.042969 184.765625 82.042969 C 185.453125 82.042969 186.015625 81.480469 186.015625 80.792969 Z M 186.015625 80.792969 "
         id="path12" />
    </clipPath>
    <clipPath
       id="clip-3">
      <path
         clip-rule="nonzero"
         d="M 13 0 L 14 0 L 14 119.453125 L 13 119.453125 Z M 13 0 "
         id="path13" />
    </clipPath>
    <clipPath
       id="clip-4">
      <path
         clip-rule="evenodd"
         d="M -0.5 119.960938 L 198.925781 119.960938 L 198.925781 -0.496094 L -0.5 -0.496094 Z M 14.910156 32.09375 C 14.910156 31.402344 14.351562 30.84375 13.660156 30.84375 C 12.972656 30.84375 12.410156 31.402344 12.410156 32.09375 C 12.410156 32.785156 12.972656 33.34375 13.660156 33.34375 C 14.351562 33.34375 14.910156 32.785156 14.910156 32.09375 Z M 14.910156 32.09375 "
         id="path14" />
    </clipPath>
    <clipPath
       id="clip-5">
      <path
         clip-rule="evenodd"
         d="M -0.5 119.960938 L 198.925781 119.960938 L 198.925781 -0.496094 L -0.5 -0.496094 Z M 186.015625 80.792969 C 186.015625 80.101562 185.453125 79.542969 184.765625 79.542969 C 184.074219 79.542969 183.515625 80.101562 183.515625 80.792969 C 183.515625 81.480469 184.074219 82.042969 184.765625 82.042969 C 185.453125 82.042969 186.015625 81.480469 186.015625 80.792969 Z M 186.015625 80.792969 "
         id="path15" />
    </clipPath>
    <clipPath
       id="clip-6">
      <path
         clip-rule="nonzero"
         d="M 26 0 L 28 0 L 28 119.453125 L 26 119.453125 Z M 26 0 "
         id="path16" />
    </clipPath>
    <clipPath
       id="clip-7">
      <path
         clip-rule="evenodd"
         d="M -0.5 119.960938 L 198.925781 119.960938 L 198.925781 -0.496094 L -0.5 -0.496094 Z M 14.910156 32.09375 C 14.910156 31.402344 14.351562 30.84375 13.660156 30.84375 C 12.972656 30.84375 12.410156 31.402344 12.410156 32.09375 C 12.410156 32.785156 12.972656 33.34375 13.660156 33.34375 C 14.351562 33.34375 14.910156 32.785156 14.910156 32.09375 Z M 14.910156 32.09375 "
         id="path17" />
    </clipPath>
    <clipPath
       id="clip-8">
      <path
         clip-rule="evenodd"
         d="M -0.5 119.960938 L 198.925781 119.960938 L 198.925781 -0.496094 L -0.5 -0.496094 Z M 186.015625 80.792969 C 186.015625 80.101562 185.453125 79.542969 184.765625 79.542969 C 184.074219 79.542969 183.515625 80.101562 183.515625 80.792969 C 183.515625 81.480469 184.074219 82.042969 184.765625 82.042969 C 185.453125 82.042969 186.015625 81.480469 186.015625 80.792969 Z M 186.015625 80.792969 "
         id="path18" />
    </clipPath>
    <clipPath
       id="clip-9">
      <path
         clip-rule="nonzero"
         d="M 39 0 L 41 0 L 41 119.453125 L 39 119.453125 Z M 39 0 "
         id="path19" />
    </clipPath>
    <clipPath
       id="clip-10">
      <path
         clip-rule="evenodd"
         d="M -0.5 119.960938 L 198.925781 119.960938 L 198.925781 -0.496094 L -0.5 -0.496094 Z M 14.910156 32.09375 C 14.910156 31.402344 14.351562 30.84375 13.660156 30.84375 C 12.972656 30.84375 12.410156 31.402344 12.410156 32.09375 C 12.410156 32.785156 12.972656 33.34375 13.660156 33.34375 C 14.351562 33.34375 14.910156 32.785156 14.910156 32.09375 Z M 14.910156 32.09375 "
         id="path20" />
    </clipPath>
    <clipPath
       id="clip-11">
      <path
         clip-rule="evenodd"
         d="M -0.5 119.960938 L 198.925781 119.960938 L 198.925781 -0.496094 L -0.5 -0.496094 Z M 186.015625 80.792969 C 186.015625 80.101562 185.453125 79.542969 184.765625 79.542969 C 184.074219 79.542969 183.515625 80.101562 183.515625 80.792969 C 183.515625 81.480469 184.074219 82.042969 184.765625 82.042969 C 185.453125 82.042969 186.015625 81.480469 186.015625 80.792969 Z M 186.015625 80.792969 "
         id="path21" />
    </clipPath>
    <clipPath
       id="clip-12">
      <path
         clip-rule="nonzero"
         d="M 52 0 L 54 0 L 54 119.453125 L 52 119.453125 Z M 52 0 "
         id="path22" />
    </clipPath>
    <clipPath
       id="clip-13">
      <path
         clip-rule="evenodd"
         d="M -0.5 119.960938 L 198.925781 119.960938 L 198.925781 -0.496094 L -0.5 -0.496094 Z M 14.910156 32.09375 C 14.910156 31.402344 14.351562 30.84375 13.660156 30.84375 C 12.972656 30.84375 12.410156 31.402344 12.410156 32.09375 C 12.410156 32.785156 12.972656 33.34375 13.660156 33.34375 C 14.351562 33.34375 14.910156 32.785156 14.910156 32.09375 Z M 14.910156 32.09375 "
         id="path23" />
    </clipPath>
    <clipPath
       id="clip-14">
      <path
         clip-rule="evenodd"
         d="M -0.5 119.960938 L 198.925781 119.960938 L 198.925781 -0.496094 L -0.5 -0.496094 Z M 186.015625 80.792969 C 186.015625 80.101562 185.453125 79.542969 184.765625 79.542969 C 184.074219 79.542969 183.515625 80.101562 183.515625 80.792969 C 183.515625 81.480469 184.074219 82.042969 184.765625 82.042969 C 185.453125 82.042969 186.015625 81.480469 186.015625 80.792969 Z M 186.015625 80.792969 "
         id="path24" />
    </clipPath>
    <clipPath
       id="clip-15">
      <path
         clip-rule="nonzero"
         d="M 66 0 L 67 0 L 67 119.453125 L 66 119.453125 Z M 66 0 "
         id="path25" />
    </clipPath>
    <clipPath
       id="clip-16">
      <path
         clip-rule="evenodd"
         d="M -0.5 119.960938 L 198.925781 119.960938 L 198.925781 -0.496094 L -0.5 -0.496094 Z M 14.910156 32.09375 C 14.910156 31.402344 14.351562 30.84375 13.660156 30.84375 C 12.972656 30.84375 12.410156 31.402344 12.410156 32.09375 C 12.410156 32.785156 12.972656 33.34375 13.660156 33.34375 C 14.351562 33.34375 14.910156 32.785156 14.910156 32.09375 Z M 14.910156 32.09375 "
         id="path26" />
    </clipPath>
    <clipPath
       id="clip-17">
      <path
         clip-rule="evenodd"
         d="M -0.5 119.960938 L 198.925781 119.960938 L 198.925781 -0.496094 L -0.5 -0.496094 Z M 186.015625 80.792969 C 186.015625 80.101562 185.453125 79.542969 184.765625 79.542969 C 184.074219 79.542969 183.515625 80.101562 183.515625 80.792969 C 183.515625 81.480469 184.074219 82.042969 184.765625 82.042969 C 185.453125 82.042969 186.015625 81.480469 186.015625 80.792969 Z M 186.015625 80.792969 "
         id="path27" />
    </clipPath>
    <clipPath
       id="clip-18">
      <path
         clip-rule="nonzero"
         d="M 79 0 L 80 0 L 80 119.453125 L 79 119.453125 Z M 79 0 "
         id="path28" />
    </clipPath>
    <clipPath
       id="clip-19">
      <path
         clip-rule="evenodd"
         d="M -0.5 119.960938 L 198.925781 119.960938 L 198.925781 -0.496094 L -0.5 -0.496094 Z M 14.910156 32.09375 C 14.910156 31.402344 14.351562 30.84375 13.660156 30.84375 C 12.972656 30.84375 12.410156 31.402344 12.410156 32.09375 C 12.410156 32.785156 12.972656 33.34375 13.660156 33.34375 C 14.351562 33.34375 14.910156 32.785156 14.910156 32.09375 Z M 14.910156 32.09375 "
         id="path29" />
    </clipPath>
    <clipPath
       id="clip-20">
      <path
         clip-rule="evenodd"
         d="M -0.5 119.960938 L 198.925781 119.960938 L 198.925781 -0.496094 L -0.5 -0.496094 Z M 186.015625 80.792969 C 186.015625 80.101562 185.453125 79.542969 184.765625 79.542969 C 184.074219 79.542969 183.515625 80.101562 183.515625 80.792969 C 183.515625 81.480469 184.074219 82.042969 184.765625 82.042969 C 185.453125 82.042969 186.015625 81.480469 186.015625 80.792969 Z M 186.015625 80.792969 "
         id="path30" />
    </clipPath>
    <clipPath
       id="clip-21">
      <path
         clip-rule="nonzero"
         d="M 92 0 L 93 0 L 93 119.453125 L 92 119.453125 Z M 92 0 "
         id="path31" />
    </clipPath>
    <clipPath
       id="clip-22">
      <path
         clip-rule="evenodd"
         d="M -0.5 119.960938 L 198.925781 119.960938 L 198.925781 -0.496094 L -0.5 -0.496094 Z M 14.910156 32.09375 C 14.910156 31.402344 14.351562 30.84375 13.660156 30.84375 C 12.972656 30.84375 12.410156 31.402344 12.410156 32.09375 C 12.410156 32.785156 12.972656 33.34375 13.660156 33.34375 C 14.351562 33.34375 14.910156 32.785156 14.910156 32.09375 Z M 14.910156 32.09375 "
         id="path32" />
    </clipPath>
    <clipPath
       id="clip-23">
      <path
         clip-rule="evenodd"
         d="M -0.5 119.960938 L 198.925781 119.960938 L 198.925781 -0.496094 L -0.5 -0.496094 Z M 186.015625 80.792969 C 186.015625 80.101562 185.453125 79.542969 184.765625 79.542969 C 184.074219 79.542969 183.515625 80.101562 183.515625 80.792969 C 183.515625 81.480469 184.074219 82.042969 184.765625 82.042969 C 185.453125 82.042969 186.015625 81.480469 186.015625 80.792969 Z M 186.015625 80.792969 "
         id="path33" />
    </clipPath>
    <clipPath
       id="clip-24">
      <path
         clip-rule="nonzero"
         d="M 105 0 L 107 0 L 107 119.453125 L 105 119.453125 Z M 105 0 "
         id="path34" />
    </clipPath>
    <clipPath
       id="clip-25">
      <path
         clip-rule="evenodd"
         d="M -0.5 119.960938 L 198.925781 119.960938 L 198.925781 -0.496094 L -0.5 -0.496094 Z M 14.910156 32.09375 C 14.910156 31.402344 14.351562 30.84375 13.660156 30.84375 C 12.972656 30.84375 12.410156 31.402344 12.410156 32.09375 C 12.410156 32.785156 12.972656 33.34375 13.660156 33.34375 C 14.351562 33.34375 14.910156 32.785156 14.910156 32.09375 Z M 14.910156 32.09375 "
         id="path35" />
    </clipPath>
    <clipPath
       id="clip-26">
      <path
         clip-rule="evenodd"
         d="M -0.5 119.960938 L 198.925781 119.960938 L 198.925781 -0.496094 L -0.5 -0.496094 Z M 186.015625 80.792969 C 186.015625 80.101562 185.453125 79.542969 184.765625 79.542969 C 184.074219 79.542969 183.515625 80.101562 183.515625 80.792969 C 183.515625 81.480469 184.074219 82.042969 184.765625 82.042969 C 185.453125 82.042969 186.015625 81.480469 186.015625 80.792969 Z M 186.015625 80.792969 "
         id="path36" />
    </clipPath>
    <clipPath
       id="clip-27">
      <path
         clip-rule="nonzero"
         d="M 118 0 L 120 0 L 120 119.453125 L 118 119.453125 Z M 118 0 "
         id="path37" />
    </clipPath>
    <clipPath
       id="clip-28">
      <path
         clip-rule="evenodd"
         d="M -0.5 119.960938 L 198.925781 119.960938 L 198.925781 -0.496094 L -0.5 -0.496094 Z M 14.910156 32.09375 C 14.910156 31.402344 14.351562 30.84375 13.660156 30.84375 C 12.972656 30.84375 12.410156 31.402344 12.410156 32.09375 C 12.410156 32.785156 12.972656 33.34375 13.660156 33.34375 C 14.351562 33.34375 14.910156 32.785156 14.910156 32.09375 Z M 14.910156 32.09375 "
         id="path38" />
    </clipPath>
    <clipPath
       id="clip-29">
      <path
         clip-rule="evenodd"
         d="M -0.5 119.960938 L 198.925781 119.960938 L 198.925781 -0.496094 L -0.5 -0.496094 Z M 186.015625 80.792969 C 186.015625 80.101562 185.453125 79.542969 184.765625 79.542969 C 184.074219 79.542969 183.515625 80.101562 183.515625 80.792969 C 183.515625 81.480469 184.074219 82.042969 184.765625 82.042969 C 185.453125 82.042969 186.015625 81.480469 186.015625 80.792969 Z M 186.015625 80.792969 "
         id="path39" />
    </clipPath>
    <clipPath
       id="clip-30">
      <path
         clip-rule="nonzero"
         d="M 131 0 L 133 0 L 133 119.453125 L 131 119.453125 Z M 131 0 "
         id="path40" />
    </clipPath>
    <clipPath
       id="clip-31">
      <path
         clip-rule="evenodd"
         d="M -0.5 119.960938 L 198.925781 119.960938 L 198.925781 -0.496094 L -0.5 -0.496094 Z M 14.910156 32.09375 C 14.910156 31.402344 14.351562 30.84375 13.660156 30.84375 C 12.972656 30.84375 12.410156 31.402344 12.410156 32.09375 C 12.410156 32.785156 12.972656 33.34375 13.660156 33.34375 C 14.351562 33.34375 14.910156 32.785156 14.910156 32.09375 Z M 14.910156 32.09375 "
         id="path41" />
    </clipPath>
    <clipPath
       id="clip-32">
      <path
         clip-rule="evenodd"
         d="M -0.5 119.960938 L 198.925781 119.960938 L 198.925781 -0.496094 L -0.5 -0.496094 Z M 186.015625 80.792969 C 186.015625 80.101562 185.453125 79.542969 184.765625 79.542969 C 184.074219 79.542969 183.515625 80.101562 183.515625 80.792969 C 183.515625 81.480469 184.074219 82.042969 184.765625 82.042969 C 185.453125 82.042969 186.015625 81.480469 186.015625 80.792969 Z M 186.015625 80.792969 "
         id="path42" />
    </clipPath>
    <clipPath
       id="clip-33">
      <path
         clip-rule="nonzero"
         d="M 145 0 L 146 0 L 146 119.453125 L 145 119.453125 Z M 145 0 "
         id="path43" />
    </clipPath>
    <clipPath
       id="clip-34">
      <path
         clip-rule="evenodd"
         d="M -0.5 119.960938 L 198.925781 119.960938 L 198.925781 -0.496094 L -0.5 -0.496094 Z M 14.910156 32.09375 C 14.910156 31.402344 14.351562 30.84375 13.660156 30.84375 C 12.972656 30.84375 12.410156 31.402344 12.410156 32.09375 C 12.410156 32.785156 12.972656 33.34375 13.660156 33.34375 C 14.351562 33.34375 14.910156 32.785156 14.910156 32.09375 Z M 14.910156 32.09375 "
         id="path44" />
    </clipPath>
    <clipPath
       id="clip-35">
      <path
         clip-rule="evenodd"
         d="M -0.5 119.960938 L 198.925781 119.960938 L 198.925781 -0.496094 L -0.5 -0.496094 Z M 186.015625 80.792969 C 186.015625 80.101562 185.453125 79.542969 184.765625 79.542969 C 184.074219 79.542969 183.515625 80.101562 183.515625 80.792969 C 183.515625 81.480469 184.074219 82.042969 184.765625 82.042969 C 185.453125 82.042969 186.015625 81.480469 186.015625 80.792969 Z M 186.015625 80.792969 "
         id="path45" />
    </clipPath>
    <clipPath
       id="clip-36">
      <path
         clip-rule="nonzero"
         d="M 158 0 L 159 0 L 159 119.453125 L 158 119.453125 Z M 158 0 "
         id="path46" />
    </clipPath>
    <clipPath
       id="clip-37">
      <path
         clip-rule="evenodd"
         d="M -0.5 119.960938 L 198.925781 119.960938 L 198.925781 -0.496094 L -0.5 -0.496094 Z M 14.910156 32.09375 C 14.910156 31.402344 14.351562 30.84375 13.660156 30.84375 C 12.972656 30.84375 12.410156 31.402344 12.410156 32.09375 C 12.410156 32.785156 12.972656 33.34375 13.660156 33.34375 C 14.351562 33.34375 14.910156 32.785156 14.910156 32.09375 Z M 14.910156 32.09375 "
         id="path47" />
    </clipPath>
    <clipPath
       id="clip-38">
      <path
         clip-rule="evenodd"
         d="M -0.5 119.960938 L 198.925781 119.960938 L 198.925781 -0.496094 L -0.5 -0.496094 Z M 186.015625 80.792969 C 186.015625 80.101562 185.453125 79.542969 184.765625 79.542969 C 184.074219 79.542969 183.515625 80.101562 183.515625 80.792969 C 183.515625 81.480469 184.074219 82.042969 184.765625 82.042969 C 185.453125 82.042969 186.015625 81.480469 186.015625 80.792969 Z M 186.015625 80.792969 "
         id="path48" />
    </clipPath>
    <clipPath
       id="clip-39">
      <path
         clip-rule="nonzero"
         d="M 171 0 L 172 0 L 172 119.453125 L 171 119.453125 Z M 171 0 "
         id="path49" />
    </clipPath>
    <clipPath
       id="clip-40">
      <path
         clip-rule="evenodd"
         d="M -0.5 119.960938 L 198.925781 119.960938 L 198.925781 -0.496094 L -0.5 -0.496094 Z M 14.910156 32.09375 C 14.910156 31.402344 14.351562 30.84375 13.660156 30.84375 C 12.972656 30.84375 12.410156 31.402344 12.410156 32.09375 C 12.410156 32.785156 12.972656 33.34375 13.660156 33.34375 C 14.351562 33.34375 14.910156 32.785156 14.910156 32.09375 Z M 14.910156 32.09375 "
         id="path50" />
    </clipPath>
    <clipPath
       id="clip-41">
      <path
         clip-rule="evenodd"
         d="M -0.5 119.960938 L 198.925781 119.960938 L 198.925781 -0.496094 L -0.5 -0.496094 Z M 186.015625 80.792969 C 186.015625 80.101562 185.453125 79.542969 184.765625 79.542969 C 184.074219 79.542969 183.515625 80.101562 183.515625 80.792969 C 183.515625 81.480469 184.074219 82.042969 184.765625 82.042969 C 185.453125 82.042969 186.015625 81.480469 186.015625 80.792969 Z M 186.015625 80.792969 "
         id="path51" />
    </clipPath>
    <clipPath
       id="clip-42">
      <path
         clip-rule="nonzero"
         d="M 184 0 L 186 0 L 186 119.453125 L 184 119.453125 Z M 184 0 "
         id="path52" />
    </clipPath>
    <clipPath
       id="clip-43">
      <path
         clip-rule="evenodd"
         d="M -0.5 119.960938 L 198.925781 119.960938 L 198.925781 -0.496094 L -0.5 -0.496094 Z M 14.910156 32.09375 C 14.910156 31.402344 14.351562 30.84375 13.660156 30.84375 C 12.972656 30.84375 12.410156 31.402344 12.410156 32.09375 C 12.410156 32.785156 12.972656 33.34375 13.660156 33.34375 C 14.351562 33.34375 14.910156 32.785156 14.910156 32.09375 Z M 14.910156 32.09375 "
         id="path53" />
    </clipPath>
    <clipPath
       id="clip-44">
      <path
         clip-rule="evenodd"
         d="M -0.5 119.960938 L 198.925781 119.960938 L 198.925781 -0.496094 L -0.5 -0.496094 Z M 186.015625 80.792969 C 186.015625 80.101562 185.453125 79.542969 184.765625 79.542969 C 184.074219 79.542969 183.515625 80.101562 183.515625 80.792969 C 183.515625 81.480469 184.074219 82.042969 184.765625 82.042969 C 185.453125 82.042969 186.015625 81.480469 186.015625 80.792969 Z M 186.015625 80.792969 "
         id="path54" />
    </clipPath>
    <clipPath
       id="clip-45">
      <path
         clip-rule="nonzero"
         d="M 197 0 L 198.398438 0 L 198.398438 119.453125 L 197 119.453125 Z M 197 0 "
         id="path55" />
    </clipPath>
    <clipPath
       id="clip-46">
      <path
         clip-rule="evenodd"
         d="M -0.5 119.960938 L 198.925781 119.960938 L 198.925781 -0.496094 L -0.5 -0.496094 Z M 14.910156 32.09375 C 14.910156 31.402344 14.351562 30.84375 13.660156 30.84375 C 12.972656 30.84375 12.410156 31.402344 12.410156 32.09375 C 12.410156 32.785156 12.972656 33.34375 13.660156 33.34375 C 14.351562 33.34375 14.910156 32.785156 14.910156 32.09375 Z M 14.910156 32.09375 "
         id="path56" />
    </clipPath>
    <clipPath
       id="clip-47">
      <path
         clip-rule="evenodd"
         d="M -0.5 119.960938 L 198.925781 119.960938 L 198.925781 -0.496094 L -0.5 -0.496094 Z M 186.015625 80.792969 C 186.015625 80.101562 185.453125 79.542969 184.765625 79.542969 C 184.074219 79.542969 183.515625 80.101562 183.515625 80.792969 C 183.515625 81.480469 184.074219 82.042969 184.765625 82.042969 C 185.453125 82.042969 186.015625 81.480469 186.015625 80.792969 Z M 186.015625 80.792969 "
         id="path57" />
    </clipPath>
    <clipPath
       id="clip-48">
      <path
         clip-rule="nonzero"
         d="M 0 118 L 198.398438 118 L 198.398438 119.453125 L 0 119.453125 Z M 0 118 "
         id="path58" />
    </clipPath>
    <clipPath
       id="clip-49">
      <path
         clip-rule="evenodd"
         d="M -0.5 119.960938 L 198.925781 119.960938 L 198.925781 -0.496094 L -0.5 -0.496094 Z M 14.910156 32.09375 C 14.910156 31.402344 14.351562 30.84375 13.660156 30.84375 C 12.972656 30.84375 12.410156 31.402344 12.410156 32.09375 C 12.410156 32.785156 12.972656 33.34375 13.660156 33.34375 C 14.351562 33.34375 14.910156 32.785156 14.910156 32.09375 Z M 14.910156 32.09375 "
         id="path59" />
    </clipPath>
    <clipPath
       id="clip-50">
      <path
         clip-rule="evenodd"
         d="M -0.5 119.960938 L 198.925781 119.960938 L 198.925781 -0.496094 L -0.5 -0.496094 Z M 186.015625 80.792969 C 186.015625 80.101562 185.453125 79.542969 184.765625 79.542969 C 184.074219 79.542969 183.515625 80.101562 183.515625 80.792969 C 183.515625 81.480469 184.074219 82.042969 184.765625 82.042969 C 185.453125 82.042969 186.015625 81.480469 186.015625 80.792969 Z M 186.015625 80.792969 "
         id="path60" />
    </clipPath>
    <clipPath
       id="clip-51">
      <path
         clip-rule="nonzero"
         d="M 0 105 L 198.398438 105 L 198.398438 107 L 0 107 Z M 0 105 "
         id="path61" />
    </clipPath>
    <clipPath
       id="clip-52">
      <path
         clip-rule="evenodd"
         d="M -0.5 119.960938 L 198.925781 119.960938 L 198.925781 -0.496094 L -0.5 -0.496094 Z M 14.910156 32.09375 C 14.910156 31.402344 14.351562 30.84375 13.660156 30.84375 C 12.972656 30.84375 12.410156 31.402344 12.410156 32.09375 C 12.410156 32.785156 12.972656 33.34375 13.660156 33.34375 C 14.351562 33.34375 14.910156 32.785156 14.910156 32.09375 Z M 14.910156 32.09375 "
         id="path62" />
    </clipPath>
    <clipPath
       id="clip-53">
      <path
         clip-rule="evenodd"
         d="M -0.5 119.960938 L 198.925781 119.960938 L 198.925781 -0.496094 L -0.5 -0.496094 Z M 186.015625 80.792969 C 186.015625 80.101562 185.453125 79.542969 184.765625 79.542969 C 184.074219 79.542969 183.515625 80.101562 183.515625 80.792969 C 183.515625 81.480469 184.074219 82.042969 184.765625 82.042969 C 185.453125 82.042969 186.015625 81.480469 186.015625 80.792969 Z M 186.015625 80.792969 "
         id="path63" />
    </clipPath>
    <clipPath
       id="clip-54">
      <path
         clip-rule="nonzero"
         d="M 0 92 L 198.398438 92 L 198.398438 93 L 0 93 Z M 0 92 "
         id="path64" />
    </clipPath>
    <clipPath
       id="clip-55">
      <path
         clip-rule="evenodd"
         d="M -0.5 119.960938 L 198.925781 119.960938 L 198.925781 -0.496094 L -0.5 -0.496094 Z M 14.910156 32.09375 C 14.910156 31.402344 14.351562 30.84375 13.660156 30.84375 C 12.972656 30.84375 12.410156 31.402344 12.410156 32.09375 C 12.410156 32.785156 12.972656 33.34375 13.660156 33.34375 C 14.351562 33.34375 14.910156 32.785156 14.910156 32.09375 Z M 14.910156 32.09375 "
         id="path65" />
    </clipPath>
    <clipPath
       id="clip-56">
      <path
         clip-rule="evenodd"
         d="M -0.5 119.960938 L 198.925781 119.960938 L 198.925781 -0.496094 L -0.5 -0.496094 Z M 186.015625 80.792969 C 186.015625 80.101562 185.453125 79.542969 184.765625 79.542969 C 184.074219 79.542969 183.515625 80.101562 183.515625 80.792969 C 183.515625 81.480469 184.074219 82.042969 184.765625 82.042969 C 185.453125 82.042969 186.015625 81.480469 186.015625 80.792969 Z M 186.015625 80.792969 "
         id="path66" />
    </clipPath>
    <clipPath
       id="clip-57">
      <path
         clip-rule="nonzero"
         d="M 0 79 L 198.398438 79 L 198.398438 80 L 0 80 Z M 0 79 "
         id="path67" />
    </clipPath>
    <clipPath
       id="clip-58">
      <path
         clip-rule="evenodd"
         d="M -0.5 119.960938 L 198.925781 119.960938 L 198.925781 -0.496094 L -0.5 -0.496094 Z M 14.910156 32.09375 C 14.910156 31.402344 14.351562 30.84375 13.660156 30.84375 C 12.972656 30.84375 12.410156 31.402344 12.410156 32.09375 C 12.410156 32.785156 12.972656 33.34375 13.660156 33.34375 C 14.351562 33.34375 14.910156 32.785156 14.910156 32.09375 Z M 14.910156 32.09375 "
         id="path68" />
    </clipPath>
    <clipPath
       id="clip-59">
      <path
         clip-rule="evenodd"
         d="M -0.5 119.960938 L 198.925781 119.960938 L 198.925781 -0.496094 L -0.5 -0.496094 Z M 186.015625 80.792969 C 186.015625 80.101562 185.453125 79.542969 184.765625 79.542969 C 184.074219 79.542969 183.515625 80.101562 183.515625 80.792969 C 183.515625 81.480469 184.074219 82.042969 184.765625 82.042969 C 185.453125 82.042969 186.015625 81.480469 186.015625 80.792969 Z M 186.015625 80.792969 "
         id="path69" />
    </clipPath>
    <clipPath
       id="clip-60">
      <path
         clip-rule="nonzero"
         d="M 0 66 L 198.398438 66 L 198.398438 67 L 0 67 Z M 0 66 "
         id="path70" />
    </clipPath>
    <clipPath
       id="clip-61">
      <path
         clip-rule="evenodd"
         d="M -0.5 119.960938 L 198.925781 119.960938 L 198.925781 -0.496094 L -0.5 -0.496094 Z M 14.910156 32.09375 C 14.910156 31.402344 14.351562 30.84375 13.660156 30.84375 C 12.972656 30.84375 12.410156 31.402344 12.410156 32.09375 C 12.410156 32.785156 12.972656 33.34375 13.660156 33.34375 C 14.351562 33.34375 14.910156 32.785156 14.910156 32.09375 Z M 14.910156 32.09375 "
         id="path71" />
    </clipPath>
    <clipPath
       id="clip-62">
      <path
         clip-rule="evenodd"
         d="M -0.5 119.960938 L 198.925781 119.960938 L 198.925781 -0.496094 L -0.5 -0.496094 Z M 186.015625 80.792969 C 186.015625 80.101562 185.453125 79.542969 184.765625 79.542969 C 184.074219 79.542969 183.515625 80.101562 183.515625 80.792969 C 183.515625 81.480469 184.074219 82.042969 184.765625 82.042969 C 185.453125 82.042969 186.015625 81.480469 186.015625 80.792969 Z M 186.015625 80.792969 "
         id="path72" />
    </clipPath>
    <clipPath
       id="clip-63">
      <path
         clip-rule="nonzero"
         d="M 0 52 L 198.398438 52 L 198.398438 54 L 0 54 Z M 0 52 "
         id="path73" />
    </clipPath>
    <clipPath
       id="clip-64">
      <path
         clip-rule="evenodd"
         d="M -0.5 119.960938 L 198.925781 119.960938 L 198.925781 -0.496094 L -0.5 -0.496094 Z M 14.910156 32.09375 C 14.910156 31.402344 14.351562 30.84375 13.660156 30.84375 C 12.972656 30.84375 12.410156 31.402344 12.410156 32.09375 C 12.410156 32.785156 12.972656 33.34375 13.660156 33.34375 C 14.351562 33.34375 14.910156 32.785156 14.910156 32.09375 Z M 14.910156 32.09375 "
         id="path74" />
    </clipPath>
    <clipPath
       id="clip-65">
      <path
         clip-rule="evenodd"
         d="M -0.5 119.960938 L 198.925781 119.960938 L 198.925781 -0.496094 L -0.5 -0.496094 Z M 186.015625 80.792969 C 186.015625 80.101562 185.453125 79.542969 184.765625 79.542969 C 184.074219 79.542969 183.515625 80.101562 183.515625 80.792969 C 183.515625 81.480469 184.074219 82.042969 184.765625 82.042969 C 185.453125 82.042969 186.015625 81.480469 186.015625 80.792969 Z M 186.015625 80.792969 "
         id="path75" />
    </clipPath>
    <clipPath
       id="clip-66">
      <path
         clip-rule="nonzero"
         d="M 0 39 L 198.398438 39 L 198.398438 41 L 0 41 Z M 0 39 "
         id="path76" />
    </clipPath>
    <clipPath
       id="clip-67">
      <path
         clip-rule="evenodd"
         d="M -0.5 119.960938 L 198.925781 119.960938 L 198.925781 -0.496094 L -0.5 -0.496094 Z M 14.910156 32.09375 C 14.910156 31.402344 14.351562 30.84375 13.660156 30.84375 C 12.972656 30.84375 12.410156 31.402344 12.410156 32.09375 C 12.410156 32.785156 12.972656 33.34375 13.660156 33.34375 C 14.351562 33.34375 14.910156 32.785156 14.910156 32.09375 Z M 14.910156 32.09375 "
         id="path77" />
    </clipPath>
    <clipPath
       id="clip-68">
      <path
         clip-rule="evenodd"
         d="M -0.5 119.960938 L 198.925781 119.960938 L 198.925781 -0.496094 L -0.5 -0.496094 Z M 186.015625 80.792969 C 186.015625 80.101562 185.453125 79.542969 184.765625 79.542969 C 184.074219 79.542969 183.515625 80.101562 183.515625 80.792969 C 183.515625 81.480469 184.074219 82.042969 184.765625 82.042969 C 185.453125 82.042969 186.015625 81.480469 186.015625 80.792969 Z M 186.015625 80.792969 "
         id="path78" />
    </clipPath>
    <clipPath
       id="clip-69">
      <path
         clip-rule="nonzero"
         d="M 0 26 L 198.398438 26 L 198.398438 28 L 0 28 Z M 0 26 "
         id="path79" />
    </clipPath>
    <clipPath
       id="clip-70">
      <path
         clip-rule="evenodd"
         d="M -0.5 119.960938 L 198.925781 119.960938 L 198.925781 -0.496094 L -0.5 -0.496094 Z M 14.910156 32.09375 C 14.910156 31.402344 14.351562 30.84375 13.660156 30.84375 C 12.972656 30.84375 12.410156 31.402344 12.410156 32.09375 C 12.410156 32.785156 12.972656 33.34375 13.660156 33.34375 C 14.351562 33.34375 14.910156 32.785156 14.910156 32.09375 Z M 14.910156 32.09375 "
         id="path80" />
    </clipPath>
    <clipPath
       id="clip-71">
      <path
         clip-rule="evenodd"
         d="M -0.5 119.960938 L 198.925781 119.960938 L 198.925781 -0.496094 L -0.5 -0.496094 Z M 186.015625 80.792969 C 186.015625 80.101562 185.453125 79.542969 184.765625 79.542969 C 184.074219 79.542969 183.515625 80.101562 183.515625 80.792969 C 183.515625 81.480469 184.074219 82.042969 184.765625 82.042969 C 185.453125 82.042969 186.015625 81.480469 186.015625 80.792969 Z M 186.015625 80.792969 "
         id="path81" />
    </clipPath>
    <clipPath
       id="clip-72">
      <path
         clip-rule="nonzero"
         d="M 0 13 L 198.398438 13 L 198.398438 14 L 0 14 Z M 0 13 "
         id="path82" />
    </clipPath>
    <clipPath
       id="clip-73">
      <path
         clip-rule="evenodd"
         d="M -0.5 119.960938 L 198.925781 119.960938 L 198.925781 -0.496094 L -0.5 -0.496094 Z M 14.910156 32.09375 C 14.910156 31.402344 14.351562 30.84375 13.660156 30.84375 C 12.972656 30.84375 12.410156 31.402344 12.410156 32.09375 C 12.410156 32.785156 12.972656 33.34375 13.660156 33.34375 C 14.351562 33.34375 14.910156 32.785156 14.910156 32.09375 Z M 14.910156 32.09375 "
         id="path83" />
    </clipPath>
    <clipPath
       id="clip-74">
      <path
         clip-rule="evenodd"
         d="M -0.5 119.960938 L 198.925781 119.960938 L 198.925781 -0.496094 L -0.5 -0.496094 Z M 186.015625 80.792969 C 186.015625 80.101562 185.453125 79.542969 184.765625 79.542969 C 184.074219 79.542969 183.515625 80.101562 183.515625 80.792969 C 183.515625 81.480469 184.074219 82.042969 184.765625 82.042969 C 185.453125 82.042969 186.015625 81.480469 186.015625 80.792969 Z M 186.015625 80.792969 "
         id="path84" />
    </clipPath>
    <clipPath
       id="clip-75">
      <path
         clip-rule="nonzero"
         d="M 0 0 L 198.398438 0 L 198.398438 1 L 0 1 Z M 0 0 "
         id="path85" />
    </clipPath>
    <clipPath
       id="clip-76">
      <path
         clip-rule="evenodd"
         d="M -0.5 119.960938 L 198.925781 119.960938 L 198.925781 -0.496094 L -0.5 -0.496094 Z M 14.910156 32.09375 C 14.910156 31.402344 14.351562 30.84375 13.660156 30.84375 C 12.972656 30.84375 12.410156 31.402344 12.410156 32.09375 C 12.410156 32.785156 12.972656 33.34375 13.660156 33.34375 C 14.351562 33.34375 14.910156 32.785156 14.910156 32.09375 Z M 14.910156 32.09375 "
         id="path86" />
    </clipPath>
    <clipPath
       id="clip-77">
      <path
         clip-rule="evenodd"
         d="M -0.5 119.960938 L 198.925781 119.960938 L 198.925781 -0.496094 L -0.5 -0.496094 Z M 186.015625 80.792969 C 186.015625 80.101562 185.453125 79.542969 184.765625 79.542969 C 184.074219 79.542969 183.515625 80.101562 183.515625 80.792969 C 183.515625 81.480469 184.074219 82.042969 184.765625 82.042969 C 185.453125 82.042969 186.015625 81.480469 186.015625 80.792969 Z M 186.015625 80.792969 "
         id="path87" />
    </clipPath>
    <clipPath
       id="clip-78">
      <path
         clip-rule="nonzero"
         d="M 0 52 L 192 52 L 192 54 L 0 54 Z M 0 52 "
         id="path88" />
    </clipPath>
    <clipPath
       id="clip-79">
      <path
         clip-rule="evenodd"
         d="M -0.5 119.960938 L 198.925781 119.960938 L 198.925781 -0.496094 L -0.5 -0.496094 Z M 14.910156 32.09375 C 14.910156 31.402344 14.351562 30.84375 13.660156 30.84375 C 12.972656 30.84375 12.410156 31.402344 12.410156 32.09375 C 12.410156 32.785156 12.972656 33.34375 13.660156 33.34375 C 14.351562 33.34375 14.910156 32.785156 14.910156 32.09375 Z M 14.910156 32.09375 "
         id="path89" />
    </clipPath>
    <clipPath
       id="clip-80">
      <path
         clip-rule="evenodd"
         d="M -0.5 119.960938 L 198.925781 119.960938 L 198.925781 -0.496094 L -0.5 -0.496094 Z M 186.015625 80.792969 C 186.015625 80.101562 185.453125 79.542969 184.765625 79.542969 C 184.074219 79.542969 183.515625 80.101562 183.515625 80.792969 C 183.515625 81.480469 184.074219 82.042969 184.765625 82.042969 C 185.453125 82.042969 186.015625 81.480469 186.015625 80.792969 Z M 186.015625 80.792969 "
         id="path90" />
    </clipPath>
    <clipPath
       id="clip-81">
      <path
         clip-rule="nonzero"
         d="M 190 51 L 198 51 L 198 56 L 190 56 Z M 190 51 "
         id="path91" />
    </clipPath>
    <clipPath
       id="clip-82">
      <path
         clip-rule="evenodd"
         d="M -0.5 119.960938 L 198.925781 119.960938 L 198.925781 -0.496094 L -0.5 -0.496094 Z M 14.910156 32.09375 C 14.910156 31.402344 14.351562 30.84375 13.660156 30.84375 C 12.972656 30.84375 12.410156 31.402344 12.410156 32.09375 C 12.410156 32.785156 12.972656 33.34375 13.660156 33.34375 C 14.351562 33.34375 14.910156 32.785156 14.910156 32.09375 Z M 14.910156 32.09375 "
         id="path92" />
    </clipPath>
    <clipPath
       id="clip-83">
      <path
         clip-rule="evenodd"
         d="M -0.5 119.960938 L 198.925781 119.960938 L 198.925781 -0.496094 L -0.5 -0.496094 Z M 186.015625 80.792969 C 186.015625 80.101562 185.453125 79.542969 184.765625 79.542969 C 184.074219 79.542969 183.515625 80.101562 183.515625 80.792969 C 183.515625 81.480469 184.074219 82.042969 184.765625 82.042969 C 185.453125 82.042969 186.015625 81.480469 186.015625 80.792969 Z M 186.015625 80.792969 "
         id="path93" />
    </clipPath>
    <clipPath
       id="clip-84">
      <path
         clip-rule="nonzero"
         d="M 190 50 L 198.398438 50 L 198.398438 56 L 190 56 Z M 190 50 "
         id="path94" />
    </clipPath>
    <clipPath
       id="clip-85">
      <path
         clip-rule="evenodd"
         d="M -0.5 119.960938 L 198.925781 119.960938 L 198.925781 -0.496094 L -0.5 -0.496094 Z M 14.910156 32.09375 C 14.910156 31.402344 14.351562 30.84375 13.660156 30.84375 C 12.972656 30.84375 12.410156 31.402344 12.410156 32.09375 C 12.410156 32.785156 12.972656 33.34375 13.660156 33.34375 C 14.351562 33.34375 14.910156 32.785156 14.910156 32.09375 Z M 14.910156 32.09375 "
         id="path95" />
    </clipPath>
    <clipPath
       id="clip-86">
      <path
         clip-rule="evenodd"
         d="M -0.5 119.960938 L 198.925781 119.960938 L 198.925781 -0.496094 L -0.5 -0.496094 Z M 186.015625 80.792969 C 186.015625 80.101562 185.453125 79.542969 184.765625 79.542969 C 184.074219 79.542969 183.515625 80.101562 183.515625 80.792969 C 183.515625 81.480469 184.074219 82.042969 184.765625 82.042969 C 185.453125 82.042969 186.015625 81.480469 186.015625 80.792969 Z M 186.015625 80.792969 "
         id="path96" />
    </clipPath>
    <clipPath
       id="clip-87">
      <path
         clip-rule="nonzero"
         d="M 0 52 L 198.398438 52 L 198.398438 54 L 0 54 Z M 0 52 "
         id="path97" />
    </clipPath>
    <clipPath
       id="clip-88">
      <path
         clip-rule="evenodd"
         d="M -0.5 119.960938 L 198.925781 119.960938 L 198.925781 -0.496094 L -0.5 -0.496094 Z M 14.910156 32.09375 C 14.910156 31.402344 14.351562 30.84375 13.660156 30.84375 C 12.972656 30.84375 12.410156 31.402344 12.410156 32.09375 C 12.410156 32.785156 12.972656 33.34375 13.660156 33.34375 C 14.351562 33.34375 14.910156 32.785156 14.910156 32.09375 Z M 14.910156 32.09375 "
         id="path98" />
    </clipPath>
    <clipPath
       id="clip-89">
      <path
         clip-rule="evenodd"
         d="M -0.5 119.960938 L 198.925781 119.960938 L 198.925781 -0.496094 L -0.5 -0.496094 Z M 186.015625 80.792969 C 186.015625 80.101562 185.453125 79.542969 184.765625 79.542969 C 184.074219 79.542969 183.515625 80.101562 183.515625 80.792969 C 183.515625 81.480469 184.074219 82.042969 184.765625 82.042969 C 185.453125 82.042969 186.015625 81.480469 186.015625 80.792969 Z M 186.015625 80.792969 "
         id="path99" />
    </clipPath>
    <clipPath
       id="clip-90">
      <path
         clip-rule="nonzero"
         d="M 131 7 L 133 7 L 133 119.453125 L 131 119.453125 Z M 131 7 "
         id="path100" />
    </clipPath>
    <clipPath
       id="clip-91">
      <path
         clip-rule="evenodd"
         d="M -0.5 119.960938 L 198.925781 119.960938 L 198.925781 -0.496094 L -0.5 -0.496094 Z M 14.910156 32.09375 C 14.910156 31.402344 14.351562 30.84375 13.660156 30.84375 C 12.972656 30.84375 12.410156 31.402344 12.410156 32.09375 C 12.410156 32.785156 12.972656 33.34375 13.660156 33.34375 C 14.351562 33.34375 14.910156 32.785156 14.910156 32.09375 Z M 14.910156 32.09375 "
         id="path101" />
    </clipPath>
    <clipPath
       id="clip-92">
      <path
         clip-rule="evenodd"
         d="M -0.5 119.960938 L 198.925781 119.960938 L 198.925781 -0.496094 L -0.5 -0.496094 Z M 186.015625 80.792969 C 186.015625 80.101562 185.453125 79.542969 184.765625 79.542969 C 184.074219 79.542969 183.515625 80.101562 183.515625 80.792969 C 183.515625 81.480469 184.074219 82.042969 184.765625 82.042969 C 185.453125 82.042969 186.015625 81.480469 186.015625 80.792969 Z M 186.015625 80.792969 "
         id="path102" />
    </clipPath>
    <clipPath
       id="clip-93">
      <path
         clip-rule="nonzero"
         d="M 130 0 L 134 0 L 134 8 L 130 8 Z M 130 0 "
         id="path103" />
    </clipPath>
    <clipPath
       id="clip-94">
      <path
         clip-rule="evenodd"
         d="M -0.5 119.960938 L 198.925781 119.960938 L 198.925781 -0.496094 L -0.5 -0.496094 Z M 14.910156 32.09375 C 14.910156 31.402344 14.351562 30.84375 13.660156 30.84375 C 12.972656 30.84375 12.410156 31.402344 12.410156 32.09375 C 12.410156 32.785156 12.972656 33.34375 13.660156 33.34375 C 14.351562 33.34375 14.910156 32.785156 14.910156 32.09375 Z M 14.910156 32.09375 "
         id="path104" />
    </clipPath>
    <clipPath
       id="clip-95">
      <path
         clip-rule="evenodd"
         d="M -0.5 119.960938 L 198.925781 119.960938 L 198.925781 -0.496094 L -0.5 -0.496094 Z M 186.015625 80.792969 C 186.015625 80.101562 185.453125 79.542969 184.765625 79.542969 C 184.074219 79.542969 183.515625 80.101562 183.515625 80.792969 C 183.515625 81.480469 184.074219 82.042969 184.765625 82.042969 C 185.453125 82.042969 186.015625 81.480469 186.015625 80.792969 Z M 186.015625 80.792969 "
         id="path105" />
    </clipPath>
    <clipPath
       id="clip-96">
      <path
         clip-rule="nonzero"
         d="M 129 0 L 135 0 L 135 8 L 129 8 Z M 129 0 "
         id="path106" />
    </clipPath>
    <clipPath
       id="clip-97">
      <path
         clip-rule="evenodd"
         d="M -0.5 119.960938 L 198.925781 119.960938 L 198.925781 -0.496094 L -0.5 -0.496094 Z M 14.910156 32.09375 C 14.910156 31.402344 14.351562 30.84375 13.660156 30.84375 C 12.972656 30.84375 12.410156 31.402344 12.410156 32.09375 C 12.410156 32.785156 12.972656 33.34375 13.660156 33.34375 C 14.351562 33.34375 14.910156 32.785156 14.910156 32.09375 Z M 14.910156 32.09375 "
         id="path107" />
    </clipPath>
    <clipPath
       id="clip-98">
      <path
         clip-rule="evenodd"
         d="M -0.5 119.960938 L 198.925781 119.960938 L 198.925781 -0.496094 L -0.5 -0.496094 Z M 186.015625 80.792969 C 186.015625 80.101562 185.453125 79.542969 184.765625 79.542969 C 184.074219 79.542969 183.515625 80.101562 183.515625 80.792969 C 183.515625 81.480469 184.074219 82.042969 184.765625 82.042969 C 185.453125 82.042969 186.015625 81.480469 186.015625 80.792969 Z M 186.015625 80.792969 "
         id="path108" />
    </clipPath>
    <clipPath
       id="clip-99">
      <path
         clip-rule="nonzero"
         d="M 131 0 L 133 0 L 133 119.453125 L 131 119.453125 Z M 131 0 "
         id="path109" />
    </clipPath>
    <clipPath
       id="clip-100">
      <path
         clip-rule="evenodd"
         d="M -0.5 119.960938 L 198.925781 119.960938 L 198.925781 -0.496094 L -0.5 -0.496094 Z M 14.910156 32.09375 C 14.910156 31.402344 14.351562 30.84375 13.660156 30.84375 C 12.972656 30.84375 12.410156 31.402344 12.410156 32.09375 C 12.410156 32.785156 12.972656 33.34375 13.660156 33.34375 C 14.351562 33.34375 14.910156 32.785156 14.910156 32.09375 Z M 14.910156 32.09375 "
         id="path110" />
    </clipPath>
    <clipPath
       id="clip-101">
      <path
         clip-rule="evenodd"
         d="M -0.5 119.960938 L 198.925781 119.960938 L 198.925781 -0.496094 L -0.5 -0.496094 Z M 186.015625 80.792969 C 186.015625 80.101562 185.453125 79.542969 184.765625 79.542969 C 184.074219 79.542969 183.515625 80.101562 183.515625 80.792969 C 183.515625 81.480469 184.074219 82.042969 184.765625 82.042969 C 185.453125 82.042969 186.015625 81.480469 186.015625 80.792969 Z M 186.015625 80.792969 "
         id="path111" />
    </clipPath>
    <clipPath
       id="clip-102">
      <path
         clip-rule="nonzero"
         d="M 13 13 L 186 13 L 186 107 L 13 107 Z M 13 13 "
         id="path112" />
    </clipPath>
    <clipPath
       id="clip-103">
      <path
         clip-rule="evenodd"
         d="M -0.5 119.960938 L 198.925781 119.960938 L 198.925781 -0.496094 L -0.5 -0.496094 Z M 14.910156 32.09375 C 14.910156 31.402344 14.351562 30.84375 13.660156 30.84375 C 12.972656 30.84375 12.410156 31.402344 12.410156 32.09375 C 12.410156 32.785156 12.972656 33.34375 13.660156 33.34375 C 14.351562 33.34375 14.910156 32.785156 14.910156 32.09375 Z M 14.910156 32.09375 "
         id="path113" />
    </clipPath>
    <clipPath
       id="clip-104">
      <path
         clip-rule="evenodd"
         d="M -0.5 119.960938 L 198.925781 119.960938 L 198.925781 -0.496094 L -0.5 -0.496094 Z M 186.015625 80.792969 C 186.015625 80.101562 185.453125 79.542969 184.765625 79.542969 C 184.074219 79.542969 183.515625 80.101562 183.515625 80.792969 C 183.515625 81.480469 184.074219 82.042969 184.765625 82.042969 C 185.453125 82.042969 186.015625 81.480469 186.015625 80.792969 Z M 186.015625 80.792969 "
         id="path114" />
    </clipPath>
    <clipPath
       id="clip-105">
      <path
         clip-rule="nonzero"
         d="M 12 30 L 16 30 L 16 34 L 12 34 Z M 12 30 "
         id="path115" />
    </clipPath>
    <clipPath
       id="clip-106">
      <path
         clip-rule="evenodd"
         d="M -0.5 119.960938 L 198.925781 119.960938 L 198.925781 -0.496094 L -0.5 -0.496094 Z M 186.015625 80.792969 C 186.015625 80.101562 185.453125 79.542969 184.765625 79.542969 C 184.074219 79.542969 183.515625 80.101562 183.515625 80.792969 C 183.515625 81.480469 184.074219 82.042969 184.765625 82.042969 C 185.453125 82.042969 186.015625 81.480469 186.015625 80.792969 Z M 186.015625 80.792969 "
         id="path116" />
    </clipPath>
  </defs>
  <g
     clip-path="url(#clip-0)"
     id="g119">
    <g
       clip-path="url(#clip-1)"
       id="g118">
      <g
         clip-path="url(#clip-2)"
         id="g117">
        <path
           fill="none"
           stroke-width="5"
           stroke-linecap="round"
           stroke-linejoin="round"
           stroke="rgb(66.601562%, 66.601562%, 66.601562%)"
           stroke-opacity="1"
           stroke-miterlimit="10"
           d="M 5 4.990625 L 5 1189.560937 "
           transform="matrix(0.1, 0, 0, -0.1, 0, 119.46)"
           id="path117" />
      </g>
    </g>
  </g>
  <g
     clip-path="url(#clip-3)"
     id="g122">
    <g
       clip-path="url(#clip-4)"
       id="g121">
      <g
         clip-path="url(#clip-5)"
         id="g120">
        <path
           fill="none"
           stroke-width="5"
           stroke-linecap="round"
           stroke-linejoin="round"
           stroke="rgb(66.601562%, 66.601562%, 66.601562%)"
           stroke-opacity="1"
           stroke-miterlimit="10"
           d="M 136.601562 4.990625 L 136.601562 1189.560937 "
           transform="matrix(0.1, 0, 0, -0.1, 0, 119.46)"
           id="path119" />
      </g>
    </g>
  </g>
  <g
     clip-path="url(#clip-6)"
     id="g125">
    <g
       clip-path="url(#clip-7)"
       id="g124">
      <g
         clip-path="url(#clip-8)"
         id="g123">
        <path
           fill="none"
           stroke-width="5"
           stroke-linecap="round"
           stroke-linejoin="round"
           stroke="rgb(66.601562%, 66.601562%, 66.601562%)"
           stroke-opacity="1"
           stroke-miterlimit="10"
           d="M 268.242188 4.990625 L 268.242188 1189.560937 "
           transform="matrix(0.1, 0, 0, -0.1, 0, 119.46)"
           id="path122" />
      </g>
    </g>
  </g>
  <g
     clip-path="url(#clip-9)"
     id="g128">
    <g
       clip-path="url(#clip-10)"
       id="g127">
      <g
         clip-path="url(#clip-11)"
         id="g126">
        <path
           fill="none"
           stroke-width="5"
           stroke-linecap="round"
           stroke-linejoin="round"
           stroke="rgb(66.601562%, 66.601562%, 66.601562%)"
           stroke-opacity="1"
           stroke-miterlimit="10"
           d="M 399.84375 4.990625 L 399.84375 1189.560937 "
           transform="matrix(0.1, 0, 0, -0.1, 0, 119.46)"
           id="path125" />
      </g>
    </g>
  </g>
  <g
     clip-path="url(#clip-12)"
     id="g131">
    <g
       clip-path="url(#clip-13)"
       id="g130">
      <g
         clip-path="url(#clip-14)"
         id="g129">
        <path
           fill="none"
           stroke-width="5"
           stroke-linecap="round"
           stroke-linejoin="round"
           stroke="rgb(66.601562%, 66.601562%, 66.601562%)"
           stroke-opacity="1"
           stroke-miterlimit="10"
           d="M 531.484375 4.990625 L 531.484375 1189.560937 "
           transform="matrix(0.1, 0, 0, -0.1, 0, 119.46)"
           id="path128" />
      </g>
    </g>
  </g>
  <g
     clip-path="url(#clip-15)"
     id="g134">
    <g
       clip-path="url(#clip-16)"
       id="g133">
      <g
         clip-path="url(#clip-17)"
         id="g132">
        <path
           fill="none"
           stroke-width="5"
           stroke-linecap="round"
           stroke-linejoin="round"
           stroke="rgb(66.601562%, 66.601562%, 66.601562%)"
           stroke-opacity="1"
           stroke-miterlimit="10"
           d="M 663.085938 4.990625 L 663.085938 1189.560937 "
           transform="matrix(0.1, 0, 0, -0.1, 0, 119.46)"
           id="path131" />
      </g>
    </g>
  </g>
  <g
     clip-path="url(#clip-18)"
     id="g137">
    <g
       clip-path="url(#clip-19)"
       id="g136">
      <g
         clip-path="url(#clip-20)"
         id="g135">
        <path
           fill="none"
           stroke-width="5"
           stroke-linecap="round"
           stroke-linejoin="round"
           stroke="rgb(66.601562%, 66.601562%, 66.601562%)"
           stroke-opacity="1"
           stroke-miterlimit="10"
           d="M 794.6875 4.990625 L 794.6875 1189.560937 "
           transform="matrix(0.1, 0, 0, -0.1, 0, 119.46)"
           id="path134" />
      </g>
    </g>
  </g>
  <g
     clip-path="url(#clip-21)"
     id="g140">
    <g
       clip-path="url(#clip-22)"
       id="g139">
      <g
         clip-path="url(#clip-23)"
         id="g138">
        <path
           fill="none"
           stroke-width="5"
           stroke-linecap="round"
           stroke-linejoin="round"
           stroke="rgb(66.601562%, 66.601562%, 66.601562%)"
           stroke-opacity="1"
           stroke-miterlimit="10"
           d="M 926.328125 4.990625 L 926.328125 1189.560937 "
           transform="matrix(0.1, 0, 0, -0.1, 0, 119.46)"
           id="path137" />
      </g>
    </g>
  </g>
  <g
     clip-path="url(#clip-24)"
     id="g143">
    <g
       clip-path="url(#clip-25)"
       id="g142">
      <g
         clip-path="url(#clip-26)"
         id="g141">
        <path
           fill="none"
           stroke-width="5"
           stroke-linecap="round"
           stroke-linejoin="round"
           stroke="rgb(66.601562%, 66.601562%, 66.601562%)"
           stroke-opacity="1"
           stroke-miterlimit="10"
           d="M 1057.929688 4.990625 L 1057.929688 1189.560937 "
           transform="matrix(0.1, 0, 0, -0.1, 0, 119.46)"
           id="path140" />
      </g>
    </g>
  </g>
  <g
     clip-path="url(#clip-27)"
     id="g146">
    <g
       clip-path="url(#clip-28)"
       id="g145">
      <g
         clip-path="url(#clip-29)"
         id="g144">
        <path
           fill="none"
           stroke-width="5"
           stroke-linecap="round"
           stroke-linejoin="round"
           stroke="rgb(66.601562%, 66.601562%, 66.601562%)"
           stroke-opacity="1"
           stroke-miterlimit="10"
           d="M 1189.53125 4.990625 L 1189.53125 1189.560937 "
           transform="matrix(0.1, 0, 0, -0.1, 0, 119.46)"
           id="path143" />
      </g>
    </g>
  </g>
  <g
     clip-path="url(#clip-30)"
     id="g149">
    <g
       clip-path="url(#clip-31)"
       id="g148">
      <g
         clip-path="url(#clip-32)"
         id="g147">
        <path
           fill="none"
           stroke-width="5"
           stroke-linecap="round"
           stroke-linejoin="round"
           stroke="rgb(66.601562%, 66.601562%, 66.601562%)"
           stroke-opacity="1"
           stroke-miterlimit="10"
           d="M 1321.171875 4.990625 L 1321.171875 1189.560937 "
           transform="matrix(0.1, 0, 0, -0.1, 0, 119.46)"
           id="path146" />
      </g>
    </g>
  </g>
  <g
     clip-path="url(#clip-33)"
     id="g152">
    <g
       clip-path="url(#clip-34)"
       id="g151">
      <g
         clip-path="url(#clip-35)"
         id="g150">
        <path
           fill="none"
           stroke-width="5"
           stroke-linecap="round"
           stroke-linejoin="round"
           stroke="rgb(66.601562%, 66.601562%, 66.601562%)"
           stroke-opacity="1"
           stroke-miterlimit="10"
           d="M 1452.773438 4.990625 L 1452.773438 1189.560937 "
           transform="matrix(0.1, 0, 0, -0.1, 0, 119.46)"
           id="path149" />
      </g>
    </g>
  </g>
  <g
     clip-path="url(#clip-36)"
     id="g155">
    <g
       clip-path="url(#clip-37)"
       id="g154">
      <g
         clip-path="url(#clip-38)"
         id="g153">
        <path
           fill="none"
           stroke-width="5"
           stroke-linecap="round"
           stroke-linejoin="round"
           stroke="rgb(66.601562%, 66.601562%, 66.601562%)"
           stroke-opacity="1"
           stroke-miterlimit="10"
           d="M 1584.414062 4.990625 L 1584.414062 1189.560937 "
           transform="matrix(0.1, 0, 0, -0.1, 0, 119.46)"
           id="path152" />
      </g>
    </g>
  </g>
  <g
     clip-path="url(#clip-39)"
     id="g158">
    <g
       clip-path="url(#clip-40)"
       id="g157">
      <g
         clip-path="url(#clip-41)"
         id="g156">
        <path
           fill="none"
           stroke-width="5"
           stroke-linecap="round"
           stroke-linejoin="round"
           stroke="rgb(66.601562%, 66.601562%, 66.601562%)"
           stroke-opacity="1"
           stroke-miterlimit="10"
           d="M 1716.015625 4.990625 L 1716.015625 1189.560937 "
           transform="matrix(0.1, 0, 0, -0.1, 0, 119.46)"
           id="path155" />
      </g>
    </g>
  </g>
  <g
     clip-path="url(#clip-42)"
     id="g161">
    <g
       clip-path="url(#clip-43)"
       id="g160">
      <g
         clip-path="url(#clip-44)"
         id="g159">
        <path
           fill="none"
           stroke-width="5"
           stroke-linecap="round"
           stroke-linejoin="round"
           stroke="rgb(66.601562%, 66.601562%, 66.601562%)"
           stroke-opacity="1"
           stroke-miterlimit="10"
           d="M 1847.65625 4.990625 L 1847.65625 1189.560937 "
           transform="matrix(0.1, 0, 0, -0.1, 0, 119.46)"
           id="path158" />
      </g>
    </g>
  </g>
  <g
     clip-path="url(#clip-45)"
     id="g164">
    <g
       clip-path="url(#clip-46)"
       id="g163">
      <g
         clip-path="url(#clip-47)"
         id="g162">
        <path
           fill="none"
           stroke-width="5"
           stroke-linecap="round"
           stroke-linejoin="round"
           stroke="rgb(66.601562%, 66.601562%, 66.601562%)"
           stroke-opacity="1"
           stroke-miterlimit="10"
           d="M 1979.257812 4.990625 L 1979.257812 1189.560937 "
           transform="matrix(0.1, 0, 0, -0.1, 0, 119.46)"
           id="path161" />
      </g>
    </g>
  </g>
  <g
     clip-path="url(#clip-48)"
     id="g167">
    <g
       clip-path="url(#clip-49)"
       id="g166">
      <g
         clip-path="url(#clip-50)"
         id="g165">
        <path
           fill="none"
           stroke-width="5"
           stroke-linecap="round"
           stroke-linejoin="round"
           stroke="rgb(66.601562%, 66.601562%, 66.601562%)"
           stroke-opacity="1"
           stroke-miterlimit="10"
           d="M 5 4.990625 L 1979.257812 4.990625 "
           transform="matrix(0.1, 0, 0, -0.1, 0, 119.46)"
           id="path164" />
      </g>
    </g>
  </g>
  <g
     clip-path="url(#clip-51)"
     id="g170">
    <g
       clip-path="url(#clip-52)"
       id="g169">
      <g
         clip-path="url(#clip-53)"
         id="g168">
        <path
           fill="none"
           stroke-width="5"
           stroke-linecap="round"
           stroke-linejoin="round"
           stroke="rgb(66.601562%, 66.601562%, 66.601562%)"
           stroke-opacity="1"
           stroke-miterlimit="10"
           d="M 5 136.63125 L 1979.257812 136.63125 "
           transform="matrix(0.1, 0, 0, -0.1, 0, 119.46)"
           id="path167" />
      </g>
    </g>
  </g>
  <g
     clip-path="url(#clip-54)"
     id="g173">
    <g
       clip-path="url(#clip-55)"
       id="g172">
      <g
         clip-path="url(#clip-56)"
         id="g171">
        <path
           fill="none"
           stroke-width="5"
           stroke-linecap="round"
           stroke-linejoin="round"
           stroke="rgb(66.601562%, 66.601562%, 66.601562%)"
           stroke-opacity="1"
           stroke-miterlimit="10"
           d="M 5 268.232812 L 1979.257812 268.232812 "
           transform="matrix(0.1, 0, 0, -0.1, 0, 119.46)"
           id="path170" />
      </g>
    </g>
  </g>
  <g
     clip-path="url(#clip-57)"
     id="g176">
    <g
       clip-path="url(#clip-58)"
       id="g175">
      <g
         clip-path="url(#clip-59)"
         id="g174">
        <path
           fill="none"
           stroke-width="5"
           stroke-linecap="round"
           stroke-linejoin="round"
           stroke="rgb(66.601562%, 66.601562%, 66.601562%)"
           stroke-opacity="1"
           stroke-miterlimit="10"
           d="M 5 399.834375 L 1979.257812 399.834375 "
           transform="matrix(0.1, 0, 0, -0.1, 0, 119.46)"
           id="path173" />
      </g>
    </g>
  </g>
  <g
     clip-path="url(#clip-60)"
     id="g179">
    <g
       clip-path="url(#clip-61)"
       id="g178">
      <g
         clip-path="url(#clip-62)"
         id="g177">
        <path
           fill="none"
           stroke-width="5"
           stroke-linecap="round"
           stroke-linejoin="round"
           stroke="rgb(66.601562%, 66.601562%, 66.601562%)"
           stroke-opacity="1"
           stroke-miterlimit="10"
           d="M 5 531.475 L 1979.257812 531.475 "
           transform="matrix(0.1, 0, 0, -0.1, 0, 119.46)"
           id="path176" />
      </g>
    </g>
  </g>
  <g
     clip-path="url(#clip-63)"
     id="g182">
    <g
       clip-path="url(#clip-64)"
       id="g181">
      <g
         clip-path="url(#clip-65)"
         id="g180">
        <path
           fill="none"
           stroke-width="5"
           stroke-linecap="round"
           stroke-linejoin="round"
           stroke="rgb(66.601562%, 66.601562%, 66.601562%)"
           stroke-opacity="1"
           stroke-miterlimit="10"
           d="M 5 663.076562 L 1979.257812 663.076562 "
           transform="matrix(0.1, 0, 0, -0.1, 0, 119.46)"
           id="path179" />
      </g>
    </g>
  </g>
  <g
     clip-path="url(#clip-66)"
     id="g185">
    <g
       clip-path="url(#clip-67)"
       id="g184">
      <g
         clip-path="url(#clip-68)"
         id="g183">
        <path
           fill="none"
           stroke-width="5"
           stroke-linecap="round"
           stroke-linejoin="round"
           stroke="rgb(66.601562%, 66.601562%, 66.601562%)"
           stroke-opacity="1"
           stroke-miterlimit="10"
           d="M 5 794.717187 L 1979.257812 794.717187 "
           transform="matrix(0.1, 0, 0, -0.1, 0, 119.46)"
           id="path182" />
      </g>
    </g>
  </g>
  <g
     clip-path="url(#clip-69)"
     id="g188">
    <g
       clip-path="url(#clip-70)"
       id="g187">
      <g
         clip-path="url(#clip-71)"
         id="g186">
        <path
           fill="none"
           stroke-width="5"
           stroke-linecap="round"
           stroke-linejoin="round"
           stroke="rgb(66.601562%, 66.601562%, 66.601562%)"
           stroke-opacity="1"
           stroke-miterlimit="10"
           d="M 5 926.31875 L 1979.257812 926.31875 "
           transform="matrix(0.1, 0, 0, -0.1, 0, 119.46)"
           id="path185" />
      </g>
    </g>
  </g>
  <g
     clip-path="url(#clip-72)"
     id="g191">
    <g
       clip-path="url(#clip-73)"
       id="g190">
      <g
         clip-path="url(#clip-74)"
         id="g189">
        <path
           fill="none"
           stroke-width="5"
           stroke-linecap="round"
           stroke-linejoin="round"
           stroke="rgb(66.601562%, 66.601562%, 66.601562%)"
           stroke-opacity="1"
           stroke-miterlimit="10"
           d="M 5 1057.920312 L 1979.257812 1057.920312 "
           transform="matrix(0.1, 0, 0, -0.1, 0, 119.46)"
           id="path188" />
      </g>
    </g>
  </g>
  <g
     clip-path="url(#clip-75)"
     id="g194">
    <g
       clip-path="url(#clip-76)"
       id="g193">
      <g
         clip-path="url(#clip-77)"
         id="g192">
        <path
           fill="none"
           stroke-width="5"
           stroke-linecap="round"
           stroke-linejoin="round"
           stroke="rgb(66.601562%, 66.601562%, 66.601562%)"
           stroke-opacity="1"
           stroke-miterlimit="10"
           d="M 5 1189.560937 L 1979.257812 1189.560937 "
           transform="matrix(0.1, 0, 0, -0.1, 0, 119.46)"
           id="path191" />
      </g>
    </g>
  </g>
  <g
     clip-path="url(#clip-78)"
     id="g197">
    <g
       clip-path="url(#clip-79)"
       id="g196">
      <g
         clip-path="url(#clip-80)"
         id="g195">
        <path
           fill="none"
           stroke-width="8"
           stroke-linecap="round"
           stroke-linejoin="round"
           stroke="rgb(0%, 0%, 0%)"
           stroke-opacity="1"
           stroke-miterlimit="10"
           d="M 1909.257812 663.076562 L 5 663.076562 "
           transform="matrix(0.1, 0, 0, -0.1, 0, 119.46)"
           id="path194" />
      </g>
    </g>
  </g>
  <g
     clip-path="url(#clip-81)"
     id="g200">
    <g
       clip-path="url(#clip-82)"
       id="g199">
      <g
         clip-path="url(#clip-83)"
         id="g198">
        <path
           fill-rule="nonzero"
           fill="rgb(0%, 0%, 0%)"
           fill-opacity="1"
           d="M 197.925781 53.152344 L 190.925781 51.277344 L 190.925781 55.027344 Z M 197.925781 53.152344 "
           id="path197" />
      </g>
    </g>
  </g>
  <g
     clip-path="url(#clip-84)"
     id="g203">
    <g
       clip-path="url(#clip-85)"
       id="g202">
      <g
         clip-path="url(#clip-86)"
         id="g201">
        <path
           fill="none"
           stroke-width="8"
           stroke-linecap="round"
           stroke-linejoin="round"
           stroke="rgb(0%, 0%, 0%)"
           stroke-opacity="1"
           stroke-miterlimit="10"
           d="M 1979.257812 663.076562 L 1909.257812 681.826562 L 1909.257812 644.326562 Z M 1979.257812 663.076562 "
           transform="matrix(0.1, 0, 0, -0.1, 0, 119.46)"
           id="path200" />
      </g>
    </g>
  </g>
  <g
     clip-path="url(#clip-87)"
     id="g206">
    <g
       clip-path="url(#clip-88)"
       id="g205">
      <g
         clip-path="url(#clip-89)"
         id="g204">
        <path
           fill="none"
           stroke-width="10"
           stroke-linecap="round"
           stroke-linejoin="round"
           stroke="rgb(0%, 0%, 0%)"
           stroke-opacity="1"
           stroke-miterlimit="10"
           d="M 5 663.076562 L 1979.257812 663.076562 "
           transform="matrix(0.1, 0, 0, -0.1, 0, 119.46)"
           id="path203" />
      </g>
    </g>
  </g>
  <g
     clip-path="url(#clip-90)"
     id="g209">
    <g
       clip-path="url(#clip-91)"
       id="g208">
      <g
         clip-path="url(#clip-92)"
         id="g207">
        <path
           fill="none"
           stroke-width="8"
           stroke-linecap="round"
           stroke-linejoin="round"
           stroke="rgb(0%, 0%, 0%)"
           stroke-opacity="1"
           stroke-miterlimit="10"
           d="M 1321.171875 1119.560937 L 1321.171875 4.990625 "
           transform="matrix(0.1, 0, 0, -0.1, 0, 119.46)"
           id="path206" />
      </g>
    </g>
  </g>
  <g
     clip-path="url(#clip-93)"
     id="g212">
    <g
       clip-path="url(#clip-94)"
       id="g211">
      <g
         clip-path="url(#clip-95)"
         id="g210">
        <path
           fill-rule="nonzero"
           fill="rgb(0%, 0%, 0%)"
           fill-opacity="1"
           d="M 132.117188 0.503906 L 130.242188 7.503906 L 133.992188 7.503906 Z M 132.117188 0.503906 "
           id="path209" />
      </g>
    </g>
  </g>
  <g
     clip-path="url(#clip-96)"
     id="g215">
    <g
       clip-path="url(#clip-97)"
       id="g214">
      <g
         clip-path="url(#clip-98)"
         id="g213">
        <path
           fill="none"
           stroke-width="8"
           stroke-linecap="round"
           stroke-linejoin="round"
           stroke="rgb(0%, 0%, 0%)"
           stroke-opacity="1"
           stroke-miterlimit="10"
           d="M 1321.171875 1189.560937 L 1302.421875 1119.560937 L 1339.921875 1119.560937 Z M 1321.171875 1189.560937 "
           transform="matrix(0.1, 0, 0, -0.1, 0, 119.46)"
           id="path212" />
      </g>
    </g>
  </g>
  <g
     clip-path="url(#clip-99)"
     id="g218">
    <g
       clip-path="url(#clip-100)"
       id="g217">
      <g
         clip-path="url(#clip-101)"
         id="g216">
        <path
           fill="none"
           stroke-width="10"
           stroke-linecap="round"
           stroke-linejoin="round"
           stroke="rgb(0%, 0%, 0%)"
           stroke-opacity="1"
           stroke-miterlimit="10"
           d="M 1321.171875 4.990625 L 1321.171875 1189.560937 "
           transform="matrix(0.1, 0, 0, -0.1, 0, 119.46)"
           id="path215" />
      </g>
    </g>
  </g>
  <g
     clip-path="url(#clip-102)"
     id="g221">
    <g
       clip-path="url(#clip-103)"
       id="g220">
      <g
         clip-path="url(#clip-104)"
         id="g219">
        <path
           fill="none"
           stroke-width="8"
           stroke-linecap="round"
           stroke-linejoin="round"
           stroke="rgb(0%, 0%, 0%)"
           stroke-opacity="1"
           stroke-miterlimit="10"
           d="M 136.601562 873.6625 L 140.039062 873.975 L 143.476562 874.170312 L 146.875 874.2875 L 150.3125 874.2875 L 153.710938 874.209375 L 157.148438 874.053125 L 160.585938 873.81875 L 163.984375 873.467187 L 167.421875 873.076562 L 170.820312 872.607812 L 174.257812 872.060937 L 177.695312 871.435937 L 181.09375 870.732812 L 184.53125 869.990625 L 187.929688 869.170312 L 191.367188 868.271875 L 194.804688 867.334375 L 198.203125 866.31875 L 201.640625 865.303125 L 205.078125 864.170312 L 208.476562 863.0375 L 211.914062 861.826562 L 215.3125 860.576562 L 218.75 859.2875 L 222.1875 857.959375 L 225.585938 856.592187 L 229.023438 855.185937 L 232.421875 853.779687 L 235.859375 852.295312 L 239.257812 850.810937 L 242.695312 849.326562 L 246.132812 847.764062 L 249.53125 846.240625 L 252.96875 844.639062 L 256.40625 843.076562 L 259.804688 841.475 L 263.242188 839.834375 L 266.640625 838.232812 L 270.078125 836.592187 L 273.515625 834.990625 L 276.914062 833.35 L 280.351562 831.709375 L 283.75 830.107812 L 287.1875 828.467187 L 290.625 826.865625 L 294.023438 825.264062 L 297.460938 823.701562 L 300.859375 822.139062 L 304.296875 820.576562 L 307.734375 819.053125 L 311.132812 817.529687 L 314.570312 816.084375 L 317.96875 814.6 L 321.40625 813.19375 L 324.84375 811.826562 L 328.242188 810.459375 L 331.679688 809.170312 L 335.078125 807.88125 L 338.515625 806.670312 L 341.953125 805.498437 L 345.351562 804.365625 L 348.789062 803.271875 L 352.1875 802.217187 L 355.625 801.240625 L 359.0625 800.342187 L 362.460938 799.482812 L 365.898438 798.701562 L 369.296875 797.959375 L 372.734375 797.295312 L 376.171875 796.709375 L 379.570312 796.1625 L 383.007812 795.732812 L 386.445312 795.342187 L 389.84375 795.06875 L 393.28125 794.873437 L 396.679688 794.75625 L 400.117188 794.717187 L 403.515625 795.303125 L 406.953125 796.904687 L 410.390625 799.482812 L 413.789062 802.959375 L 417.226562 807.25625 L 420.664062 812.334375 L 424.0625 818.154687 L 427.5 824.639062 L 430.898438 831.748437 L 434.335938 839.44375 L 437.773438 847.607812 L 441.171875 856.279687 L 444.609375 865.303125 L 448.007812 874.678125 L 451.445312 884.326562 L 454.882812 894.248437 L 458.28125 904.2875 L 461.71875 914.482812 L 465.117188 924.75625 L 471.992188 945.225 L 475.390625 955.342187 L 478.828125 965.264062 L 482.226562 975.029687 L 485.664062 984.482812 L 489.101562 993.623437 L 492.5 1002.4125 L 495.9375 1010.732812 L 499.335938 1018.584375 L 502.773438 1025.85 L 506.210938 1032.56875 L 509.609375 1038.584375 L 513.046875 1043.896875 L 516.445312 1048.467187 L 519.882812 1052.178125 L 523.320312 1055.029687 L 526.71875 1056.94375 L 530.15625 1057.842187 L 533.554688 1057.725 L 536.992188 1056.553125 L 540.429688 1054.404687 L 543.828125 1051.279687 L 547.265625 1047.25625 L 550.703125 1042.334375 L 554.101562 1036.592187 L 557.539062 1030.029687 L 560.9375 1022.764062 L 564.375 1014.75625 L 567.8125 1006.084375 L 571.210938 996.7875 L 574.648438 986.904687 L 578.046875 976.475 L 581.484375 965.576562 L 584.882812 954.170312 L 588.320312 942.373437 L 591.757812 930.225 L 595.15625 917.725 L 598.59375 904.9125 L 602.03125 891.865625 L 605.429688 878.584375 L 608.867188 865.185937 L 612.265625 851.63125 L 615.703125 837.998437 L 619.140625 824.2875 L 622.539062 810.615625 L 625.976562 796.982812 L 629.375 783.428125 L 632.8125 769.990625 L 636.25 756.709375 L 639.648438 743.6625 L 643.085938 730.85 L 646.484375 718.310937 L 649.921875 706.123437 L 653.359375 694.2875 L 656.757812 682.920312 L 660.195312 671.94375 L 663.59375 661.514062 L 667.03125 651.396875 L 670.46875 641.475 L 673.867188 631.7875 L 677.304688 622.334375 L 680.703125 613.076562 L 684.140625 604.014062 L 687.578125 595.185937 L 690.976562 586.553125 L 694.414062 578.115625 L 697.8125 569.873437 L 701.25 561.865625 L 704.6875 554.014062 L 708.085938 546.396875 L 711.523438 538.935937 L 714.921875 531.670312 L 718.359375 524.6 L 721.796875 517.685937 L 725.195312 511.00625 L 728.632812 504.482812 L 732.070312 498.115625 L 735.46875 491.94375 L 738.90625 485.928125 L 742.304688 480.107812 L 745.742188 474.44375 L 749.140625 468.935937 L 752.578125 463.623437 L 756.015625 458.428125 L 759.414062 453.428125 L 762.851562 448.584375 L 766.289062 443.857812 L 769.6875 439.326562 L 773.125 434.9125 L 776.523438 430.654687 L 779.960938 426.553125 L 783.398438 422.56875 L 786.796875 418.740625 L 790.234375 415.06875 L 793.632812 411.514062 L 797.070312 408.076562 L 800.507812 404.795312 L 803.90625 401.63125 L 807.34375 398.584375 L 810.742188 395.69375 L 814.179688 392.88125 L 817.617188 390.225 L 821.015625 387.646875 L 824.453125 385.225 L 827.851562 382.88125 L 831.289062 380.654687 L 834.726562 378.545312 L 838.125 376.553125 L 841.5625 374.639062 L 844.960938 372.842187 L 848.398438 371.1625 L 851.835938 369.521875 L 855.234375 368.0375 L 858.671875 366.592187 L 862.109375 365.264062 L 865.507812 364.014062 L 868.945312 362.842187 L 872.34375 361.748437 L 875.78125 360.771875 L 879.179688 359.834375 L 882.617188 358.975 L 886.054688 358.19375 L 889.453125 357.490625 L 892.890625 356.865625 L 896.328125 356.279687 L 899.726562 355.771875 L 903.164062 355.303125 L 906.5625 354.9125 L 913.4375 354.2875 L 916.835938 354.053125 L 920.273438 353.896875 L 923.671875 353.740625 L 927.109375 353.6625 L 930.546875 353.623437 L 933.945312 353.584375 L 937.382812 353.623437 L 940.78125 353.701562 L 944.21875 353.779687 L 947.65625 353.935937 L 951.054688 354.053125 L 954.492188 354.248437 L 957.890625 354.44375 L 964.765625 354.9125 L 968.164062 355.185937 L 971.601562 355.459375 L 975 355.732812 L 981.875 356.357812 L 985.273438 356.670312 L 988.710938 356.982812 L 992.109375 357.25625 L 998.984375 357.88125 L 1002.382812 358.19375 L 1005.820312 358.467187 L 1009.21875 358.740625 L 1012.65625 359.014062 L 1016.09375 359.248437 L 1019.492188 359.482812 L 1026.367188 359.873437 L 1029.765625 360.029687 L 1033.203125 360.146875 L 1036.601562 360.264062 L 1040.039062 360.342187 L 1043.476562 360.38125 L 1046.875 360.459375 L 1050.3125 360.967187 L 1053.710938 361.94375 L 1057.148438 363.35 L 1060.585938 365.146875 L 1063.984375 367.334375 L 1067.421875 369.873437 L 1070.820312 372.764062 L 1074.257812 375.928125 L 1077.695312 379.404687 L 1081.09375 383.154687 L 1084.53125 387.1 L 1087.929688 391.31875 L 1091.367188 395.69375 L 1094.804688 400.264062 L 1098.203125 404.990625 L 1101.640625 409.834375 L 1105.039062 414.75625 L 1108.476562 419.795312 L 1111.914062 424.873437 L 1115.3125 429.990625 L 1118.75 435.107812 L 1122.148438 440.264062 L 1125.585938 445.342187 L 1129.023438 450.38125 L 1132.421875 455.303125 L 1135.859375 460.185937 L 1139.257812 464.873437 L 1142.695312 469.482812 L 1146.132812 473.857812 L 1149.53125 478.076562 L 1152.96875 482.060937 L 1156.367188 485.85 L 1159.804688 489.326562 L 1163.242188 492.529687 L 1166.640625 495.420312 L 1170.078125 497.998437 L 1173.476562 500.185937 L 1176.914062 502.021875 L 1180.351562 503.467187 L 1183.75 504.482812 L 1187.1875 505.029687 L 1190.625 505.06875 L 1194.023438 503.896875 L 1197.460938 501.31875 L 1200.859375 497.451562 L 1204.296875 492.295312 L 1207.695312 486.045312 L 1211.132812 478.6625 L 1214.570312 470.303125 L 1217.96875 461.00625 L 1221.40625 450.85 L 1224.804688 439.9125 L 1228.242188 428.310937 L 1231.679688 416.084375 L 1235.078125 403.310937 L 1238.515625 390.107812 L 1241.914062 376.475 L 1245.351562 362.56875 L 1248.789062 348.428125 L 1252.1875 334.13125 L 1255.625 319.75625 L 1259.023438 305.420312 L 1262.460938 291.1625 L 1265.898438 277.021875 L 1269.296875 263.154687 L 1272.734375 249.6 L 1276.171875 236.435937 L 1279.570312 223.740625 L 1283.007812 211.63125 L 1286.40625 200.107812 L 1289.84375 189.2875 L 1293.28125 179.2875 L 1296.679688 170.107812 L 1300.117188 161.904687 L 1303.515625 154.678125 L 1306.953125 148.584375 L 1310.390625 143.6625 L 1313.789062 139.951562 L 1317.226562 137.607812 L 1320.625 136.63125 L 1324.0625 137.1 L 1327.460938 138.81875 L 1330.898438 141.748437 L 1334.335938 145.810937 L 1337.734375 150.967187 L 1341.171875 157.1 L 1344.609375 164.170312 L 1348.007812 172.1 L 1351.445312 180.810937 L 1354.84375 190.264062 L 1358.28125 200.342187 L 1361.71875 211.045312 L 1365.117188 222.217187 L 1368.554688 233.857812 L 1371.953125 245.85 L 1375.390625 258.154687 L 1378.828125 270.69375 L 1382.226562 283.389062 L 1385.664062 296.201562 L 1389.0625 309.014062 L 1392.5 321.826562 L 1395.9375 334.482812 L 1399.335938 346.982812 L 1402.773438 359.209375 L 1406.171875 371.1625 L 1409.609375 382.685937 L 1413.046875 393.740625 L 1416.445312 404.2875 L 1419.882812 414.248437 L 1423.28125 423.50625 L 1426.71875 432.060937 L 1430.15625 439.795312 L 1433.554688 446.670312 L 1436.992188 452.56875 L 1440.390625 457.490625 L 1443.828125 461.31875 L 1447.265625 463.975 L 1450.664062 465.420312 L 1454.101562 465.615625 L 1457.539062 464.9125 L 1460.9375 463.467187 L 1464.375 461.357812 L 1467.773438 458.545312 L 1471.210938 455.146875 L 1474.648438 451.1625 L 1478.046875 446.63125 L 1481.484375 441.592187 L 1484.882812 436.123437 L 1488.320312 430.264062 L 1491.757812 424.014062 L 1495.15625 417.451562 L 1498.59375 410.576562 L 1501.992188 403.467187 L 1505.429688 396.1625 L 1508.867188 388.701562 L 1512.265625 381.123437 L 1515.703125 373.467187 L 1519.101562 365.771875 L 1522.539062 358.076562 L 1525.976562 350.420312 L 1529.375 342.88125 L 1532.8125 335.459375 L 1536.210938 328.232812 L 1539.648438 321.1625 L 1543.085938 314.404687 L 1546.484375 307.920312 L 1549.921875 301.7875 L 1553.359375 296.045312 L 1556.757812 290.69375 L 1560.195312 285.810937 L 1563.59375 281.475 L 1567.03125 277.646875 L 1570.46875 274.404687 L 1573.867188 271.826562 L 1577.304688 269.9125 L 1580.703125 268.701562 L 1584.140625 268.232812 L 1587.578125 268.584375 L 1590.976562 269.75625 L 1594.414062 271.709375 L 1597.8125 274.365625 L 1601.25 277.685937 L 1604.6875 281.670312 L 1608.085938 286.240625 L 1611.523438 291.357812 L 1614.921875 296.982812 L 1618.359375 303.0375 L 1621.796875 309.560937 L 1625.195312 316.396875 L 1628.632812 323.584375 L 1632.03125 331.045312 L 1635.46875 338.740625 L 1638.90625 346.63125 L 1642.304688 354.678125 L 1645.742188 362.803125 L 1649.140625 371.00625 L 1652.578125 379.209375 L 1656.015625 387.373437 L 1659.414062 395.498437 L 1662.851562 403.467187 L 1666.289062 411.31875 L 1669.6875 418.896875 L 1673.125 426.279687 L 1676.523438 433.35 L 1679.960938 440.06875 L 1683.398438 446.396875 L 1686.796875 452.295312 L 1690.234375 457.725 L 1693.632812 462.646875 L 1697.070312 466.982812 L 1700.507812 470.732812 L 1703.90625 473.81875 L 1707.34375 476.201562 L 1710.742188 477.842187 L 1714.179688 478.701562 L 1717.617188 478.81875 L 1721.015625 478.623437 L 1724.453125 478.232812 L 1727.851562 477.685937 L 1731.289062 476.94375 L 1734.726562 476.045312 L 1738.125 474.990625 L 1741.5625 473.740625 L 1744.960938 472.373437 L 1748.398438 470.85 L 1751.835938 469.170312 L 1755.234375 467.373437 L 1758.671875 465.420312 L 1762.109375 463.35 L 1765.507812 461.1625 L 1768.945312 458.857812 L 1772.34375 456.435937 L 1775.78125 453.896875 L 1779.21875 451.279687 L 1782.617188 448.584375 L 1786.054688 445.771875 L 1789.453125 442.88125 L 1792.890625 439.9125 L 1796.289062 436.904687 L 1799.726562 433.81875 L 1803.164062 430.654687 L 1806.5625 427.451562 L 1810 424.170312 L 1813.398438 420.889062 L 1820.273438 414.170312 L 1827.109375 407.334375 L 1830.507812 403.896875 L 1837.382812 397.021875 L 1840.78125 393.545312 L 1847.65625 386.670312 "
           transform="matrix(0.1, 0, 0, -0.1, 0, 119.46)"
           id="path218" />
      </g>
    </g>
  </g>
  <g
     clip-path="url(#clip-105)"
     id="g223">
    <g
       clip-path="url(#clip-106)"
       id="g222">
      <path
         fill="none"
         stroke-width="5"
         stroke-linecap="round"
         stroke-linejoin="round"
         stroke="rgb(0%, 0%, 0%)"
         stroke-opacity="1"
         stroke-miterlimit="10"
         d="M 149.101562 873.6625 C 149.101562 880.576562 143.515625 886.1625 136.601562 886.1625 C 129.726562 886.1625 124.101562 880.576562 124.101562 873.6625 C 124.101562 866.748437 129.726562 861.1625 136.601562 861.1625 C 143.515625 861.1625 149.101562 866.748437 149.101562 873.6625 Z M 149.101562 873.6625 "
         transform="matrix(0.1, 0, 0, -0.1, 0, 119.46)"
         id="path221" />
    </g>
  </g>
  <path
     fill="none"
     stroke-width="5"
     stroke-linecap="round"
     stroke-linejoin="round"
     stroke="rgb(0%, 0%, 0%)"
     stroke-opacity="1"
     stroke-miterlimit="10"
     d="M 1860.15625 386.670312 C 1860.15625 393.584375 1854.53125 399.170312 1847.65625 399.170312 C 1840.742188 399.170312 1835.15625 393.584375 1835.15625 386.670312 C 1835.15625 379.795312 1840.742188 374.170312 1847.65625 374.170312 C 1854.53125 374.170312 1860.15625 379.795312 1860.15625 386.670312 Z M 1860.15625 386.670312 "
     transform="matrix(0.1, 0, 0, -0.1, 0, 119.46)"
     id="path223" />
  <path
     fill-rule="nonzero"
     fill="rgb(100%, 100%, 100%)"
     fill-opacity="1"
     d="M 35.808594 100.109375 L 86.28125 100.109375 L 86.28125 85.164062 L 35.808594 85.164062 L 35.808594 100.109375 "
     id="path224" />
  <path
     fill-rule="nonzero"
     fill="rgb(100%, 100%, 100%)"
     fill-opacity="1"
     d="M 140.855469 65.949219 L 149.699219 65.949219 L 149.699219 55.253906 L 140.855469 55.253906 L 140.855469 65.949219 "
     id="path225" />
  <path
     fill-rule="nonzero"
     fill="rgb(100%, 100%, 100%)"
     fill-opacity="1"
     d="M 121.171875 45.335938 L 130.015625 45.335938 L 130.015625 34.640625 L 121.171875 34.640625 L 121.171875 45.335938 "
     id="path226" />
  <path
     fill-rule="nonzero"
     fill="rgb(100%, 100%, 100%)"
     fill-opacity="1"
     d="M 186.949219 64.472656 L 196.589844 64.472656 L 196.589844 56.332031 L 186.949219 56.332031 L 186.949219 64.472656 "
     id="path227" />
  <path
     fill-rule="nonzero"
     fill="rgb(100%, 100%, 100%)"
     fill-opacity="1"
     d="M 135.296875 12.207031 L 144.425781 12.207031 L 144.425781 1.746094 L 135.296875 1.746094 L 135.296875 12.207031 "
     id="path228" />
  <g
     fill="rgb(0%, 0%, 0%)"
     fill-opacity="1"
     id="g228">
    <use
       xlink:href="#glyph-0-0"
       x="37.307"
       y="95.625"
       id="use228" />
  </g>
  <g
     fill="rgb(0%, 0%, 0%)"
     fill-opacity="1"
     id="g229">
    <use
       xlink:href="#glyph-1-0"
       x="46.768345"
       y="95.625"
       id="use229" />
  </g>
  <g
     fill="rgb(0%, 0%, 0%)"
     fill-opacity="1"
     id="g230">
    <use
       xlink:href="#glyph-0-1"
       x="59.185016"
       y="95.625"
       id="use230" />
  </g>
  <g
     fill="rgb(0%, 0%, 0%)"
     fill-opacity="1"
     id="g231">
    <use
       xlink:href="#glyph-2-0"
       x="66.237"
       y="91.287"
       id="use231" />
  </g>
  <g
     fill="rgb(0%, 0%, 0%)"
     fill-opacity="1"
     id="g232">
    <use
       xlink:href="#glyph-1-1"
       x="69.032"
       y="95.625"
       id="use232" />
  </g>
  <g
     fill="rgb(0%, 0%, 0%)"
     fill-opacity="1"
     id="g233">
    <use
       xlink:href="#glyph-0-2"
       x="73.58454"
       y="95.625"
       id="use233" />
  </g>
  <g
     fill="rgb(0%, 0%, 0%)"
     fill-opacity="1"
     id="g234">
    <use
       xlink:href="#glyph-1-2"
       x="80.236413"
       y="95.625"
       id="use234" />
  </g>
  <g
     fill="rgb(0%, 0%, 0%)"
     fill-opacity="1"
     id="g235">
    <use
       xlink:href="#glyph-1-3"
       x="122.671"
       y="64.453"
       id="use235" />
  </g>
  <g
     fill="rgb(0%, 0%, 0%)"
     fill-opacity="1"
     id="g236">
    <use
       xlink:href="#glyph-1-4"
       x="142.356"
       y="64.453"
       id="use236" />
  </g>
  <g
     fill="rgb(0%, 0%, 0%)"
     fill-opacity="1"
     id="g237">
    <use
       xlink:href="#glyph-1-4"
       x="122.671"
       y="43.842"
       id="use237" />
  </g>
  <g
     fill="rgb(0%, 0%, 0%)"
     fill-opacity="1"
     id="g238">
    <use
       xlink:href="#glyph-0-2"
       x="188.448"
       y="62.975"
       id="use238" />
  </g>
  <g
     fill="rgb(0%, 0%, 0%)"
     fill-opacity="1"
     id="g239">
    <use
       xlink:href="#glyph-0-0"
       x="136.798"
       y="8.387"
       id="use239" />
  </g>
</svg>
