<?xml version="1.0" encoding="UTF-8" standalone="no"?>
<svg
   width="340.157pt"
   height="155.162pt"
   viewBox="0 0 340.157 155.162"
   version="1.1"
   id="svg87"
   sodipodi:docname="derivatives-55.pdf"
   xmlns:inkscape="http://www.inkscape.org/namespaces/inkscape"
   xmlns:sodipodi="http://sodipodi.sourceforge.net/DTD/sodipodi-0.dtd"
   xmlns:xlink="http://www.w3.org/1999/xlink"
   xmlns="http://www.w3.org/2000/svg"
   xmlns:svg="http://www.w3.org/2000/svg">
  <sodipodi:namedview
     id="namedview87"
     pagecolor="#ffffff"
     bordercolor="#000000"
     borderopacity="0.25"
     inkscape:showpageshadow="2"
     inkscape:pageopacity="0.0"
     inkscape:pagecheckerboard="0"
     inkscape:deskcolor="#d1d1d1"
     inkscape:document-units="pt" />
  <defs
     id="defs22">
    <g
       id="g17">
      <g
         id="glyph-0-0">
        <path
           d="M 5.671875 -4.875 C 5.28125 -4.8125 5.140625 -4.515625 5.140625 -4.296875 C 5.140625 -4 5.359375 -3.90625 5.53125 -3.90625 C 5.890625 -3.90625 6.140625 -4.21875 6.140625 -4.546875 C 6.140625 -5.046875 5.5625 -5.265625 5.0625 -5.265625 C 4.34375 -5.265625 3.9375 -4.546875 3.828125 -4.328125 C 3.546875 -5.21875 2.8125 -5.265625 2.59375 -5.265625 C 1.375 -5.265625 0.734375 -3.703125 0.734375 -3.4375 C 0.734375 -3.390625 0.78125 -3.328125 0.859375 -3.328125 C 0.953125 -3.328125 0.984375 -3.40625 1 -3.453125 C 1.40625 -4.78125 2.21875 -5.03125 2.5625 -5.03125 C 3.09375 -5.03125 3.203125 -4.53125 3.203125 -4.25 C 3.203125 -3.984375 3.125 -3.703125 2.984375 -3.125 L 2.578125 -1.5 C 2.40625 -0.78125 2.0625 -0.125 1.421875 -0.125 C 1.359375 -0.125 1.0625 -0.125 0.8125 -0.28125 C 1.25 -0.359375 1.34375 -0.71875 1.34375 -0.859375 C 1.34375 -1.09375 1.15625 -1.25 0.9375 -1.25 C 0.640625 -1.25 0.328125 -0.984375 0.328125 -0.609375 C 0.328125 -0.109375 0.890625 0.125 1.40625 0.125 C 1.984375 0.125 2.390625 -0.328125 2.640625 -0.828125 C 2.828125 -0.125 3.4375 0.125 3.875 0.125 C 5.09375 0.125 5.734375 -1.453125 5.734375 -1.703125 C 5.734375 -1.765625 5.6875 -1.8125 5.625 -1.8125 C 5.515625 -1.8125 5.5 -1.75 5.46875 -1.65625 C 5.140625 -0.609375 4.453125 -0.125 3.90625 -0.125 C 3.484375 -0.125 3.265625 -0.4375 3.265625 -0.921875 C 3.265625 -1.1875 3.3125 -1.375 3.5 -2.15625 L 3.921875 -3.796875 C 4.09375 -4.5 4.5 -5.03125 5.0625 -5.03125 C 5.078125 -5.03125 5.421875 -5.03125 5.671875 -4.875 Z M 5.671875 -4.875 "
           id="path1" />
      </g>
      <g
         id="glyph-0-1">
        <path
           d="M 3.140625 1.34375 C 2.828125 1.796875 2.359375 2.203125 1.765625 2.203125 C 1.625 2.203125 1.046875 2.171875 0.875 1.625 C 0.90625 1.640625 0.96875 1.640625 0.984375 1.640625 C 1.34375 1.640625 1.59375 1.328125 1.59375 1.046875 C 1.59375 0.78125 1.359375 0.6875 1.1875 0.6875 C 0.984375 0.6875 0.578125 0.828125 0.578125 1.40625 C 0.578125 2.015625 1.09375 2.4375 1.765625 2.4375 C 2.96875 2.4375 4.171875 1.34375 4.5 0.015625 L 5.671875 -4.65625 C 5.6875 -4.703125 5.71875 -4.78125 5.71875 -4.859375 C 5.71875 -5.03125 5.5625 -5.15625 5.390625 -5.15625 C 5.28125 -5.15625 5.03125 -5.109375 4.9375 -4.75 L 4.046875 -1.234375 C 4 -1.015625 4 -0.984375 3.890625 -0.859375 C 3.65625 -0.53125 3.265625 -0.125 2.6875 -0.125 C 2.015625 -0.125 1.953125 -0.78125 1.953125 -1.09375 C 1.953125 -1.78125 2.28125 -2.703125 2.609375 -3.5625 C 2.734375 -3.90625 2.8125 -4.078125 2.8125 -4.3125 C 2.8125 -4.8125 2.453125 -5.265625 1.859375 -5.265625 C 0.765625 -5.265625 0.328125 -3.53125 0.328125 -3.4375 C 0.328125 -3.390625 0.375 -3.328125 0.453125 -3.328125 C 0.5625 -3.328125 0.578125 -3.375 0.625 -3.546875 C 0.90625 -4.546875 1.359375 -5.03125 1.828125 -5.03125 C 1.9375 -5.03125 2.140625 -5.03125 2.140625 -4.640625 C 2.140625 -4.328125 2.015625 -3.984375 1.828125 -3.53125 C 1.25 -1.953125 1.25 -1.5625 1.25 -1.28125 C 1.25 -0.140625 2.0625 0.125 2.65625 0.125 C 3 0.125 3.4375 0.015625 3.84375 -0.4375 L 3.859375 -0.421875 C 3.6875 0.28125 3.5625 0.75 3.140625 1.34375 Z M 3.140625 1.34375 "
           id="path2" />
      </g>
      <g
         id="glyph-0-2">
        <path
           d="M 5.328125 -4.8125 C 5.5625 -4.8125 5.671875 -4.8125 5.671875 -5.03125 C 5.671875 -5.15625 5.5625 -5.15625 5.359375 -5.15625 L 4.390625 -5.15625 C 4.609375 -6.390625 4.78125 -7.234375 4.875 -7.609375 C 4.953125 -7.90625 5.203125 -8.171875 5.515625 -8.171875 C 5.765625 -8.171875 6.015625 -8.0625 6.125 -7.953125 C 5.671875 -7.90625 5.515625 -7.5625 5.515625 -7.359375 C 5.515625 -7.125 5.703125 -6.984375 5.921875 -6.984375 C 6.171875 -6.984375 6.53125 -7.1875 6.53125 -7.640625 C 6.53125 -8.140625 6.03125 -8.421875 5.5 -8.421875 C 4.984375 -8.421875 4.484375 -8.03125 4.25 -7.5625 C 4.03125 -7.140625 3.90625 -6.71875 3.640625 -5.15625 L 2.828125 -5.15625 C 2.609375 -5.15625 2.484375 -5.15625 2.484375 -4.9375 C 2.484375 -4.8125 2.5625 -4.8125 2.796875 -4.8125 L 3.5625 -4.8125 C 3.34375 -3.6875 2.859375 -0.984375 2.578125 0.28125 C 2.375 1.328125 2.203125 2.203125 1.609375 2.203125 C 1.5625 2.203125 1.21875 2.203125 1 1.96875 C 1.609375 1.921875 1.609375 1.40625 1.609375 1.390625 C 1.609375 1.140625 1.4375 1 1.203125 1 C 0.96875 1 0.609375 1.203125 0.609375 1.65625 C 0.609375 2.171875 1.140625 2.4375 1.609375 2.4375 C 2.828125 2.4375 3.328125 0.25 3.453125 -0.34375 C 3.671875 -1.265625 4.25 -4.453125 4.3125 -4.8125 Z M 5.328125 -4.8125 "
           id="path3" />
      </g>
      <g
         id="glyph-1-0">
        <path
           d="M 2.5 -5.078125 C 2.5 -5.296875 2.484375 -5.296875 2.265625 -5.296875 C 1.9375 -4.984375 1.515625 -4.796875 0.765625 -4.796875 L 0.765625 -4.53125 C 0.984375 -4.53125 1.40625 -4.53125 1.875 -4.734375 L 1.875 -0.65625 C 1.875 -0.359375 1.84375 -0.265625 1.09375 -0.265625 L 0.8125 -0.265625 L 0.8125 0 C 1.140625 -0.03125 1.828125 -0.03125 2.1875 -0.03125 C 2.546875 -0.03125 3.234375 -0.03125 3.5625 0 L 3.5625 -0.265625 L 3.28125 -0.265625 C 2.53125 -0.265625 2.5 -0.359375 2.5 -0.65625 Z M 2.5 -5.078125 "
           id="path4" />
      </g>
      <g
         id="glyph-1-1">
        <path
           d="M 2.25 -1.625 C 2.375 -1.75 2.703125 -2.015625 2.84375 -2.125 C 3.328125 -2.578125 3.796875 -3.015625 3.796875 -3.734375 C 3.796875 -4.6875 3 -5.296875 2.015625 -5.296875 C 1.046875 -5.296875 0.421875 -4.578125 0.421875 -3.859375 C 0.421875 -3.46875 0.734375 -3.421875 0.84375 -3.421875 C 1.015625 -3.421875 1.265625 -3.53125 1.265625 -3.84375 C 1.265625 -4.25 0.859375 -4.25 0.765625 -4.25 C 1 -4.84375 1.53125 -5.03125 1.921875 -5.03125 C 2.65625 -5.03125 3.046875 -4.40625 3.046875 -3.734375 C 3.046875 -2.90625 2.46875 -2.296875 1.515625 -1.34375 L 0.515625 -0.296875 C 0.421875 -0.21875 0.421875 -0.203125 0.421875 0 L 3.5625 0 L 3.796875 -1.421875 L 3.546875 -1.421875 C 3.53125 -1.265625 3.46875 -0.875 3.375 -0.71875 C 3.328125 -0.65625 2.71875 -0.65625 2.59375 -0.65625 L 1.171875 -0.65625 Z M 2.25 -1.625 "
           id="path5" />
      </g>
      <g
         id="glyph-1-2">
        <path
           d="M 2.015625 -2.65625 C 2.640625 -2.65625 3.046875 -2.203125 3.046875 -1.359375 C 3.046875 -0.359375 2.484375 -0.078125 2.0625 -0.078125 C 1.625 -0.078125 1.015625 -0.234375 0.734375 -0.65625 C 1.03125 -0.65625 1.234375 -0.84375 1.234375 -1.09375 C 1.234375 -1.359375 1.046875 -1.53125 0.78125 -1.53125 C 0.578125 -1.53125 0.34375 -1.40625 0.34375 -1.078125 C 0.34375 -0.328125 1.15625 0.171875 2.078125 0.171875 C 3.125 0.171875 3.875 -0.5625 3.875 -1.359375 C 3.875 -2.03125 3.34375 -2.625 2.53125 -2.8125 C 3.15625 -3.03125 3.640625 -3.5625 3.640625 -4.203125 C 3.640625 -4.84375 2.921875 -5.296875 2.09375 -5.296875 C 1.234375 -5.296875 0.59375 -4.84375 0.59375 -4.234375 C 0.59375 -3.9375 0.78125 -3.8125 1 -3.8125 C 1.25 -3.8125 1.40625 -3.984375 1.40625 -4.21875 C 1.40625 -4.515625 1.140625 -4.625 0.96875 -4.625 C 1.3125 -5.0625 1.921875 -5.09375 2.0625 -5.09375 C 2.265625 -5.09375 2.875 -5.03125 2.875 -4.203125 C 2.875 -3.65625 2.640625 -3.3125 2.53125 -3.1875 C 2.296875 -2.9375 2.109375 -2.921875 1.625 -2.890625 C 1.46875 -2.890625 1.40625 -2.875 1.40625 -2.765625 C 1.40625 -2.65625 1.484375 -2.65625 1.625 -2.65625 Z M 2.015625 -2.65625 "
           id="path6" />
      </g>
      <g
         id="glyph-1-3">
        <path
           d="M 3.140625 -5.15625 C 3.140625 -5.3125 3.140625 -5.375 2.96875 -5.375 C 2.875 -5.375 2.859375 -5.375 2.78125 -5.265625 L 0.234375 -1.5625 L 0.234375 -1.3125 L 2.484375 -1.3125 L 2.484375 -0.640625 C 2.484375 -0.34375 2.46875 -0.265625 1.84375 -0.265625 L 1.671875 -0.265625 L 1.671875 0 C 2.34375 -0.03125 2.359375 -0.03125 2.8125 -0.03125 C 3.265625 -0.03125 3.28125 -0.03125 3.953125 0 L 3.953125 -0.265625 L 3.78125 -0.265625 C 3.15625 -0.265625 3.140625 -0.34375 3.140625 -0.640625 L 3.140625 -1.3125 L 3.984375 -1.3125 L 3.984375 -1.5625 L 3.140625 -1.5625 Z M 2.546875 -4.515625 L 2.546875 -1.5625 L 0.515625 -1.5625 Z M 2.546875 -4.515625 "
           id="path7" />
      </g>
      <g
         id="glyph-1-4">
        <path
           d="M 1.109375 -4.484375 C 1.21875 -4.453125 1.53125 -4.359375 1.875 -4.359375 C 2.875 -4.359375 3.46875 -5.0625 3.46875 -5.1875 C 3.46875 -5.28125 3.421875 -5.296875 3.375 -5.296875 C 3.359375 -5.296875 3.34375 -5.296875 3.28125 -5.265625 C 2.96875 -5.140625 2.59375 -5.046875 2.171875 -5.046875 C 1.703125 -5.046875 1.3125 -5.15625 1.0625 -5.265625 C 0.984375 -5.296875 0.96875 -5.296875 0.953125 -5.296875 C 0.859375 -5.296875 0.859375 -5.21875 0.859375 -5.0625 L 0.859375 -2.734375 C 0.859375 -2.59375 0.859375 -2.5 0.984375 -2.5 C 1.046875 -2.5 1.0625 -2.53125 1.109375 -2.59375 C 1.203125 -2.703125 1.5 -3.109375 2.1875 -3.109375 C 2.625 -3.109375 2.84375 -2.75 2.921875 -2.59375 C 3.046875 -2.3125 3.0625 -1.9375 3.0625 -1.640625 C 3.0625 -1.34375 3.0625 -0.90625 2.84375 -0.5625 C 2.6875 -0.3125 2.359375 -0.078125 1.9375 -0.078125 C 1.421875 -0.078125 0.921875 -0.390625 0.734375 -0.921875 C 0.75 -0.90625 0.8125 -0.90625 0.8125 -0.90625 C 1.03125 -0.90625 1.21875 -1.046875 1.21875 -1.296875 C 1.21875 -1.59375 0.984375 -1.703125 0.828125 -1.703125 C 0.671875 -1.703125 0.421875 -1.625 0.421875 -1.28125 C 0.421875 -0.5625 1.046875 0.171875 1.953125 0.171875 C 2.953125 0.171875 3.796875 -0.609375 3.796875 -1.59375 C 3.796875 -2.515625 3.125 -3.34375 2.1875 -3.34375 C 1.796875 -3.34375 1.421875 -3.21875 1.109375 -2.9375 Z M 1.109375 -4.484375 "
           id="path8" />
      </g>
      <g
         id="glyph-1-5">
        <path
           d="M 1.09375 -2.640625 C 1.09375 -3.296875 1.15625 -3.875 1.4375 -4.359375 C 1.6875 -4.765625 2.09375 -5.09375 2.59375 -5.09375 C 2.75 -5.09375 3.109375 -5.0625 3.296875 -4.796875 C 2.9375 -4.765625 2.90625 -4.5 2.90625 -4.421875 C 2.90625 -4.171875 3.09375 -4.046875 3.28125 -4.046875 C 3.421875 -4.046875 3.65625 -4.125 3.65625 -4.4375 C 3.65625 -4.90625 3.296875 -5.296875 2.578125 -5.296875 C 1.46875 -5.296875 0.34375 -4.25 0.34375 -2.53125 C 0.34375 -0.359375 1.359375 0.171875 2.125 0.171875 C 2.515625 0.171875 2.921875 0.0625 3.28125 -0.28125 C 3.609375 -0.59375 3.875 -0.921875 3.875 -1.625 C 3.875 -2.65625 3.078125 -3.390625 2.203125 -3.390625 C 1.625 -3.390625 1.28125 -3.03125 1.09375 -2.640625 Z M 2.125 -0.078125 C 1.703125 -0.078125 1.4375 -0.359375 1.328125 -0.59375 C 1.140625 -0.953125 1.125 -1.484375 1.125 -1.796875 C 1.125 -2.578125 1.546875 -3.171875 2.171875 -3.171875 C 2.5625 -3.171875 2.8125 -2.96875 2.953125 -2.6875 C 3.125 -2.390625 3.125 -2.03125 3.125 -1.625 C 3.125 -1.21875 3.125 -0.875 2.96875 -0.578125 C 2.75 -0.21875 2.484375 -0.078125 2.125 -0.078125 Z M 2.125 -0.078125 "
           id="path9" />
      </g>
      <g
         id="glyph-1-6">
        <path
           d="M 4.03125 -4.859375 C 4.109375 -4.9375 4.109375 -4.953125 4.109375 -5.125 L 2.078125 -5.125 C 1.875 -5.125 1.640625 -5.140625 1.4375 -5.15625 C 1.015625 -5.1875 1.015625 -5.265625 0.984375 -5.390625 L 0.734375 -5.390625 L 0.46875 -3.703125 L 0.71875 -3.703125 C 0.734375 -3.828125 0.828125 -4.375 0.9375 -4.4375 C 1.015625 -4.484375 1.625 -4.484375 1.734375 -4.484375 L 3.421875 -4.484375 L 2.609375 -3.375 C 1.703125 -2.171875 1.5 -0.90625 1.5 -0.28125 C 1.5 -0.203125 1.5 0.171875 1.875 0.171875 C 2.25 0.171875 2.25 -0.1875 2.25 -0.28125 L 2.25 -0.671875 C 2.25 -1.8125 2.453125 -2.75 2.84375 -3.28125 Z M 4.03125 -4.859375 "
           id="path10" />
      </g>
      <g
         id="glyph-1-7">
        <path
           d="M 2.640625 -2.875 C 3.09375 -3.09375 3.640625 -3.484375 3.640625 -4.109375 C 3.640625 -4.875 2.859375 -5.296875 2.125 -5.296875 C 1.28125 -5.296875 0.59375 -4.71875 0.59375 -3.96875 C 0.59375 -3.671875 0.6875 -3.40625 0.890625 -3.171875 C 1.03125 -3 1.0625 -2.984375 1.546875 -2.671875 C 0.5625 -2.234375 0.34375 -1.65625 0.34375 -1.21875 C 0.34375 -0.328125 1.234375 0.171875 2.109375 0.171875 C 3.078125 0.171875 3.875 -0.5 3.875 -1.34375 C 3.875 -1.84375 3.609375 -2.171875 3.46875 -2.3125 C 3.34375 -2.4375 3.328125 -2.453125 2.640625 -2.875 Z M 1.40625 -3.625 C 1.171875 -3.765625 0.984375 -4 0.984375 -4.265625 C 0.984375 -4.765625 1.53125 -5.09375 2.109375 -5.09375 C 2.71875 -5.09375 3.234375 -4.671875 3.234375 -4.109375 C 3.234375 -3.65625 2.875 -3.265625 2.40625 -3.03125 Z M 1.796875 -2.53125 C 1.828125 -2.515625 2.734375 -1.953125 2.875 -1.875 C 3 -1.796875 3.421875 -1.546875 3.421875 -1.0625 C 3.421875 -0.453125 2.765625 -0.078125 2.125 -0.078125 C 1.40625 -0.078125 0.8125 -0.5625 0.8125 -1.21875 C 0.8125 -1.8125 1.25 -2.28125 1.796875 -2.53125 Z M 1.796875 -2.53125 "
           id="path11" />
      </g>
      <g
         id="glyph-1-8">
        <path
           d="M 3.125 -2.34375 C 3.125 -0.40625 2.203125 -0.078125 1.734375 -0.078125 C 1.5625 -0.078125 1.15625 -0.09375 0.9375 -0.34375 C 1.296875 -0.375 1.3125 -0.640625 1.3125 -0.71875 C 1.3125 -0.953125 1.125 -1.09375 0.9375 -1.09375 C 0.796875 -1.09375 0.5625 -1 0.5625 -0.703125 C 0.5625 -0.15625 1.015625 0.171875 1.75 0.171875 C 2.84375 0.171875 3.875 -0.921875 3.875 -2.625 C 3.875 -4.6875 2.953125 -5.296875 2.140625 -5.296875 C 1.1875 -5.296875 0.34375 -4.5625 0.34375 -3.515625 C 0.34375 -2.5 1.125 -1.75 2.03125 -1.75 C 2.59375 -1.75 2.9375 -2.109375 3.125 -2.515625 Z M 2.0625 -1.96875 C 1.6875 -1.96875 1.453125 -2.140625 1.28125 -2.4375 C 1.09375 -2.71875 1.09375 -3.109375 1.09375 -3.515625 C 1.09375 -3.984375 1.09375 -4.3125 1.3125 -4.640625 C 1.515625 -4.9375 1.765625 -5.09375 2.140625 -5.09375 C 2.671875 -5.09375 2.90625 -4.5625 2.9375 -4.53125 C 3.09375 -4.140625 3.109375 -3.515625 3.109375 -3.359375 C 3.109375 -2.71875 2.765625 -1.96875 2.0625 -1.96875 Z M 2.0625 -1.96875 "
           id="path12" />
      </g>
      <g
         id="glyph-2-0">
        <path
           d="M 8.0625 -3.875 C 8.234375 -3.875 8.453125 -3.875 8.453125 -4.09375 C 8.453125 -4.3125 8.25 -4.3125 8.0625 -4.3125 L 1.03125 -4.3125 C 0.859375 -4.3125 0.640625 -4.3125 0.640625 -4.09375 C 0.640625 -3.875 0.84375 -3.875 1.03125 -3.875 Z M 8.0625 -1.65625 C 8.234375 -1.65625 8.453125 -1.65625 8.453125 -1.859375 C 8.453125 -2.09375 8.25 -2.09375 8.0625 -2.09375 L 1.03125 -2.09375 C 0.859375 -2.09375 0.640625 -2.09375 0.640625 -1.875 C 0.640625 -1.65625 0.84375 -1.65625 1.03125 -1.65625 Z M 8.0625 -1.65625 "
           id="path13" />
      </g>
      <g
         id="glyph-2-1">
        <path
           d="M 3.890625 2.90625 C 3.890625 2.875 3.890625 2.84375 3.6875 2.640625 C 2.484375 1.4375 1.8125 -0.53125 1.8125 -2.96875 C 1.8125 -5.296875 2.375 -7.296875 3.765625 -8.703125 C 3.890625 -8.8125 3.890625 -8.828125 3.890625 -8.875 C 3.890625 -8.9375 3.828125 -8.96875 3.78125 -8.96875 C 3.625 -8.96875 2.640625 -8.109375 2.0625 -6.9375 C 1.453125 -5.71875 1.171875 -4.453125 1.171875 -2.96875 C 1.171875 -1.90625 1.34375 -0.484375 1.953125 0.78125 C 2.671875 2.21875 3.640625 3 3.78125 3 C 3.828125 3 3.890625 2.96875 3.890625 2.90625 Z M 3.890625 2.90625 "
           id="path14" />
      </g>
      <g
         id="glyph-2-2">
        <path
           d="M 3.375 -2.96875 C 3.375 -3.890625 3.25 -5.359375 2.578125 -6.75 C 1.875 -8.1875 0.890625 -8.96875 0.765625 -8.96875 C 0.71875 -8.96875 0.65625 -8.9375 0.65625 -8.875 C 0.65625 -8.828125 0.65625 -8.8125 0.859375 -8.609375 C 2.0625 -7.40625 2.71875 -5.421875 2.71875 -2.984375 C 2.71875 -0.671875 2.15625 1.328125 0.78125 2.734375 C 0.65625 2.84375 0.65625 2.875 0.65625 2.90625 C 0.65625 2.96875 0.71875 3 0.765625 3 C 0.921875 3 1.90625 2.140625 2.484375 0.96875 C 3.09375 -0.25 3.375 -1.546875 3.375 -2.96875 Z M 3.375 -2.96875 "
           id="path15" />
      </g>
      <g
         id="glyph-2-3">
        <path
           d="M 5.359375 -3.828125 C 5.359375 -4.8125 5.296875 -5.78125 4.859375 -6.6875 C 4.375 -7.6875 3.515625 -7.953125 2.921875 -7.953125 C 2.234375 -7.953125 1.390625 -7.609375 0.9375 -6.609375 C 0.609375 -5.859375 0.484375 -5.109375 0.484375 -3.828125 C 0.484375 -2.671875 0.578125 -1.796875 1 -0.9375 C 1.46875 -0.03125 2.296875 0.25 2.921875 0.25 C 3.953125 0.25 4.546875 -0.375 4.90625 -1.0625 C 5.328125 -1.953125 5.359375 -3.125 5.359375 -3.828125 Z M 2.921875 0.015625 C 2.53125 0.015625 1.75 -0.203125 1.53125 -1.5 C 1.40625 -2.21875 1.40625 -3.125 1.40625 -3.96875 C 1.40625 -4.953125 1.40625 -5.828125 1.59375 -6.53125 C 1.796875 -7.34375 2.40625 -7.703125 2.921875 -7.703125 C 3.375 -7.703125 4.0625 -7.4375 4.296875 -6.40625 C 4.453125 -5.71875 4.453125 -4.78125 4.453125 -3.96875 C 4.453125 -3.171875 4.453125 -2.265625 4.3125 -1.53125 C 4.09375 -0.21875 3.328125 0.015625 2.921875 0.015625 Z M 2.921875 0.015625 "
           id="path16" />
      </g>
      <g
         id="glyph-3-0">
        <path
           d="M 2.109375 -3.78125 C 2.15625 -3.875 2.1875 -3.9375 2.1875 -4.015625 C 2.1875 -4.28125 1.9375 -4.453125 1.71875 -4.453125 C 1.40625 -4.453125 1.3125 -4.171875 1.28125 -4.0625 L 0.265625 -0.625 C 0.234375 -0.53125 0.234375 -0.515625 0.234375 -0.5 C 0.234375 -0.4375 0.28125 -0.421875 0.359375 -0.390625 C 0.515625 -0.328125 0.53125 -0.328125 0.546875 -0.328125 C 0.5625 -0.328125 0.609375 -0.328125 0.671875 -0.46875 Z M 2.109375 -3.78125 "
           id="path17" />
      </g>
    </g>
    <clipPath
       id="clip-0">
      <path
         clip-rule="nonzero"
         d="M 332 90 L 340.15625 90 L 340.15625 96 L 332 96 Z M 332 90 "
         id="path18" />
    </clipPath>
    <clipPath
       id="clip-1">
      <path
         clip-rule="nonzero"
         d="M 0 92 L 340.15625 92 L 340.15625 94 L 0 94 Z M 0 92 "
         id="path19" />
    </clipPath>
    <clipPath
       id="clip-2">
      <path
         clip-rule="nonzero"
         d="M 123 7 L 125 7 L 125 155.160156 L 123 155.160156 Z M 123 7 "
         id="path20" />
    </clipPath>
    <clipPath
       id="clip-3">
      <path
         clip-rule="nonzero"
         d="M 123 0 L 125 0 L 125 155.160156 L 123 155.160156 Z M 123 0 "
         id="path21" />
    </clipPath>
    <clipPath
       id="clip-4">
      <path
         clip-rule="nonzero"
         d="M 0 18 L 340.15625 18 L 340.15625 155.160156 L 0 155.160156 Z M 0 18 "
         id="path22" />
    </clipPath>
  </defs>
  <path
     fill="none"
     stroke-width="8"
     stroke-linecap="round"
     stroke-linejoin="round"
     stroke="rgb(0%, 0%, 0%)"
     stroke-opacity="1"
     stroke-miterlimit="10"
     d="M 3326.5625 621.629063 L 5 621.629063 "
     transform="matrix(0.1, 0, 0, -0.1, 0, 155.159)"
     id="path23" />
  <path
     fill-rule="nonzero"
     fill="rgb(0%, 0%, 0%)"
     fill-opacity="1"
     d="M 339.65625 92.996094 L 332.65625 91.117188 L 332.65625 94.871094 Z M 339.65625 92.996094 "
     id="path24" />
  <g
     clip-path="url(#clip-0)"
     id="g25">
    <path
       fill="none"
       stroke-width="8"
       stroke-linecap="round"
       stroke-linejoin="round"
       stroke="rgb(0%, 0%, 0%)"
       stroke-opacity="1"
       stroke-miterlimit="10"
       d="M 3396.5625 621.629063 L 3326.5625 640.418125 L 3326.5625 602.879063 Z M 3396.5625 621.629063 "
       transform="matrix(0.1, 0, 0, -0.1, 0, 155.159)"
       id="path25" />
  </g>
  <g
     clip-path="url(#clip-1)"
     id="g26">
    <path
       fill="none"
       stroke-width="10"
       stroke-linecap="round"
       stroke-linejoin="round"
       stroke="rgb(0%, 0%, 0%)"
       stroke-opacity="1"
       stroke-miterlimit="10"
       d="M 5 621.629063 L 3396.5625 621.629063 "
       transform="matrix(0.1, 0, 0, -0.1, 0, 155.159)"
       id="path26" />
  </g>
  <g
     clip-path="url(#clip-2)"
     id="g27">
    <path
       fill="none"
       stroke-width="8"
       stroke-linecap="round"
       stroke-linejoin="round"
       stroke="rgb(0%, 0%, 0%)"
       stroke-opacity="1"
       stroke-miterlimit="10"
       d="M 1238.28125 1476.629063 L 1238.28125 4.988438 "
       transform="matrix(0.1, 0, 0, -0.1, 0, 155.159)"
       id="path27" />
  </g>
  <path
     fill-rule="nonzero"
     fill="rgb(0%, 0%, 0%)"
     fill-opacity="1"
     stroke-width="8"
     stroke-linecap="round"
     stroke-linejoin="round"
     stroke="rgb(0%, 0%, 0%)"
     stroke-opacity="1"
     stroke-miterlimit="10"
     d="M 1238.28125 1546.629063 L 1219.53125 1476.629063 L 1257.03125 1476.629063 Z M 1238.28125 1546.629063 "
     transform="matrix(0.1, 0, 0, -0.1, 0, 155.159)"
     id="path28" />
  <g
     clip-path="url(#clip-3)"
     id="g29">
    <path
       fill="none"
       stroke-width="10"
       stroke-linecap="round"
       stroke-linejoin="round"
       stroke="rgb(0%, 0%, 0%)"
       stroke-opacity="1"
       stroke-miterlimit="10"
       d="M 1238.28125 4.988438 L 1238.28125 1546.629063 "
       transform="matrix(0.1, 0, 0, -0.1, 0, 155.159)"
       id="path29" />
  </g>
  <path
     fill="none"
     stroke-width="5"
     stroke-linecap="round"
     stroke-linejoin="round"
     stroke="rgb(0%, 0%, 0%)"
     stroke-opacity="1"
     stroke-dasharray="40.5909 40.5909"
     stroke-miterlimit="10"
     d="M 344.140625 621.629063 L 344.140625 1068.1525 "
     transform="matrix(0.1, 0, 0, -0.1, 0, 155.159)"
     id="path30" />
  <path
     fill-rule="nonzero"
     fill="rgb(100%, 100%, 100%)"
     fill-opacity="1"
     d="M 27.226562 105.027344 L 41.601562 105.027344 L 41.601562 95.097656 L 27.226562 95.097656 L 27.226562 105.027344 "
     id="path31" />
  <path
     fill="none"
     stroke-width="30"
     stroke-linecap="round"
     stroke-linejoin="round"
     stroke="rgb(0%, 0%, 0%)"
     stroke-opacity="1"
     stroke-miterlimit="10"
     d="M 344.140625 621.629063 L 344.140625 621.629063 "
     transform="matrix(0.1, 0, 0, -0.1, 0, 155.159)"
     id="path32" />
  <path
     fill="none"
     stroke-width="5"
     stroke-linecap="round"
     stroke-linejoin="round"
     stroke="rgb(0%, 0%, 0%)"
     stroke-opacity="1"
     stroke-dasharray="40.2453 40.2453"
     stroke-miterlimit="10"
     d="M 560 621.629063 L 560 1144.832188 "
     transform="matrix(0.1, 0, 0, -0.1, 0, 155.159)"
     id="path33" />
  <path
     fill-rule="nonzero"
     fill="rgb(100%, 100%, 100%)"
     fill-opacity="1"
     d="M 48.8125 105.027344 L 63.1875 105.027344 L 63.1875 95.097656 L 48.8125 95.097656 L 48.8125 105.027344 "
     id="path34" />
  <path
     fill="none"
     stroke-width="30"
     stroke-linecap="round"
     stroke-linejoin="round"
     stroke="rgb(0%, 0%, 0%)"
     stroke-opacity="1"
     stroke-miterlimit="10"
     d="M 560 621.629063 L 560 621.629063 "
     transform="matrix(0.1, 0, 0, -0.1, 0, 155.159)"
     id="path35" />
  <path
     fill="none"
     stroke-width="5"
     stroke-linecap="round"
     stroke-linejoin="round"
     stroke="rgb(0%, 0%, 0%)"
     stroke-opacity="1"
     stroke-dasharray="32.8551 32.8551"
     stroke-miterlimit="10"
     d="M 806.640625 621.629063 L 806.640625 457.37125 "
     transform="matrix(0.1, 0, 0, -0.1, 0, 155.159)"
     id="path36" />
  <path
     fill-rule="nonzero"
     fill="rgb(100%, 100%, 100%)"
     fill-opacity="1"
     d="M 73.476562 90.890625 L 87.851562 90.890625 L 87.851562 80.960938 L 73.476562 80.960938 L 73.476562 90.890625 "
     id="path37" />
  <path
     fill="none"
     stroke-width="30"
     stroke-linecap="round"
     stroke-linejoin="round"
     stroke="rgb(0%, 0%, 0%)"
     stroke-opacity="1"
     stroke-miterlimit="10"
     d="M 806.640625 621.629063 L 806.640625 621.629063 "
     transform="matrix(0.1, 0, 0, -0.1, 0, 155.159)"
     id="path38" />
  <path
     fill="none"
     stroke-width="5"
     stroke-linecap="round"
     stroke-linejoin="round"
     stroke="rgb(0%, 0%, 0%)"
     stroke-opacity="1"
     stroke-dasharray="43.457 43.457"
     stroke-miterlimit="10"
     d="M 1022.460938 621.629063 L 1022.460938 1099.675938 "
     transform="matrix(0.1, 0, 0, -0.1, 0, 155.159)"
     id="path39" />
  <path
     fill-rule="nonzero"
     fill="rgb(100%, 100%, 100%)"
     fill-opacity="1"
     d="M 95.058594 105.027344 L 109.433594 105.027344 L 109.433594 95.097656 L 95.058594 95.097656 L 95.058594 105.027344 "
     id="path40" />
  <path
     fill="none"
     stroke-width="30"
     stroke-linecap="round"
     stroke-linejoin="round"
     stroke="rgb(0%, 0%, 0%)"
     stroke-opacity="1"
     stroke-miterlimit="10"
     d="M 1022.460938 621.629063 L 1022.460938 621.629063 "
     transform="matrix(0.1, 0, 0, -0.1, 0, 155.159)"
     id="path41" />
  <path
     fill="none"
     stroke-width="5"
     stroke-linecap="round"
     stroke-linejoin="round"
     stroke="rgb(0%, 0%, 0%)"
     stroke-opacity="1"
     stroke-dasharray="43.976 43.976"
     stroke-miterlimit="10"
     d="M 1454.140625 621.629063 L 1454.140625 313.816563 "
     transform="matrix(0.1, 0, 0, -0.1, 0, 155.159)"
     id="path42" />
  <path
     fill-rule="nonzero"
     fill="rgb(100%, 100%, 100%)"
     fill-opacity="1"
     d="M 138.226562 90.890625 L 152.601562 90.890625 L 152.601562 80.960938 L 138.226562 80.960938 L 138.226562 90.890625 "
     id="path43" />
  <path
     fill="none"
     stroke-width="30"
     stroke-linecap="round"
     stroke-linejoin="round"
     stroke="rgb(0%, 0%, 0%)"
     stroke-opacity="1"
     stroke-miterlimit="10"
     d="M 1454.140625 621.629063 L 1454.140625 621.629063 "
     transform="matrix(0.1, 0, 0, -0.1, 0, 155.159)"
     id="path44" />
  <path
     fill="none"
     stroke-width="5"
     stroke-linecap="round"
     stroke-linejoin="round"
     stroke="rgb(0%, 0%, 0%)"
     stroke-opacity="1"
     stroke-dasharray="42.0193 42.0193"
     stroke-miterlimit="10"
     d="M 1824.101562 621.629063 L 1824.101562 1335.965 "
     transform="matrix(0.1, 0, 0, -0.1, 0, 155.159)"
     id="path45" />
  <path
     fill-rule="nonzero"
     fill="rgb(100%, 100%, 100%)"
     fill-opacity="1"
     d="M 175.222656 105.027344 L 189.601562 105.027344 L 189.601562 95.097656 L 175.222656 95.097656 L 175.222656 105.027344 "
     id="path46" />
  <path
     fill="none"
     stroke-width="30"
     stroke-linecap="round"
     stroke-linejoin="round"
     stroke="rgb(0%, 0%, 0%)"
     stroke-opacity="1"
     stroke-miterlimit="10"
     d="M 1824.101562 621.629063 L 1824.101562 621.629063 "
     transform="matrix(0.1, 0, 0, -0.1, 0, 155.159)"
     id="path47" />
  <path
     fill="none"
     stroke-width="5"
     stroke-linecap="round"
     stroke-linejoin="round"
     stroke="rgb(0%, 0%, 0%)"
     stroke-opacity="1"
     stroke-dasharray="45.5978 45.5978"
     stroke-miterlimit="10"
     d="M 2625.742188 621.629063 L 2625.742188 393.660313 "
     transform="matrix(0.1, 0, 0, -0.1, 0, 155.159)"
     id="path48" />
  <path
     fill-rule="nonzero"
     fill="rgb(100%, 100%, 100%)"
     fill-opacity="1"
     d="M 255.390625 90.890625 L 269.765625 90.890625 L 269.765625 80.960938 L 255.390625 80.960938 L 255.390625 90.890625 "
     id="path49" />
  <path
     fill="none"
     stroke-width="30"
     stroke-linecap="round"
     stroke-linejoin="round"
     stroke="rgb(0%, 0%, 0%)"
     stroke-opacity="1"
     stroke-miterlimit="10"
     d="M 2625.742188 621.629063 L 2625.742188 621.629063 "
     transform="matrix(0.1, 0, 0, -0.1, 0, 155.159)"
     id="path50" />
  <path
     fill="none"
     stroke-width="5"
     stroke-linecap="round"
     stroke-linejoin="round"
     stroke="rgb(0%, 0%, 0%)"
     stroke-opacity="1"
     stroke-dasharray="51.7681 51.7681"
     stroke-miterlimit="10"
     d="M 2841.601562 621.629063 L 2841.601562 466.355625 "
     transform="matrix(0.1, 0, 0, -0.1, 0, 155.159)"
     id="path51" />
  <path
     fill-rule="nonzero"
     fill="rgb(100%, 100%, 100%)"
     fill-opacity="1"
     d="M 276.972656 90.890625 L 291.347656 90.890625 L 291.347656 80.960938 L 276.972656 80.960938 L 276.972656 90.890625 "
     id="path52" />
  <path
     fill="none"
     stroke-width="30"
     stroke-linecap="round"
     stroke-linejoin="round"
     stroke="rgb(0%, 0%, 0%)"
     stroke-opacity="1"
     stroke-miterlimit="10"
     d="M 2841.601562 621.629063 L 2841.601562 621.629063 "
     transform="matrix(0.1, 0, 0, -0.1, 0, 155.159)"
     id="path53" />
  <path
     fill="none"
     stroke-width="5"
     stroke-linecap="round"
     stroke-linejoin="round"
     stroke="rgb(0%, 0%, 0%)"
     stroke-opacity="1"
     stroke-dasharray="38.5977 38.5977"
     stroke-miterlimit="10"
     d="M 3088.242188 621.629063 L 3088.242188 428.660313 "
     transform="matrix(0.1, 0, 0, -0.1, 0, 155.159)"
     id="path54" />
  <path
     fill-rule="nonzero"
     fill="rgb(100%, 100%, 100%)"
     fill-opacity="1"
     d="M 301.636719 90.890625 L 316.011719 90.890625 L 316.011719 80.960938 L 301.636719 80.960938 L 301.636719 90.890625 "
     id="path55" />
  <path
     fill="none"
     stroke-width="30"
     stroke-linecap="round"
     stroke-linejoin="round"
     stroke="rgb(0%, 0%, 0%)"
     stroke-opacity="1"
     stroke-miterlimit="10"
     d="M 3088.242188 621.629063 L 3088.242188 621.629063 "
     transform="matrix(0.1, 0, 0, -0.1, 0, 155.159)"
     id="path56" />
  <g
     clip-path="url(#clip-4)"
     id="g57">
    <path
       fill="none"
       stroke-width="8"
       stroke-linecap="round"
       stroke-linejoin="round"
       stroke="rgb(0%, 0%, 0%)"
       stroke-opacity="1"
       stroke-miterlimit="10"
       d="M 5 4.988438 L 11.796875 26.004063 L 18.554688 48.269688 L 25.351562 71.74625 L 32.148438 96.316563 L 38.90625 121.9025 L 45.703125 148.425938 L 52.5 175.847813 L 59.257812 204.050938 L 66.054688 232.957188 L 72.8125 262.5275 L 79.609375 292.605625 L 86.40625 323.191563 L 93.164062 354.168125 L 99.960938 385.49625 L 106.757812 417.019688 L 113.515625 448.699375 L 127.109375 512.293125 L 133.867188 543.972813 L 140.664062 575.535313 L 147.460938 606.863438 L 154.21875 637.879063 L 161.015625 668.504063 L 167.8125 698.660313 L 174.570312 728.269688 L 181.367188 757.215 L 188.164062 785.49625 L 194.921875 812.99625 L 201.71875 839.597813 L 208.476562 865.300938 L 215.273438 889.949375 L 222.070312 913.504063 L 228.828125 935.886875 L 235.625 957.019688 L 242.421875 976.824375 L 249.179688 995.18375 L 255.976562 1012.05875 L 262.773438 1027.37125 L 269.53125 1041.043125 L 276.328125 1052.957188 L 283.125 1063.074375 L 289.882812 1071.316563 L 296.679688 1077.605625 L 303.4375 1081.824375 L 310.234375 1083.894688 L 317.03125 1083.855625 L 323.828125 1081.941563 L 330.585938 1078.504063 L 337.382812 1073.816563 L 344.140625 1068.1525 L 350.9375 1061.824375 L 357.734375 1055.144688 L 364.492188 1048.386875 L 371.289062 1041.824375 L 378.085938 1035.80875 L 384.84375 1030.535313 L 391.640625 1026.394688 L 398.4375 1023.582188 L 405.195312 1022.488438 L 411.992188 1023.582188 L 418.789062 1027.215 L 425.546875 1033.035313 L 432.34375 1040.80875 L 439.101562 1050.105625 L 445.898438 1060.730625 L 452.695312 1072.332188 L 459.492188 1084.597813 L 466.25 1097.254063 L 473.046875 1109.949375 L 479.804688 1122.37125 L 486.601562 1134.24625 L 493.398438 1145.261875 L 500.15625 1155.105625 L 506.953125 1163.465 L 513.75 1170.0275 L 520.507812 1174.480625 L 527.304688 1176.511875 L 534.101562 1175.769688 L 540.859375 1171.785313 L 547.65625 1164.754063 L 554.453125 1154.910313 L 561.210938 1142.37125 L 568.007812 1127.332188 L 574.765625 1110.0275 L 581.5625 1090.574375 L 588.359375 1069.24625 L 595.117188 1046.12125 L 601.914062 1021.43375 L 608.710938 995.379063 L 615.46875 968.1525 L 622.265625 939.910313 L 629.0625 910.80875 L 635.820312 881.12125 L 642.617188 850.965 L 649.414062 820.535313 L 656.171875 789.988438 L 662.96875 759.597813 L 669.765625 729.441563 L 676.523438 699.793125 L 683.320312 670.769688 L 690.117188 642.605625 L 696.875 615.49625 L 703.671875 589.55875 L 710.429688 565.0275 L 717.226562 542.05875 L 724.023438 520.847813 L 730.78125 501.59 L 737.578125 484.480625 L 744.375 469.675938 L 751.132812 457.37125 L 757.929688 447.761875 L 764.726562 441.004063 L 771.484375 437.332188 L 778.28125 436.785313 L 785.078125 438.62125 L 791.835938 442.449375 L 798.632812 448.191563 L 805.390625 455.80875 L 812.1875 465.144688 L 818.984375 476.12125 L 825.78125 488.62125 L 832.539062 502.605625 L 839.335938 517.918125 L 846.09375 534.519688 L 852.890625 552.293125 L 859.6875 571.12125 L 866.445312 590.925938 L 873.242188 611.629063 L 880.039062 633.113438 L 886.796875 655.300938 L 893.59375 678.113438 L 900.390625 701.394688 L 907.148438 725.105625 L 913.945312 749.129063 L 920.742188 773.386875 L 927.5 797.761875 L 934.296875 822.175938 L 941.054688 846.550938 L 947.851562 870.730625 L 954.648438 894.675938 L 961.445312 918.30875 L 968.203125 941.472813 L 975 964.09 L 981.757812 986.12125 L 988.554688 1007.37125 L 995.351562 1027.879063 L 1002.109375 1047.410313 L 1008.90625 1065.965 L 1015.703125 1083.425938 L 1022.460938 1099.675938 L 1029.257812 1114.636875 L 1036.054688 1128.230625 L 1042.8125 1140.34 L 1049.609375 1150.886875 L 1056.40625 1159.715 L 1063.164062 1166.824375 L 1069.960938 1172.097813 L 1076.757812 1175.379063 L 1083.515625 1176.629063 L 1090.3125 1175.49625 L 1097.109375 1171.707188 L 1103.867188 1165.379063 L 1110.664062 1156.629063 L 1117.421875 1145.613438 L 1124.21875 1132.37125 L 1131.015625 1117.097813 L 1137.773438 1099.87125 L 1144.570312 1080.886875 L 1151.367188 1060.18375 L 1158.125 1037.918125 L 1164.921875 1014.168125 L 1171.71875 989.129063 L 1178.476562 962.918125 L 1185.273438 935.613438 L 1192.03125 907.332188 L 1198.828125 878.230625 L 1205.625 848.425938 L 1212.382812 818.035313 L 1219.179688 787.175938 L 1225.976562 755.965 L 1232.734375 724.519688 L 1246.328125 661.472813 L 1253.085938 630.105625 L 1259.882812 599.011875 L 1266.640625 568.30875 L 1273.4375 538.113438 L 1280.234375 508.543125 L 1287.03125 479.754063 L 1293.789062 451.824375 L 1300.585938 424.87125 L 1307.34375 399.050938 L 1314.140625 374.480625 L 1320.9375 351.2775 L 1327.695312 329.55875 L 1334.492188 309.480625 L 1341.289062 291.082188 L 1348.046875 274.55875 L 1354.84375 260.0275 L 1361.640625 247.605625 L 1368.398438 237.37125 L 1375.195312 229.480625 L 1381.992188 224.050938 L 1388.75 221.238438 L 1395.546875 221.082188 L 1402.34375 223.504063 L 1409.101562 228.347813 L 1415.898438 235.535313 L 1422.695312 244.910313 L 1429.453125 256.355625 L 1436.25 269.793125 L 1443.046875 285.066563 L 1449.804688 302.136875 L 1456.601562 320.769688 L 1463.398438 340.965 L 1470.15625 362.566563 L 1476.953125 385.418125 L 1483.710938 409.480625 L 1490.507812 434.55875 L 1497.304688 460.613438 L 1504.0625 487.5275 L 1510.859375 515.105625 L 1517.65625 543.30875 L 1524.414062 571.980625 L 1531.210938 601.082188 L 1538.007812 630.379063 L 1544.765625 659.87125 L 1551.5625 689.363438 L 1558.359375 718.7775 L 1565.117188 747.99625 L 1571.914062 776.9025 L 1578.671875 805.379063 L 1585.46875 833.30875 L 1592.265625 860.613438 L 1599.023438 887.136875 L 1605.820312 912.761875 L 1612.617188 937.410313 L 1619.375 960.925938 L 1626.171875 983.230625 L 1632.96875 1004.168125 L 1639.726562 1023.699375 L 1646.523438 1041.629063 L 1653.28125 1057.879063 L 1660.078125 1072.332188 L 1666.875 1084.87125 L 1673.671875 1095.418125 L 1680.429688 1103.816563 L 1687.226562 1109.949375 L 1693.984375 1113.699375 L 1700.78125 1114.988438 L 1707.578125 1116.355625 L 1714.375 1120.379063 L 1721.132812 1126.74625 L 1727.929688 1135.18375 L 1734.6875 1145.535313 L 1741.484375 1157.449375 L 1748.28125 1170.730625 L 1755.039062 1185.144688 L 1761.835938 1200.379063 L 1768.632812 1216.199375 L 1775.390625 1232.37125 L 1782.1875 1248.660313 L 1788.984375 1264.754063 L 1795.742188 1280.457188 L 1802.539062 1295.49625 L 1809.335938 1309.597813 L 1816.09375 1322.5275 L 1822.890625 1334.050938 L 1829.6875 1343.894688 L 1836.445312 1351.824375 L 1843.242188 1357.566563 L 1850.039062 1360.886875 L 1856.796875 1361.550938 L 1863.59375 1359.87125 L 1870.351562 1356.160313 L 1877.148438 1350.613438 L 1883.945312 1343.347813 L 1890.703125 1334.519688 L 1897.5 1324.324375 L 1904.296875 1312.957188 L 1911.054688 1300.535313 L 1917.851562 1287.215 L 1924.648438 1273.191563 L 1931.40625 1258.582188 L 1938.203125 1243.62125 L 1944.960938 1228.425938 L 1951.757812 1213.191563 L 1958.554688 1198.035313 L 1965.3125 1183.1525 L 1972.109375 1168.699375 L 1978.90625 1154.832188 L 1985.664062 1141.74625 L 1992.460938 1129.597813 L 1999.257812 1118.504063 L 2006.015625 1108.699375 L 2012.8125 1100.300938 L 2019.609375 1093.465 L 2026.367188 1088.386875 L 2033.164062 1085.222813 L 2039.960938 1084.129063 L 2046.71875 1084.285313 L 2053.515625 1084.793125 L 2060.273438 1085.574375 L 2067.070312 1086.629063 L 2073.867188 1087.957188 L 2080.625 1089.519688 L 2087.421875 1091.355625 L 2094.21875 1093.386875 L 2100.976562 1095.613438 L 2107.773438 1098.035313 L 2114.570312 1100.613438 L 2121.328125 1103.347813 L 2128.125 1106.238438 L 2134.921875 1109.207188 L 2141.679688 1112.332188 L 2148.476562 1115.535313 L 2155.273438 1118.7775 L 2162.03125 1122.097813 L 2168.828125 1125.457188 L 2175.625 1128.855625 L 2182.382812 1132.215 L 2189.179688 1135.613438 L 2195.976562 1138.972813 L 2202.734375 1142.293125 L 2209.53125 1145.535313 L 2216.328125 1148.738438 L 2223.085938 1151.824375 L 2229.882812 1154.832188 L 2236.640625 1157.68375 L 2243.4375 1160.418125 L 2250.234375 1162.99625 L 2256.992188 1165.379063 L 2263.789062 1167.605625 L 2270.585938 1169.597813 L 2277.34375 1171.394688 L 2284.140625 1172.957188 L 2290.9375 1174.24625 L 2297.695312 1175.300938 L 2304.492188 1176.043125 L 2311.289062 1176.511875 L 2318.046875 1176.629063 L 2324.84375 1175.49625 L 2331.601562 1172.566563 L 2338.398438 1167.800938 L 2345.195312 1161.394688 L 2351.953125 1153.386875 L 2358.75 1143.855625 L 2365.546875 1132.84 L 2372.304688 1120.457188 L 2379.101562 1106.785313 L 2385.898438 1091.863438 L 2392.65625 1075.80875 L 2399.453125 1058.699375 L 2406.210938 1040.535313 L 2413.007812 1021.511875 L 2419.804688 1001.629063 L 2426.601562 981.004063 L 2433.359375 959.675938 L 2440.15625 937.722813 L 2446.914062 915.261875 L 2453.710938 892.37125 L 2460.507812 869.050938 L 2467.304688 845.457188 L 2474.0625 821.629063 L 2480.859375 797.644688 L 2487.617188 773.62125 L 2494.414062 749.597813 L 2501.210938 725.6525 L 2507.96875 701.863438 L 2514.765625 678.30875 L 2521.5625 655.066563 L 2528.320312 632.215 L 2535.117188 609.87125 L 2541.914062 588.035313 L 2548.671875 566.824375 L 2555.46875 546.316563 L 2562.265625 526.59 L 2569.023438 507.722813 L 2575.820312 489.754063 L 2582.617188 472.800938 L 2589.375 456.980625 L 2596.171875 442.254063 L 2602.96875 428.816563 L 2609.726562 416.668125 L 2616.523438 405.925938 L 2623.28125 396.668125 L 2630.078125 388.93375 L 2636.875 382.800938 L 2643.632812 378.386875 L 2650.429688 375.769688 L 2657.226562 374.988438 L 2663.984375 375.261875 L 2670.78125 375.925938 L 2677.578125 376.980625 L 2684.335938 378.425938 L 2691.132812 380.261875 L 2697.890625 382.37125 L 2704.6875 384.832188 L 2711.484375 387.566563 L 2718.242188 390.574375 L 2725.039062 393.816563 L 2731.835938 397.254063 L 2738.59375 400.925938 L 2745.390625 404.793125 L 2752.1875 408.816563 L 2758.945312 412.957188 L 2765.742188 417.215 L 2772.539062 421.59 L 2779.296875 426.004063 L 2786.09375 430.49625 L 2792.890625 435.0275 L 2799.648438 439.519688 L 2806.445312 444.050938 L 2813.203125 448.504063 L 2820 452.918125 L 2826.796875 457.254063 L 2833.554688 461.511875 L 2840.351562 465.613438 L 2847.148438 469.597813 L 2853.90625 473.386875 L 2860.703125 477.019688 L 2867.5 480.418125 L 2874.257812 483.582188 L 2881.054688 486.511875 L 2887.851562 489.168125 L 2894.609375 491.550938 L 2901.40625 493.582188 L 2908.203125 495.300938 L 2914.960938 496.629063 L 2921.757812 497.605625 L 2928.554688 498.191563 L 2935.3125 498.30875 L 2942.109375 498.113438 L 2948.90625 497.566563 L 2955.664062 496.74625 L 2962.460938 495.613438 L 2969.257812 494.207188 L 2976.015625 492.488438 L 2982.8125 490.49625 L 2989.609375 488.230625 L 2996.367188 485.730625 L 3003.164062 482.957188 L 3009.921875 479.910313 L 3016.71875 476.629063 L 3023.515625 473.113438 L 3030.273438 469.363438 L 3037.070312 465.379063 L 3043.867188 461.160313 L 3050.625 456.74625 L 3057.421875 452.136875 L 3064.21875 447.293125 L 3070.976562 442.293125 L 3077.773438 437.05875 L 3084.53125 431.668125 L 3091.328125 426.12125 L 3098.125 420.379063 L 3104.882812 414.480625 L 3111.679688 408.425938 L 3118.476562 402.215 L 3125.234375 395.847813 L 3132.03125 389.363438 L 3138.828125 382.722813 L 3145.585938 376.004063 L 3152.382812 369.129063 L 3159.140625 362.136875 L 3165.9375 355.066563 L 3172.734375 347.879063 L 3179.53125 340.613438 L 3186.289062 333.269688 L 3193.085938 325.80875 L 3199.84375 318.30875 L 3206.640625 310.730625 L 3213.4375 303.113438 L 3220.195312 295.418125 L 3233.789062 279.87125 L 3240.546875 272.05875 L 3254.140625 256.355625 L 3260.898438 248.465 L 3274.492188 232.68375 L 3281.25 224.793125 L 3288.046875 216.941563 L 3294.84375 209.050938 L 3301.601562 201.238438 L 3308.398438 193.425938 L 3315.195312 185.6525 L 3321.953125 177.918125 L 3328.75 170.222813 L 3335.546875 162.605625 L 3342.304688 155.0275 L 3349.101562 147.5275 L 3355.898438 140.105625 L 3362.65625 132.761875 L 3369.453125 125.535313 L 3376.210938 118.347813 L 3383.007812 111.2775 L 3389.804688 104.324375 L 3396.5625 97.488438 "
       transform="matrix(0.1, 0, 0, -0.1, 0, 155.159)"
       id="path57" />
  </g>
  <path
     fill-rule="nonzero"
     fill="rgb(100%, 100%, 100%)"
     fill-opacity="1"
     d="M 206.507812 23.386719 L 256.980469 23.386719 L 256.980469 8.4375 L 206.507812 8.4375 L 206.507812 23.386719 "
     id="path58" />
  <path
     fill-rule="nonzero"
     fill="rgb(100%, 100%, 100%)"
     fill-opacity="1"
     d="M 328.679688 104.3125 L 338.324219 104.3125 L 338.324219 96.175781 L 328.679688 96.175781 L 328.679688 104.3125 "
     id="path59" />
  <path
     fill-rule="nonzero"
     fill="rgb(100%, 100%, 100%)"
     fill-opacity="1"
     d="M 127.011719 12.199219 L 136.140625 12.199219 L 136.140625 1.734375 L 127.011719 1.734375 L 127.011719 12.199219 "
     id="path60" />
  <g
     fill="rgb(0%, 0%, 0%)"
     fill-opacity="1"
     id="g60">
    <use
       xlink:href="#glyph-0-0"
       x="28.725"
       y="101.739"
       id="use60" />
  </g>
  <g
     fill="rgb(0%, 0%, 0%)"
     fill-opacity="1"
     id="g61">
    <use
       xlink:href="#glyph-1-0"
       x="35.377"
       y="103.532"
       id="use61" />
  </g>
  <g
     fill="rgb(0%, 0%, 0%)"
     fill-opacity="1"
     id="g62">
    <use
       xlink:href="#glyph-0-0"
       x="50.308"
       y="101.739"
       id="use62" />
  </g>
  <g
     fill="rgb(0%, 0%, 0%)"
     fill-opacity="1"
     id="g63">
    <use
       xlink:href="#glyph-1-1"
       x="56.96"
       y="103.532"
       id="use63" />
  </g>
  <g
     fill="rgb(0%, 0%, 0%)"
     fill-opacity="1"
     id="g64">
    <use
       xlink:href="#glyph-0-0"
       x="74.974"
       y="87.603"
       id="use64" />
  </g>
  <g
     fill="rgb(0%, 0%, 0%)"
     fill-opacity="1"
     id="g65">
    <use
       xlink:href="#glyph-1-2"
       x="81.626"
       y="89.397"
       id="use65" />
  </g>
  <g
     fill="rgb(0%, 0%, 0%)"
     fill-opacity="1"
     id="g66">
    <use
       xlink:href="#glyph-0-0"
       x="96.557"
       y="101.739"
       id="use66" />
  </g>
  <g
     fill="rgb(0%, 0%, 0%)"
     fill-opacity="1"
     id="g67">
    <use
       xlink:href="#glyph-1-3"
       x="103.209"
       y="103.532"
       id="use67" />
  </g>
  <g
     fill="rgb(0%, 0%, 0%)"
     fill-opacity="1"
     id="g68">
    <use
       xlink:href="#glyph-0-0"
       x="139.722"
       y="87.603"
       id="use68" />
  </g>
  <g
     fill="rgb(0%, 0%, 0%)"
     fill-opacity="1"
     id="g69">
    <use
       xlink:href="#glyph-1-4"
       x="146.374"
       y="89.397"
       id="use69" />
  </g>
  <g
     fill="rgb(0%, 0%, 0%)"
     fill-opacity="1"
     id="g70">
    <use
       xlink:href="#glyph-0-0"
       x="176.721"
       y="101.739"
       id="use70" />
  </g>
  <g
     fill="rgb(0%, 0%, 0%)"
     fill-opacity="1"
     id="g71">
    <use
       xlink:href="#glyph-1-5"
       x="183.373"
       y="103.532"
       id="use71" />
  </g>
  <g
     fill="rgb(0%, 0%, 0%)"
     fill-opacity="1"
     id="g72">
    <use
       xlink:href="#glyph-0-0"
       x="256.886"
       y="87.603"
       id="use72" />
  </g>
  <g
     fill="rgb(0%, 0%, 0%)"
     fill-opacity="1"
     id="g73">
    <use
       xlink:href="#glyph-1-6"
       x="263.538"
       y="89.397"
       id="use73" />
  </g>
  <g
     fill="rgb(0%, 0%, 0%)"
     fill-opacity="1"
     id="g74">
    <use
       xlink:href="#glyph-0-0"
       x="278.468"
       y="87.603"
       id="use74" />
  </g>
  <g
     fill="rgb(0%, 0%, 0%)"
     fill-opacity="1"
     id="g75">
    <use
       xlink:href="#glyph-1-7"
       x="285.121"
       y="89.397"
       id="use75" />
  </g>
  <g
     fill="rgb(0%, 0%, 0%)"
     fill-opacity="1"
     id="g76">
    <use
       xlink:href="#glyph-0-0"
       x="303.134"
       y="87.603"
       id="use76" />
  </g>
  <g
     fill="rgb(0%, 0%, 0%)"
     fill-opacity="1"
     id="g77">
    <use
       xlink:href="#glyph-1-8"
       x="309.787"
       y="89.397"
       id="use77" />
  </g>
  <g
     fill="rgb(0%, 0%, 0%)"
     fill-opacity="1"
     id="g78">
    <use
       xlink:href="#glyph-0-1"
       x="208.005"
       y="18.902"
       id="use78" />
  </g>
  <g
     fill="rgb(0%, 0%, 0%)"
     fill-opacity="1"
     id="g79">
    <use
       xlink:href="#glyph-2-0"
       x="217.466345"
       y="18.902"
       id="use79" />
  </g>
  <g
     fill="rgb(0%, 0%, 0%)"
     fill-opacity="1"
     id="g80">
    <use
       xlink:href="#glyph-0-2"
       x="229.883016"
       y="18.902"
       id="use80" />
  </g>
  <g
     fill="rgb(0%, 0%, 0%)"
     fill-opacity="1"
     id="g81">
    <use
       xlink:href="#glyph-3-0"
       x="236.934"
       y="14.563"
       id="use81" />
  </g>
  <g
     fill="rgb(0%, 0%, 0%)"
     fill-opacity="1"
     id="g82">
    <use
       xlink:href="#glyph-2-1"
       x="239.729"
       y="18.902"
       id="use82" />
  </g>
  <g
     fill="rgb(0%, 0%, 0%)"
     fill-opacity="1"
     id="g83">
    <use
       xlink:href="#glyph-0-0"
       x="244.28154"
       y="18.902"
       id="use83" />
  </g>
  <g
     fill="rgb(0%, 0%, 0%)"
     fill-opacity="1"
     id="g84">
    <use
       xlink:href="#glyph-2-2"
       x="250.933413"
       y="18.902"
       id="use84" />
  </g>
  <g
     fill="rgb(0%, 0%, 0%)"
     fill-opacity="1"
     id="g85">
    <use
       xlink:href="#glyph-2-3"
       x="114.381"
       y="104.296"
       id="use85" />
  </g>
  <g
     fill="rgb(0%, 0%, 0%)"
     fill-opacity="1"
     id="g86">
    <use
       xlink:href="#glyph-0-0"
       x="330.177"
       y="102.818"
       id="use86" />
  </g>
  <g
     fill="rgb(0%, 0%, 0%)"
     fill-opacity="1"
     id="g87">
    <use
       xlink:href="#glyph-0-1"
       x="128.508"
       y="8.379"
       id="use87" />
  </g>
</svg>
