<?xml version="1.0" encoding="UTF-8" standalone="no"?>
<svg
   width="141.732pt"
   height="141.732pt"
   viewBox="0 0 141.732 141.732"
   version="1.1"
   id="svg88"
   sodipodi:docname="plots-9.pdf"
   xmlns:inkscape="http://www.inkscape.org/namespaces/inkscape"
   xmlns:sodipodi="http://sodipodi.sourceforge.net/DTD/sodipodi-0.dtd"
   xmlns:xlink="http://www.w3.org/1999/xlink"
   xmlns="http://www.w3.org/2000/svg"
   xmlns:svg="http://www.w3.org/2000/svg">
  <sodipodi:namedview
     id="namedview88"
     pagecolor="#ffffff"
     bordercolor="#000000"
     borderopacity="0.25"
     inkscape:showpageshadow="2"
     inkscape:pageopacity="0.0"
     inkscape:pagecheckerboard="0"
     inkscape:deskcolor="#d1d1d1"
     inkscape:document-units="pt" />
  <defs
     id="defs34">
    <g
       id="g10">
      <g
         id="glyph-0-0">
        <path
           d="M 3.140625 1.34375 C 2.828125 1.796875 2.359375 2.203125 1.765625 2.203125 C 1.625 2.203125 1.046875 2.171875 0.875 1.625 C 0.90625 1.640625 0.96875 1.640625 0.984375 1.640625 C 1.34375 1.640625 1.59375 1.328125 1.59375 1.046875 C 1.59375 0.78125 1.359375 0.6875 1.1875 0.6875 C 0.984375 0.6875 0.578125 0.828125 0.578125 1.40625 C 0.578125 2.015625 1.09375 2.4375 1.765625 2.4375 C 2.96875 2.4375 4.171875 1.34375 4.5 0.015625 L 5.671875 -4.65625 C 5.6875 -4.703125 5.71875 -4.78125 5.71875 -4.859375 C 5.71875 -5.03125 5.5625 -5.15625 5.390625 -5.15625 C 5.28125 -5.15625 5.03125 -5.109375 4.9375 -4.75 L 4.046875 -1.234375 C 4 -1.015625 4 -0.984375 3.890625 -0.859375 C 3.65625 -0.53125 3.265625 -0.125 2.6875 -0.125 C 2.015625 -0.125 1.953125 -0.78125 1.953125 -1.09375 C 1.953125 -1.78125 2.28125 -2.703125 2.609375 -3.5625 C 2.734375 -3.90625 2.8125 -4.078125 2.8125 -4.3125 C 2.8125 -4.8125 2.453125 -5.265625 1.859375 -5.265625 C 0.765625 -5.265625 0.328125 -3.53125 0.328125 -3.4375 C 0.328125 -3.390625 0.375 -3.328125 0.453125 -3.328125 C 0.5625 -3.328125 0.578125 -3.375 0.625 -3.546875 C 0.90625 -4.546875 1.359375 -5.03125 1.828125 -5.03125 C 1.9375 -5.03125 2.140625 -5.03125 2.140625 -4.640625 C 2.140625 -4.328125 2.015625 -3.984375 1.828125 -3.53125 C 1.25 -1.953125 1.25 -1.5625 1.25 -1.28125 C 1.25 -0.140625 2.0625 0.125 2.65625 0.125 C 3 0.125 3.4375 0.015625 3.84375 -0.4375 L 3.859375 -0.421875 C 3.6875 0.28125 3.5625 0.75 3.140625 1.34375 Z M 3.140625 1.34375 "
           id="path1" />
      </g>
      <g
         id="glyph-0-1">
        <path
           d="M 5.328125 -4.8125 C 5.5625 -4.8125 5.671875 -4.8125 5.671875 -5.03125 C 5.671875 -5.15625 5.5625 -5.15625 5.359375 -5.15625 L 4.390625 -5.15625 C 4.609375 -6.390625 4.78125 -7.234375 4.875 -7.609375 C 4.953125 -7.90625 5.203125 -8.171875 5.515625 -8.171875 C 5.765625 -8.171875 6.015625 -8.0625 6.125 -7.953125 C 5.671875 -7.90625 5.515625 -7.5625 5.515625 -7.359375 C 5.515625 -7.125 5.703125 -6.984375 5.921875 -6.984375 C 6.171875 -6.984375 6.53125 -7.1875 6.53125 -7.640625 C 6.53125 -8.140625 6.03125 -8.421875 5.5 -8.421875 C 4.984375 -8.421875 4.484375 -8.03125 4.25 -7.5625 C 4.03125 -7.140625 3.90625 -6.71875 3.640625 -5.15625 L 2.828125 -5.15625 C 2.609375 -5.15625 2.484375 -5.15625 2.484375 -4.9375 C 2.484375 -4.8125 2.5625 -4.8125 2.796875 -4.8125 L 3.5625 -4.8125 C 3.34375 -3.6875 2.859375 -0.984375 2.578125 0.28125 C 2.375 1.328125 2.203125 2.203125 1.609375 2.203125 C 1.5625 2.203125 1.21875 2.203125 1 1.96875 C 1.609375 1.921875 1.609375 1.40625 1.609375 1.390625 C 1.609375 1.140625 1.4375 1 1.203125 1 C 0.96875 1 0.609375 1.203125 0.609375 1.65625 C 0.609375 2.171875 1.140625 2.4375 1.609375 2.4375 C 2.828125 2.4375 3.328125 0.25 3.453125 -0.34375 C 3.671875 -1.265625 4.25 -4.453125 4.3125 -4.8125 Z M 5.328125 -4.8125 "
           id="path2" />
      </g>
      <g
         id="glyph-0-2">
        <path
           d="M 5.671875 -4.875 C 5.28125 -4.8125 5.140625 -4.515625 5.140625 -4.296875 C 5.140625 -4 5.359375 -3.90625 5.53125 -3.90625 C 5.890625 -3.90625 6.140625 -4.21875 6.140625 -4.546875 C 6.140625 -5.046875 5.5625 -5.265625 5.0625 -5.265625 C 4.34375 -5.265625 3.9375 -4.546875 3.828125 -4.328125 C 3.546875 -5.21875 2.8125 -5.265625 2.59375 -5.265625 C 1.375 -5.265625 0.734375 -3.703125 0.734375 -3.4375 C 0.734375 -3.390625 0.78125 -3.328125 0.859375 -3.328125 C 0.953125 -3.328125 0.984375 -3.40625 1 -3.453125 C 1.40625 -4.78125 2.21875 -5.03125 2.5625 -5.03125 C 3.09375 -5.03125 3.203125 -4.53125 3.203125 -4.25 C 3.203125 -3.984375 3.125 -3.703125 2.984375 -3.125 L 2.578125 -1.5 C 2.40625 -0.78125 2.0625 -0.125 1.421875 -0.125 C 1.359375 -0.125 1.0625 -0.125 0.8125 -0.28125 C 1.25 -0.359375 1.34375 -0.71875 1.34375 -0.859375 C 1.34375 -1.09375 1.15625 -1.25 0.9375 -1.25 C 0.640625 -1.25 0.328125 -0.984375 0.328125 -0.609375 C 0.328125 -0.109375 0.890625 0.125 1.40625 0.125 C 1.984375 0.125 2.390625 -0.328125 2.640625 -0.828125 C 2.828125 -0.125 3.4375 0.125 3.875 0.125 C 5.09375 0.125 5.734375 -1.453125 5.734375 -1.703125 C 5.734375 -1.765625 5.6875 -1.8125 5.625 -1.8125 C 5.515625 -1.8125 5.5 -1.75 5.46875 -1.65625 C 5.140625 -0.609375 4.453125 -0.125 3.90625 -0.125 C 3.484375 -0.125 3.265625 -0.4375 3.265625 -0.921875 C 3.265625 -1.1875 3.3125 -1.375 3.5 -2.15625 L 3.921875 -3.796875 C 4.09375 -4.5 4.5 -5.03125 5.0625 -5.03125 C 5.078125 -5.03125 5.421875 -5.03125 5.671875 -4.875 Z M 5.671875 -4.875 "
           id="path3" />
      </g>
      <g
         id="glyph-0-3">
        <path
           d="M 4.046875 -1.515625 C 4 -1.328125 3.96875 -1.28125 3.8125 -1.09375 C 3.328125 -0.46875 2.828125 -0.234375 2.453125 -0.234375 C 2.0625 -0.234375 1.6875 -0.546875 1.6875 -1.375 C 1.6875 -2.015625 2.046875 -3.34375 2.3125 -3.890625 C 2.65625 -4.546875 3.1875 -5.03125 3.6875 -5.03125 C 4.484375 -5.03125 4.640625 -4.046875 4.640625 -3.984375 L 4.609375 -3.8125 Z M 4.78125 -4.484375 C 4.625 -4.828125 4.296875 -5.265625 3.6875 -5.265625 C 2.390625 -5.265625 0.90625 -3.640625 0.90625 -1.859375 C 0.90625 -0.609375 1.65625 0 2.421875 0 C 3.0625 0 3.625 -0.5 3.84375 -0.734375 L 3.578125 0.328125 C 3.40625 0.984375 3.328125 1.296875 2.90625 1.703125 C 2.421875 2.203125 1.953125 2.203125 1.703125 2.203125 C 1.34375 2.203125 1.046875 2.171875 0.734375 2.078125 C 1.125 1.96875 1.21875 1.640625 1.21875 1.5 C 1.21875 1.3125 1.078125 1.125 0.8125 1.125 C 0.53125 1.125 0.21875 1.359375 0.21875 1.75 C 0.21875 2.25 0.703125 2.4375 1.71875 2.4375 C 3.265625 2.4375 4.0625 1.453125 4.21875 0.796875 L 5.546875 -4.546875 C 5.578125 -4.703125 5.578125 -4.71875 5.578125 -4.75 C 5.578125 -4.90625 5.453125 -5.046875 5.265625 -5.046875 C 4.984375 -5.046875 4.8125 -4.8125 4.78125 -4.484375 Z M 4.78125 -4.484375 "
           id="path4" />
      </g>
      <g
         id="glyph-0-4">
        <path
           d="M 2.03125 -1.328125 C 1.609375 -0.625 1.203125 -0.375 0.640625 -0.34375 C 0.5 -0.328125 0.40625 -0.328125 0.40625 -0.125 C 0.40625 -0.046875 0.46875 0 0.546875 0 C 0.765625 0 1.296875 -0.03125 1.515625 -0.03125 C 1.859375 -0.03125 2.25 0 2.578125 0 C 2.65625 0 2.796875 0 2.796875 -0.234375 C 2.796875 -0.328125 2.703125 -0.34375 2.625 -0.34375 C 2.359375 -0.375 2.125 -0.46875 2.125 -0.75 C 2.125 -0.921875 2.203125 -1.046875 2.359375 -1.3125 L 3.265625 -2.828125 L 6.3125 -2.828125 C 6.328125 -2.71875 6.328125 -2.625 6.328125 -2.515625 C 6.375 -2.203125 6.515625 -0.953125 6.515625 -0.734375 C 6.515625 -0.375 5.90625 -0.34375 5.71875 -0.34375 C 5.578125 -0.34375 5.453125 -0.34375 5.453125 -0.125 C 5.453125 0 5.5625 0 5.625 0 C 5.828125 0 6.078125 -0.03125 6.28125 -0.03125 L 6.953125 -0.03125 C 7.6875 -0.03125 8.21875 0 8.21875 0 C 8.3125 0 8.4375 0 8.4375 -0.234375 C 8.4375 -0.34375 8.328125 -0.34375 8.15625 -0.34375 C 7.5 -0.34375 7.484375 -0.453125 7.453125 -0.8125 L 6.71875 -8.265625 C 6.6875 -8.515625 6.640625 -8.53125 6.515625 -8.53125 C 6.390625 -8.53125 6.328125 -8.515625 6.21875 -8.328125 Z M 3.46875 -3.171875 L 5.875 -7.1875 L 6.28125 -3.171875 Z M 3.46875 -3.171875 "
           id="path5" />
      </g>
      <g
         id="glyph-1-0">
        <path
           d="M 8.0625 -3.875 C 8.234375 -3.875 8.453125 -3.875 8.453125 -4.09375 C 8.453125 -4.3125 8.25 -4.3125 8.0625 -4.3125 L 1.03125 -4.3125 C 0.859375 -4.3125 0.640625 -4.3125 0.640625 -4.09375 C 0.640625 -3.875 0.84375 -3.875 1.03125 -3.875 Z M 8.0625 -1.65625 C 8.234375 -1.65625 8.453125 -1.65625 8.453125 -1.859375 C 8.453125 -2.09375 8.25 -2.09375 8.0625 -2.09375 L 1.03125 -2.09375 C 0.859375 -2.09375 0.640625 -2.09375 0.640625 -1.875 C 0.640625 -1.65625 0.84375 -1.65625 1.03125 -1.65625 Z M 8.0625 -1.65625 "
           id="path6" />
      </g>
      <g
         id="glyph-1-1">
        <path
           d="M 3.890625 2.90625 C 3.890625 2.875 3.890625 2.84375 3.6875 2.640625 C 2.484375 1.4375 1.8125 -0.53125 1.8125 -2.96875 C 1.8125 -5.296875 2.375 -7.296875 3.765625 -8.703125 C 3.890625 -8.8125 3.890625 -8.828125 3.890625 -8.875 C 3.890625 -8.9375 3.828125 -8.96875 3.78125 -8.96875 C 3.625 -8.96875 2.640625 -8.109375 2.0625 -6.9375 C 1.453125 -5.71875 1.171875 -4.453125 1.171875 -2.96875 C 1.171875 -1.90625 1.34375 -0.484375 1.953125 0.78125 C 2.671875 2.21875 3.640625 3 3.78125 3 C 3.828125 3 3.890625 2.96875 3.890625 2.90625 Z M 3.890625 2.90625 "
           id="path7" />
      </g>
      <g
         id="glyph-1-2">
        <path
           d="M 3.375 -2.96875 C 3.375 -3.890625 3.25 -5.359375 2.578125 -6.75 C 1.875 -8.1875 0.890625 -8.96875 0.765625 -8.96875 C 0.71875 -8.96875 0.65625 -8.9375 0.65625 -8.875 C 0.65625 -8.828125 0.65625 -8.8125 0.859375 -8.609375 C 2.0625 -7.40625 2.71875 -5.421875 2.71875 -2.984375 C 2.71875 -0.671875 2.15625 1.328125 0.78125 2.734375 C 0.65625 2.84375 0.65625 2.875 0.65625 2.90625 C 0.65625 2.96875 0.71875 3 0.765625 3 C 0.921875 3 1.90625 2.140625 2.484375 0.96875 C 3.09375 -0.25 3.375 -1.546875 3.375 -2.96875 Z M 3.375 -2.96875 "
           id="path8" />
      </g>
      <g
         id="glyph-1-3">
        <path
           d="M 3.4375 -7.65625 C 3.4375 -7.9375 3.4375 -7.953125 3.203125 -7.953125 C 2.921875 -7.625 2.3125 -7.1875 1.09375 -7.1875 L 1.09375 -6.84375 C 1.359375 -6.84375 1.953125 -6.84375 2.625 -7.140625 L 2.625 -0.921875 C 2.625 -0.484375 2.578125 -0.34375 1.53125 -0.34375 L 1.15625 -0.34375 L 1.15625 0 C 1.484375 -0.03125 2.640625 -0.03125 3.03125 -0.03125 C 3.4375 -0.03125 4.578125 -0.03125 4.90625 0 L 4.90625 -0.34375 L 4.53125 -0.34375 C 3.484375 -0.34375 3.4375 -0.484375 3.4375 -0.921875 Z M 3.4375 -7.65625 "
           id="path9" />
      </g>
      <g
         id="glyph-1-4">
        <path
           d="M 5.359375 -3.828125 C 5.359375 -4.8125 5.296875 -5.78125 4.859375 -6.6875 C 4.375 -7.6875 3.515625 -7.953125 2.921875 -7.953125 C 2.234375 -7.953125 1.390625 -7.609375 0.9375 -6.609375 C 0.609375 -5.859375 0.484375 -5.109375 0.484375 -3.828125 C 0.484375 -2.671875 0.578125 -1.796875 1 -0.9375 C 1.46875 -0.03125 2.296875 0.25 2.921875 0.25 C 3.953125 0.25 4.546875 -0.375 4.90625 -1.0625 C 5.328125 -1.953125 5.359375 -3.125 5.359375 -3.828125 Z M 2.921875 0.015625 C 2.53125 0.015625 1.75 -0.203125 1.53125 -1.5 C 1.40625 -2.21875 1.40625 -3.125 1.40625 -3.96875 C 1.40625 -4.953125 1.40625 -5.828125 1.59375 -6.53125 C 1.796875 -7.34375 2.40625 -7.703125 2.921875 -7.703125 C 3.375 -7.703125 4.0625 -7.4375 4.296875 -6.40625 C 4.453125 -5.71875 4.453125 -4.78125 4.453125 -3.96875 C 4.453125 -3.171875 4.453125 -2.265625 4.3125 -1.53125 C 4.09375 -0.21875 3.328125 0.015625 2.921875 0.015625 Z M 2.921875 0.015625 "
           id="path10" />
      </g>
    </g>
    <clipPath
       id="clip-0">
      <path
         clip-rule="nonzero"
         d="M 0 0 L 1 0 L 1 141.730469 L 0 141.730469 Z M 0 0 "
         id="path11" />
    </clipPath>
    <clipPath
       id="clip-1">
      <path
         clip-rule="nonzero"
         d="M 17 0 L 19 0 L 19 141.730469 L 17 141.730469 Z M 17 0 "
         id="path12" />
    </clipPath>
    <clipPath
       id="clip-2">
      <path
         clip-rule="nonzero"
         d="M 35 0 L 36 0 L 36 141.730469 L 35 141.730469 Z M 35 0 "
         id="path13" />
    </clipPath>
    <clipPath
       id="clip-3">
      <path
         clip-rule="nonzero"
         d="M 53 0 L 54 0 L 54 141.730469 L 53 141.730469 Z M 53 0 "
         id="path14" />
    </clipPath>
    <clipPath
       id="clip-4">
      <path
         clip-rule="nonzero"
         d="M 70 0 L 72 0 L 72 141.730469 L 70 141.730469 Z M 70 0 "
         id="path15" />
    </clipPath>
    <clipPath
       id="clip-5">
      <path
         clip-rule="nonzero"
         d="M 88 0 L 89 0 L 89 141.730469 L 88 141.730469 Z M 88 0 "
         id="path16" />
    </clipPath>
    <clipPath
       id="clip-6">
      <path
         clip-rule="nonzero"
         d="M 105 0 L 107 0 L 107 141.730469 L 105 141.730469 Z M 105 0 "
         id="path17" />
    </clipPath>
    <clipPath
       id="clip-7">
      <path
         clip-rule="nonzero"
         d="M 123 0 L 124 0 L 124 141.730469 L 123 141.730469 Z M 123 0 "
         id="path18" />
    </clipPath>
    <clipPath
       id="clip-8">
      <path
         clip-rule="nonzero"
         d="M 140 0 L 141.730469 0 L 141.730469 141.730469 L 140 141.730469 Z M 140 0 "
         id="path19" />
    </clipPath>
    <clipPath
       id="clip-9">
      <path
         clip-rule="nonzero"
         d="M 0 140 L 141.730469 140 L 141.730469 141.730469 L 0 141.730469 Z M 0 140 "
         id="path20" />
    </clipPath>
    <clipPath
       id="clip-10">
      <path
         clip-rule="nonzero"
         d="M 0 123 L 141.730469 123 L 141.730469 124 L 0 124 Z M 0 123 "
         id="path21" />
    </clipPath>
    <clipPath
       id="clip-11">
      <path
         clip-rule="nonzero"
         d="M 0 105 L 141.730469 105 L 141.730469 107 L 0 107 Z M 0 105 "
         id="path22" />
    </clipPath>
    <clipPath
       id="clip-12">
      <path
         clip-rule="nonzero"
         d="M 0 88 L 141.730469 88 L 141.730469 89 L 0 89 Z M 0 88 "
         id="path23" />
    </clipPath>
    <clipPath
       id="clip-13">
      <path
         clip-rule="nonzero"
         d="M 0 70 L 141.730469 70 L 141.730469 72 L 0 72 Z M 0 70 "
         id="path24" />
    </clipPath>
    <clipPath
       id="clip-14">
      <path
         clip-rule="nonzero"
         d="M 0 53 L 141.730469 53 L 141.730469 54 L 0 54 Z M 0 53 "
         id="path25" />
    </clipPath>
    <clipPath
       id="clip-15">
      <path
         clip-rule="nonzero"
         d="M 0 35 L 141.730469 35 L 141.730469 36 L 0 36 Z M 0 35 "
         id="path26" />
    </clipPath>
    <clipPath
       id="clip-16">
      <path
         clip-rule="nonzero"
         d="M 0 17 L 141.730469 17 L 141.730469 19 L 0 19 Z M 0 17 "
         id="path27" />
    </clipPath>
    <clipPath
       id="clip-17">
      <path
         clip-rule="nonzero"
         d="M 0 0 L 141.730469 0 L 141.730469 1 L 0 1 Z M 0 0 "
         id="path28" />
    </clipPath>
    <clipPath
       id="clip-18">
      <path
         clip-rule="nonzero"
         d="M 134 86 L 141.730469 86 L 141.730469 91 L 134 91 Z M 134 86 "
         id="path29" />
    </clipPath>
    <clipPath
       id="clip-19">
      <path
         clip-rule="nonzero"
         d="M 133 86 L 141.730469 86 L 141.730469 91 L 133 91 Z M 133 86 "
         id="path30" />
    </clipPath>
    <clipPath
       id="clip-20">
      <path
         clip-rule="nonzero"
         d="M 0 87 L 141.730469 87 L 141.730469 89 L 0 89 Z M 0 87 "
         id="path31" />
    </clipPath>
    <clipPath
       id="clip-21">
      <path
         clip-rule="nonzero"
         d="M 52 7 L 54 7 L 54 141.730469 L 52 141.730469 Z M 52 7 "
         id="path32" />
    </clipPath>
    <clipPath
       id="clip-22">
      <path
         clip-rule="nonzero"
         d="M 52 0 L 54 0 L 54 141.730469 L 52 141.730469 Z M 52 0 "
         id="path33" />
    </clipPath>
    <clipPath
       id="clip-23">
      <path
         clip-rule="nonzero"
         d="M 35 0 L 83 0 L 83 141.730469 L 35 141.730469 Z M 35 0 "
         id="path34" />
    </clipPath>
  </defs>
  <g
     clip-path="url(#clip-0)"
     id="g35">
    <path
       fill="none"
       stroke-width="5"
       stroke-linecap="round"
       stroke-linejoin="round"
       stroke="rgb(66.601562%, 66.601562%, 66.601562%)"
       stroke-opacity="1"
       stroke-miterlimit="10"
       d="M 5 4.985313 L 5 1412.329063 "
       transform="matrix(0.1, 0, 0, -0.1, 0, 141.729)"
       id="path35" />
  </g>
  <g
     clip-path="url(#clip-1)"
     id="g36">
    <path
       fill="none"
       stroke-width="5"
       stroke-linecap="round"
       stroke-linejoin="round"
       stroke="rgb(66.601562%, 66.601562%, 66.601562%)"
       stroke-opacity="1"
       stroke-miterlimit="10"
       d="M 180.898438 4.985313 L 180.898438 1412.329063 "
       transform="matrix(0.1, 0, 0, -0.1, 0, 141.729)"
       id="path36" />
  </g>
  <g
     clip-path="url(#clip-2)"
     id="g37">
    <path
       fill="none"
       stroke-width="5"
       stroke-linecap="round"
       stroke-linejoin="round"
       stroke="rgb(66.601562%, 66.601562%, 66.601562%)"
       stroke-opacity="1"
       stroke-miterlimit="10"
       d="M 356.835938 4.985313 L 356.835938 1412.329063 "
       transform="matrix(0.1, 0, 0, -0.1, 0, 141.729)"
       id="path37" />
  </g>
  <g
     clip-path="url(#clip-3)"
     id="g38">
    <path
       fill="none"
       stroke-width="5"
       stroke-linecap="round"
       stroke-linejoin="round"
       stroke="rgb(66.601562%, 66.601562%, 66.601562%)"
       stroke-opacity="1"
       stroke-miterlimit="10"
       d="M 532.734375 4.985313 L 532.734375 1412.329063 "
       transform="matrix(0.1, 0, 0, -0.1, 0, 141.729)"
       id="path38" />
  </g>
  <g
     clip-path="url(#clip-4)"
     id="g39">
    <path
       fill="none"
       stroke-width="5"
       stroke-linecap="round"
       stroke-linejoin="round"
       stroke="rgb(66.601562%, 66.601562%, 66.601562%)"
       stroke-opacity="1"
       stroke-miterlimit="10"
       d="M 708.671875 4.985313 L 708.671875 1412.329063 "
       transform="matrix(0.1, 0, 0, -0.1, 0, 141.729)"
       id="path39" />
  </g>
  <g
     clip-path="url(#clip-5)"
     id="g40">
    <path
       fill="none"
       stroke-width="5"
       stroke-linecap="round"
       stroke-linejoin="round"
       stroke="rgb(66.601562%, 66.601562%, 66.601562%)"
       stroke-opacity="1"
       stroke-miterlimit="10"
       d="M 884.570312 4.985313 L 884.570312 1412.329063 "
       transform="matrix(0.1, 0, 0, -0.1, 0, 141.729)"
       id="path40" />
  </g>
  <g
     clip-path="url(#clip-6)"
     id="g41">
    <path
       fill="none"
       stroke-width="5"
       stroke-linecap="round"
       stroke-linejoin="round"
       stroke="rgb(66.601562%, 66.601562%, 66.601562%)"
       stroke-opacity="1"
       stroke-miterlimit="10"
       d="M 1060.507812 4.985313 L 1060.507812 1412.329063 "
       transform="matrix(0.1, 0, 0, -0.1, 0, 141.729)"
       id="path41" />
  </g>
  <g
     clip-path="url(#clip-7)"
     id="g42">
    <path
       fill="none"
       stroke-width="5"
       stroke-linecap="round"
       stroke-linejoin="round"
       stroke="rgb(66.601562%, 66.601562%, 66.601562%)"
       stroke-opacity="1"
       stroke-miterlimit="10"
       d="M 1236.40625 4.985313 L 1236.40625 1412.329063 "
       transform="matrix(0.1, 0, 0, -0.1, 0, 141.729)"
       id="path42" />
  </g>
  <g
     clip-path="url(#clip-8)"
     id="g43">
    <path
       fill="none"
       stroke-width="5"
       stroke-linecap="round"
       stroke-linejoin="round"
       stroke="rgb(66.601562%, 66.601562%, 66.601562%)"
       stroke-opacity="1"
       stroke-miterlimit="10"
       d="M 1412.304688 4.985313 L 1412.304688 1412.329063 "
       transform="matrix(0.1, 0, 0, -0.1, 0, 141.729)"
       id="path43" />
  </g>
  <g
     clip-path="url(#clip-9)"
     id="g44">
    <path
       fill="none"
       stroke-width="5"
       stroke-linecap="round"
       stroke-linejoin="round"
       stroke="rgb(66.601562%, 66.601562%, 66.601562%)"
       stroke-opacity="1"
       stroke-miterlimit="10"
       d="M 5 4.985313 L 1412.304688 4.985313 "
       transform="matrix(0.1, 0, 0, -0.1, 0, 141.729)"
       id="path44" />
  </g>
  <g
     clip-path="url(#clip-10)"
     id="g45">
    <path
       fill="none"
       stroke-width="5"
       stroke-linecap="round"
       stroke-linejoin="round"
       stroke="rgb(66.601562%, 66.601562%, 66.601562%)"
       stroke-opacity="1"
       stroke-miterlimit="10"
       d="M 5 180.922813 L 1412.304688 180.922813 "
       transform="matrix(0.1, 0, 0, -0.1, 0, 141.729)"
       id="path45" />
  </g>
  <g
     clip-path="url(#clip-11)"
     id="g46">
    <path
       fill="none"
       stroke-width="5"
       stroke-linecap="round"
       stroke-linejoin="round"
       stroke="rgb(66.601562%, 66.601562%, 66.601562%)"
       stroke-opacity="1"
       stroke-miterlimit="10"
       d="M 5 356.82125 L 1412.304688 356.82125 "
       transform="matrix(0.1, 0, 0, -0.1, 0, 141.729)"
       id="path46" />
  </g>
  <g
     clip-path="url(#clip-12)"
     id="g47">
    <path
       fill="none"
       stroke-width="5"
       stroke-linecap="round"
       stroke-linejoin="round"
       stroke="rgb(66.601562%, 66.601562%, 66.601562%)"
       stroke-opacity="1"
       stroke-miterlimit="10"
       d="M 5 532.75875 L 1412.304688 532.75875 "
       transform="matrix(0.1, 0, 0, -0.1, 0, 141.729)"
       id="path47" />
  </g>
  <g
     clip-path="url(#clip-13)"
     id="g48">
    <path
       fill="none"
       stroke-width="5"
       stroke-linecap="round"
       stroke-linejoin="round"
       stroke="rgb(66.601562%, 66.601562%, 66.601562%)"
       stroke-opacity="1"
       stroke-miterlimit="10"
       d="M 5 708.657188 L 1412.304688 708.657188 "
       transform="matrix(0.1, 0, 0, -0.1, 0, 141.729)"
       id="path48" />
  </g>
  <g
     clip-path="url(#clip-14)"
     id="g49">
    <path
       fill="none"
       stroke-width="5"
       stroke-linecap="round"
       stroke-linejoin="round"
       stroke="rgb(66.601562%, 66.601562%, 66.601562%)"
       stroke-opacity="1"
       stroke-miterlimit="10"
       d="M 5 884.594688 L 1412.304688 884.594688 "
       transform="matrix(0.1, 0, 0, -0.1, 0, 141.729)"
       id="path49" />
  </g>
  <g
     clip-path="url(#clip-15)"
     id="g50">
    <path
       fill="none"
       stroke-width="5"
       stroke-linecap="round"
       stroke-linejoin="round"
       stroke="rgb(66.601562%, 66.601562%, 66.601562%)"
       stroke-opacity="1"
       stroke-miterlimit="10"
       d="M 5 1060.493125 L 1412.304688 1060.493125 "
       transform="matrix(0.1, 0, 0, -0.1, 0, 141.729)"
       id="path50" />
  </g>
  <g
     clip-path="url(#clip-16)"
     id="g51">
    <path
       fill="none"
       stroke-width="5"
       stroke-linecap="round"
       stroke-linejoin="round"
       stroke="rgb(66.601562%, 66.601562%, 66.601562%)"
       stroke-opacity="1"
       stroke-miterlimit="10"
       d="M 5 1236.391563 L 1412.304688 1236.391563 "
       transform="matrix(0.1, 0, 0, -0.1, 0, 141.729)"
       id="path51" />
  </g>
  <g
     clip-path="url(#clip-17)"
     id="g52">
    <path
       fill="none"
       stroke-width="5"
       stroke-linecap="round"
       stroke-linejoin="round"
       stroke="rgb(66.601562%, 66.601562%, 66.601562%)"
       stroke-opacity="1"
       stroke-miterlimit="10"
       d="M 5 1412.329063 L 1412.304688 1412.329063 "
       transform="matrix(0.1, 0, 0, -0.1, 0, 141.729)"
       id="path52" />
  </g>
  <path
     fill="none"
     stroke-width="8"
     stroke-linecap="round"
     stroke-linejoin="round"
     stroke="rgb(0%, 0%, 0%)"
     stroke-opacity="1"
     stroke-miterlimit="10"
     d="M 1342.304688 532.75875 L 5 532.75875 "
     transform="matrix(0.1, 0, 0, -0.1, 0, 141.729)"
     id="path53" />
  <g
     clip-path="url(#clip-18)"
     id="g54">
    <path
       fill-rule="nonzero"
       fill="rgb(0%, 0%, 0%)"
       fill-opacity="1"
       d="M 141.230469 88.453125 L 134.230469 86.578125 L 134.230469 90.332031 Z M 141.230469 88.453125 "
       id="path54" />
  </g>
  <g
     clip-path="url(#clip-19)"
     id="g55">
    <path
       fill="none"
       stroke-width="8"
       stroke-linecap="round"
       stroke-linejoin="round"
       stroke="rgb(0%, 0%, 0%)"
       stroke-opacity="1"
       stroke-miterlimit="10"
       d="M 1412.304688 532.75875 L 1342.304688 551.50875 L 1342.304688 513.969688 Z M 1412.304688 532.75875 "
       transform="matrix(0.1, 0, 0, -0.1, 0, 141.729)"
       id="path55" />
  </g>
  <g
     clip-path="url(#clip-20)"
     id="g56">
    <path
       fill="none"
       stroke-width="10"
       stroke-linecap="round"
       stroke-linejoin="round"
       stroke="rgb(0%, 0%, 0%)"
       stroke-opacity="1"
       stroke-miterlimit="10"
       d="M 5 532.75875 L 1412.304688 532.75875 "
       transform="matrix(0.1, 0, 0, -0.1, 0, 141.729)"
       id="path56" />
  </g>
  <g
     clip-path="url(#clip-21)"
     id="g57">
    <path
       fill="none"
       stroke-width="8"
       stroke-linecap="round"
       stroke-linejoin="round"
       stroke="rgb(0%, 0%, 0%)"
       stroke-opacity="1"
       stroke-miterlimit="10"
       d="M 532.734375 1342.329063 L 532.734375 4.985313 "
       transform="matrix(0.1, 0, 0, -0.1, 0, 141.729)"
       id="path57" />
  </g>
  <path
     fill-rule="nonzero"
     fill="rgb(0%, 0%, 0%)"
     fill-opacity="1"
     stroke-width="8"
     stroke-linecap="round"
     stroke-linejoin="round"
     stroke="rgb(0%, 0%, 0%)"
     stroke-opacity="1"
     stroke-miterlimit="10"
     d="M 532.734375 1412.329063 L 513.984375 1342.329063 L 551.523438 1342.329063 Z M 532.734375 1412.329063 "
     transform="matrix(0.1, 0, 0, -0.1, 0, 141.729)"
     id="path58" />
  <g
     clip-path="url(#clip-22)"
     id="g59">
    <path
       fill="none"
       stroke-width="10"
       stroke-linecap="round"
       stroke-linejoin="round"
       stroke="rgb(0%, 0%, 0%)"
       stroke-opacity="1"
       stroke-miterlimit="10"
       d="M 532.734375 4.985313 L 532.734375 1412.329063 "
       transform="matrix(0.1, 0, 0, -0.1, 0, 141.729)"
       id="path59" />
  </g>
  <path
     fill-rule="nonzero"
     fill="rgb(100%, 100%, 100%)"
     fill-opacity="1"
     d="M 91.007812 139.90625 L 138.683594 139.90625 L 138.683594 124.960938 L 91.007812 124.960938 L 91.007812 139.90625 "
     id="path60" />
  <path
     fill-rule="nonzero"
     fill="rgb(100%, 100%, 100%)"
     fill-opacity="1"
     d="M 73.921875 34.355469 L 120.585938 34.355469 L 120.585938 19.410156 L 73.921875 19.410156 L 73.921875 34.355469 "
     id="path61" />
  <path
     fill="none"
     stroke-width="8"
     stroke-linecap="round"
     stroke-linejoin="round"
     stroke="rgb(0%, 0%, 0%)"
     stroke-opacity="1"
     stroke-miterlimit="10"
     d="M 323.398438 1409.868125 L 332.851562 1359.4775 L 342.34375 1310.063438 L 351.796875 1261.704063 L 361.25 1214.360313 L 370.742188 1168.032188 L 380.195312 1122.680625 L 389.648438 1078.38375 L 399.101562 1035.141563 L 408.59375 992.875938 L 418.046875 951.625938 L 427.5 911.391563 L 436.992188 872.172813 L 446.445312 834.00875 L 455.898438 796.82125 L 465.351562 760.688438 L 474.84375 725.532188 L 484.296875 691.430625 L 493.75 658.344688 L 503.242188 626.235313 L 512.695312 595.180625 L 522.148438 565.141563 L 531.601562 536.118125 L 541.09375 508.110313 L 550.546875 481.157188 L 560 455.180625 L 569.492188 430.219688 L 578.945312 406.274375 L 588.398438 383.38375 L 597.851562 361.469688 L 607.34375 340.610313 L 616.796875 320.766563 L 626.25 301.899375 L 635.742188 284.086875 L 645.195312 267.29 L 654.648438 251.50875 L 664.101562 236.743125 L 673.59375 222.993125 L 683.046875 210.25875 L 692.5 198.54 L 701.992188 187.836875 L 711.445312 178.188438 L 720.898438 169.516563 L 730.351562 161.899375 L 739.84375 155.25875 L 749.296875 149.672813 L 758.75 145.063438 L 768.242188 141.50875 L 777.695312 138.969688 L 787.148438 137.44625 L 796.601562 136.938438 L 806.09375 137.44625 L 815.546875 138.969688 L 825 141.50875 L 834.492188 145.063438 L 843.945312 149.672813 L 853.398438 155.25875 L 862.851562 161.899375 L 872.34375 169.516563 L 881.796875 178.188438 L 891.25 187.836875 L 900.742188 198.54 L 910.195312 210.25875 L 919.648438 222.993125 L 929.101562 236.743125 L 938.59375 251.50875 L 948.046875 267.29 L 957.5 284.086875 L 966.992188 301.899375 L 976.445312 320.766563 L 985.898438 340.610313 L 995.351562 361.469688 L 1004.84375 383.38375 L 1014.296875 406.274375 L 1023.75 430.219688 L 1033.242188 455.180625 L 1042.695312 481.157188 L 1052.148438 508.110313 L 1061.601562 536.118125 L 1071.09375 565.141563 L 1080.546875 595.180625 L 1090 626.235313 L 1099.492188 658.344688 L 1108.945312 691.430625 L 1118.398438 725.532188 L 1127.851562 760.688438 L 1137.34375 796.82125 L 1146.796875 834.00875 L 1156.25 872.172813 L 1165.742188 911.391563 L 1175.195312 951.625938 L 1184.648438 992.875938 L 1194.101562 1035.141563 L 1203.59375 1078.38375 L 1213.046875 1122.680625 L 1222.5 1168.032188 L 1231.953125 1214.360313 L 1241.445312 1261.704063 L 1250.898438 1310.063438 L 1260.351562 1359.4775 L 1269.84375 1409.868125 "
     transform="matrix(0.1, 0, 0, -0.1, 0, 141.729)"
     id="path62" />
  <g
     clip-path="url(#clip-23)"
     id="g63">
    <path
       fill="none"
       stroke-width="8"
       stroke-linecap="round"
       stroke-linejoin="round"
       stroke="rgb(0%, 0%, 0%)"
       stroke-opacity="1"
       stroke-miterlimit="10"
       d="M 825.9375 1412.329063 L 356.835938 4.985313 "
       transform="matrix(0.1, 0, 0, -0.1, 0, 141.729)"
       id="path63" />
  </g>
  <path
     fill-rule="nonzero"
     fill="rgb(100%, 100%, 100%)"
     fill-opacity="1"
     d="M 66.445312 101.25 L 75.289062 101.25 L 75.289062 90.554688 L 66.445312 90.554688 L 66.445312 101.25 "
     id="path64" />
  <path
     fill-rule="nonzero"
     fill="rgb(100%, 100%, 100%)"
     fill-opacity="1"
     d="M 40.890625 76.210938 L 49.734375 76.210938 L 49.734375 65.515625 L 40.890625 65.515625 L 40.890625 76.210938 "
     id="path65" />
  <path
     fill-rule="nonzero"
     fill="rgb(100%, 100%, 100%)"
     fill-opacity="1"
     d="M 131.148438 82.753906 L 140.792969 82.753906 L 140.792969 74.617188 L 131.148438 74.617188 L 131.148438 82.753906 "
     id="path66" />
  <path
     fill-rule="nonzero"
     fill="rgb(100%, 100%, 100%)"
     fill-opacity="1"
     d="M 58.972656 11.191406 L 68.101562 11.191406 L 68.101562 0.730469 L 58.972656 0.730469 L 58.972656 11.191406 "
     id="path67" />
  <path
     fill="none"
     stroke-width="30"
     stroke-linecap="round"
     stroke-linejoin="round"
     stroke="rgb(0%, 0%, 0%)"
     stroke-opacity="1"
     stroke-miterlimit="10"
     d="M 532.734375 532.75875 L 532.734375 532.75875 "
     transform="matrix(0.1, 0, 0, -0.1, 0, 141.729)"
     id="path68" />
  <path
     fill="none"
     stroke-width="30"
     stroke-linecap="round"
     stroke-linejoin="round"
     stroke="rgb(0%, 0%, 0%)"
     stroke-opacity="1"
     stroke-miterlimit="10"
     d="M 1060.507812 532.75875 L 1060.507812 532.75875 "
     transform="matrix(0.1, 0, 0, -0.1, 0, 141.729)"
     id="path69" />
  <path
     fill="none"
     stroke-width="30"
     stroke-linecap="round"
     stroke-linejoin="round"
     stroke="rgb(0%, 0%, 0%)"
     stroke-opacity="1"
     stroke-miterlimit="10"
     d="M 708.671875 1060.493125 L 708.671875 1060.493125 "
     transform="matrix(0.1, 0, 0, -0.1, 0, 141.729)"
     id="path70" />
  <path
     fill="none"
     stroke-width="30"
     stroke-linecap="round"
     stroke-linejoin="round"
     stroke="rgb(0%, 0%, 0%)"
     stroke-opacity="1"
     stroke-miterlimit="10"
     d="M 1236.40625 1236.391563 L 1236.40625 1236.391563 "
     transform="matrix(0.1, 0, 0, -0.1, 0, 141.729)"
     id="path71" />
  <g
     fill="rgb(0%, 0%, 0%)"
     fill-opacity="1"
     id="g71">
    <use
       xlink:href="#glyph-0-0"
       x="92.499"
       y="135.422"
       id="use71" />
  </g>
  <g
     fill="rgb(0%, 0%, 0%)"
     fill-opacity="1"
     id="g72">
    <use
       xlink:href="#glyph-1-0"
       x="101.960345"
       y="135.422"
       id="use72" />
  </g>
  <g
     fill="rgb(0%, 0%, 0%)"
     fill-opacity="1"
     id="g73">
    <use
       xlink:href="#glyph-0-1"
       x="114.377016"
       y="135.422"
       id="use73" />
  </g>
  <g
     fill="rgb(0%, 0%, 0%)"
     fill-opacity="1"
     id="g74">
    <use
       xlink:href="#glyph-1-1"
       x="121.425802"
       y="135.422"
       id="use74" />
  </g>
  <g
     fill="rgb(0%, 0%, 0%)"
     fill-opacity="1"
     id="g75">
    <use
       xlink:href="#glyph-0-2"
       x="125.978342"
       y="135.422"
       id="use75" />
  </g>
  <g
     fill="rgb(0%, 0%, 0%)"
     fill-opacity="1"
     id="g76">
    <use
       xlink:href="#glyph-1-2"
       x="132.630215"
       y="135.422"
       id="use76" />
  </g>
  <g
     fill="rgb(0%, 0%, 0%)"
     fill-opacity="1"
     id="g77">
    <use
       xlink:href="#glyph-0-0"
       x="75.414"
       y="29.873"
       id="use77" />
  </g>
  <g
     fill="rgb(0%, 0%, 0%)"
     fill-opacity="1"
     id="g78">
    <use
       xlink:href="#glyph-1-0"
       x="84.875345"
       y="29.873"
       id="use78" />
  </g>
  <g
     fill="rgb(0%, 0%, 0%)"
     fill-opacity="1"
     id="g79">
    <use
       xlink:href="#glyph-0-3"
       x="97.292016"
       y="29.873"
       id="use79" />
  </g>
  <g
     fill="rgb(0%, 0%, 0%)"
     fill-opacity="1"
     id="g80">
    <use
       xlink:href="#glyph-1-1"
       x="103.328196"
       y="29.873"
       id="use80" />
  </g>
  <g
     fill="rgb(0%, 0%, 0%)"
     fill-opacity="1"
     id="g81">
    <use
       xlink:href="#glyph-0-2"
       x="107.880737"
       y="29.873"
       id="use81" />
  </g>
  <g
     fill="rgb(0%, 0%, 0%)"
     fill-opacity="1"
     id="g82">
    <use
       xlink:href="#glyph-1-2"
       x="114.53261"
       y="29.873"
       id="use82" />
  </g>
  <g
     fill="rgb(0%, 0%, 0%)"
     fill-opacity="1"
     id="g83">
    <use
       xlink:href="#glyph-0-4"
       x="56.869"
       y="84.857"
       id="use83" />
  </g>
  <g
     fill="rgb(0%, 0%, 0%)"
     fill-opacity="1"
     id="g84">
    <use
       xlink:href="#glyph-1-3"
       x="67.937"
       y="99.757"
       id="use84" />
  </g>
  <g
     fill="rgb(0%, 0%, 0%)"
     fill-opacity="1"
     id="g85">
    <use
       xlink:href="#glyph-1-3"
       x="42.383"
       y="74.715"
       id="use85" />
  </g>
  <g
     fill="rgb(0%, 0%, 0%)"
     fill-opacity="1"
     id="g86">
    <use
       xlink:href="#glyph-1-4"
       x="43.822"
       y="99.757"
       id="use86" />
  </g>
  <g
     fill="rgb(0%, 0%, 0%)"
     fill-opacity="1"
     id="g87">
    <use
       xlink:href="#glyph-0-2"
       x="132.643"
       y="81.26"
       id="use87" />
  </g>
  <g
     fill="rgb(0%, 0%, 0%)"
     fill-opacity="1"
     id="g88">
    <use
       xlink:href="#glyph-0-0"
       x="60.467"
       y="7.374"
       id="use88" />
  </g>
</svg>
